<?xml version="1.0" standalone="no"?>
<!DOCTYPE svg PUBLIC "-//W3C//DTD SVG 20010904//EN"
 "http://www.w3.org/TR/2001/REC-SVG-20010904/DTD/svg10.dtd">
<svg version="1.0" xmlns="http://www.w3.org/2000/svg"
 width="500.000000pt" height="500.000000pt" viewBox="0 0 500.000000 500.000000"
 preserveAspectRatio="xMidYMid meet">
<metadata>
Created by potrace 1.14, written by Peter Selinger 2001-2017
</metadata>
<g transform="translate(0.000000,500.000000) scale(0.100000,-0.100000)"
fill="#000000" stroke="none">
<path d="M2298 4995 c-1 -2 -30 -6 -63 -9 -96 -9 -144 -16 -245 -38 -52 -11
-102 -22 -110 -23 -8 -2 -15 -4 -15 -5 0 -1 -9 -3 -20 -5 -54 -11 -252 -81
-345 -122 -614 -274 -1061 -735 -1325 -1368 -49 -117 -122 -380 -141 -503 -3
-20 -7 -48 -10 -62 -19 -112 -26 -508 -10 -635 14 -114 18 -144 32 -214 151
-770 685 -1450 1399 -1781 139 -64 377 -147 478 -165 63 -12 83 -16 97 -21 8
-3 33 -8 55 -10 22 -3 46 -7 54 -10 76 -25 612 -26 726 -1 11 3 42 8 68 11
230 31 544 142 797 282 253 140 538 377 705 587 17 21 40 50 53 65 25 30 158
228 190 282 80 138 175 355 215 490 33 108 63 226 72 275 1 11 6 36 9 55 25
145 33 264 31 460 -2 118 -6 231 -9 250 -3 19 -8 58 -11 85 -3 28 -8 57 -10
65 -2 8 -7 31 -10 50 -10 57 -52 219 -79 300 -67 206 -192 464 -283 586 -13
17 -23 34 -23 38 0 16 -163 220 -245 306 -64 68 -173 170 -235 220 -30 25 -61
50 -68 57 -7 7 -26 20 -42 30 -17 9 -30 21 -30 25 0 4 -7 8 -15 8 -8 0 -15 5
-15 10 0 6 -4 10 -9 10 -5 0 -35 18 -67 39 -69 45 -223 132 -241 135 -7 1 -16
5 -20 10 -38 38 -433 170 -598 200 -16 3 -39 8 -50 10 -12 2 -48 7 -80 11 -33
4 -69 10 -80 12 -23 6 -471 13 -477 8z"/>
</g>
</svg>
