<svg width="160" height="160" viewBox="0 0 160 160" fill="none" xmlns="http://www.w3.org/2000/svg">
<circle cx="80" cy="80" r="80" fill="white"/>
<path d="M121.909 55.1197L95.9137 29.0004C95.2638 28.3678 94.4108 28.0005 93.5173 28.0005H38.3999V132.498H122.822V57.2827C122.802 56.4869 122.477 55.691 121.909 55.1197Z" fill="#FFF5F5"/>
<path d="M121.908 55.1194L97.2741 30.3673C95.751 28.8573 93.7201 28.0002 91.5877 28.0002H80.6008V132.477H122.802V57.2824C122.802 56.4866 122.477 55.6908 121.908 55.1194Z" fill="#E1EBF0"/>
<path d="M70.5889 93.1356H51.438V73.8931H70.5889V93.1356ZM57.5509 87.0139H64.5167V80.0148H57.5509V87.0139Z" fill="#FC611F"/>
<path d="M70.5889 119.357H51.438V100.114H70.5889V119.357ZM57.5509 113.235H64.5167V106.236H57.5509V113.235Z" fill="#FC611F"/>
<path d="M70.812 50.5079H73.8583V44.3862H70.812H54.5043H51.458V50.5079H54.5043H70.812Z" fill="#197398"/>
<path d="M77.5545 57.5073H54.5043H51.458V63.629H54.5043H77.5545H80.6008V57.5073H77.5545Z" fill="#197398"/>
<path d="M109.744 90.0131V87.0134H108.159H83.6471H80.6008V89.9723C80.6008 90.0335 80.6008 90.0743 80.6008 90.1355V93.1351H82.1849H106.697H109.744V90.1763C109.744 90.1151 109.744 90.0743 109.744 90.0131Z" fill="#07485E"/>
<path d="M93.6599 80.0148H96.7062V73.8931H93.6599H83.6478H80.6016V80.0148H83.6478H93.6599Z" fill="#07485E"/>
<path d="M93.6592 106.255H96.7055V100.134H93.6592H83.6471H80.6008V106.255H83.6471H93.6592Z" fill="#07485E"/>
<path d="M83.6471 113.236H80.6008V119.358H83.6471H106.697H109.744V113.236H106.697H83.6471Z" fill="#07485E"/>
<path d="M122.802 57.2825C122.802 56.4866 122.498 55.7112 121.909 55.1195L95.8123 28.8981C95.2436 28.3267 94.4922 28.0206 93.7205 28.0002H90.6133V30.2245V30.5714V60.3433H120.223H120.589H122.802V57.2825Z" fill="#B4D2D7"/>
</svg>
