<svg width="160" height="160" viewBox="0 0 160 160" fill="none" xmlns="http://www.w3.org/2000/svg">
<circle cx="80" cy="80" r="80" fill="white"/>
<path d="M34 58.8521H125.851V128.678H34V58.8521Z" fill="#F5F5F7"/>
<path d="M79.9255 58.8521H125.85V128.676H79.9255V58.8521Z" fill="#E0E3EE"/>
<path d="M34 117.989H125.851V132H34V117.989Z" fill="#197398"/>
<path d="M79.9255 117.991H125.85V131.999H79.9255V117.991Z" fill="#07485E"/>
<path d="M34.0647 39.6538H125.786V62.5245H34.0647V39.6538Z" fill="#FC611F"/>
<path d="M79.9255 39.6538H125.786V62.5235H79.9255V39.6538Z" fill="#E34E10"/>
<path d="M96.1946 45.8406V33.4669C96.1946 30.4478 98.6315 28 101.638 28C104.644 28 107.081 30.4475 107.081 33.4669V45.8409C107.081 48.8602 104.644 51.3078 101.638 51.3078C98.6315 51.3075 96.1946 48.86 96.1946 45.8406Z" fill="#EF7A06"/>
<path d="M52.7708 45.8412V33.4674C52.7708 30.4483 55.2077 28.0005 58.214 28.0005C61.2203 28.0005 63.6572 30.448 63.6572 33.4674V45.8414C63.6572 48.8608 61.2203 51.3084 58.214 51.3084C55.2077 51.3081 52.7708 48.8605 52.7708 45.8412Z" fill="#FD9827"/>
<path d="M73.9978 103.897H69.8622V80.2883H64.8376V76.1348H73.9978V103.897Z" fill="#197398"/>
<path d="M97.3275 103.792L81.1665 103.743L81.1795 100.056L81.7477 99.457C81.7689 99.434 84.2588 96.7633 89.9604 88.5815C91.085 86.9677 91.8101 85.519 92.1167 84.2729L92.2005 83.6152C92.1377 81.4839 90.3919 79.769 88.2549 79.769C86.3727 79.769 84.7438 81.1123 84.3818 82.9626L83.9834 85.0003L79.9253 84.2003L80.3237 82.1626C81.0653 78.3693 84.4008 75.6157 88.2549 75.6157C92.7117 75.6157 96.3375 79.2573 96.3375 83.7338V83.8658L96.1682 85.1161C95.7555 86.9038 94.8065 88.8709 93.3483 90.9635C90.484 95.0738 88.4043 97.8363 87.0073 99.6073L97.3402 99.6392L97.3275 103.792Z" fill="#07485E"/>
</svg>
