<svg width="18" height="20" viewBox="0 0 18 20" fill="none" xmlns="http://www.w3.org/2000/svg">
<path d="M7.79998 1.5999C7.79998 0.937161 8.33723 0.399902 8.99998 0.399902C9.66272 0.399902 10.2 0.937161 10.2 1.5999V8.1999C10.2 8.53127 10.4686 8.7999 10.8 8.7999C11.1313 8.7999 11.4 8.53127 11.4 8.1999V2.7999C11.4 2.13716 11.9372 1.5999 12.6 1.5999C13.2627 1.5999 13.8 2.13716 13.8 2.7999V8.1999C13.8 8.53127 14.0686 8.7999 14.4 8.7999C14.7313 8.7999 15 8.53127 15 8.1999V5.1999C15 4.53716 15.5372 3.9999 16.2 3.9999C16.8627 3.9999 17.4 4.53716 17.4 5.1999V11.1999C17.4 15.8391 13.6392 19.5999 8.99998 19.5999C4.36078 19.5999 0.599976 15.8391 0.599976 11.1999V8.7999C0.599976 8.13716 1.13723 7.5999 1.79998 7.5999C2.46272 7.5999 2.99998 8.13716 2.99998 8.7999V11.7999C2.99998 12.1313 3.2686 12.3999 3.59998 12.3999C3.93135 12.3999 4.19998 12.1313 4.19998 11.7999V2.7999C4.19998 2.13716 4.73723 1.5999 5.39998 1.5999C6.06272 1.5999 6.59998 2.13716 6.59998 2.7999V8.1999C6.59998 8.53127 6.86861 8.7999 7.19998 8.7999C7.53135 8.7999 7.79998 8.53127 7.79998 8.1999V1.5999Z" fill="white"/>
</svg>
