<svg width="100" height="100" viewBox="0 0 100 100" fill="none" xmlns="http://www.w3.org/2000/svg">
<circle cx="50" cy="50" r="50" fill="#C5E8F7"/>
<path d="M41.8955 68.8945H57.1299V82.2826H41.8955V68.8945Z" fill="#28AEE4"/>
<path d="M49.4873 68.8945H57.1299V82.2826H49.4873V68.8945Z" fill="#437AC2"/>
<path d="M22.7129 25.2876H76.2871V45.051H22.7129V25.2876Z" fill="#197398"/>
<path d="M49.4873 25.2876H76.2871V45.051H49.4873V25.2876Z" fill="#07485E"/>
<path d="M39.0137 17H59.9863V37.4008H39.0137V17Z" fill="#FC611F"/>
<path d="M49.4873 17H59.9863V37.4008H49.4873V17Z" fill="#E34E10"/>
<path d="M53.4736 23.6301H51.417V21.5518H47.6084V23.6301H45.5518V27.4552H47.6084V29.5208H51.417V27.4552H53.4736V23.6301Z" fill="#FFF5F5"/>
<path d="M64.8613 41.2261H82V82.2828H64.8613V41.2261Z" fill="#E1EBF0"/>
<path d="M64.8613 41.2261H82V82.2828H64.8613V41.2261Z" fill="#B4D2D7"/>
<path d="M17 41.2261H34.1387V82.2828H17V41.2261Z" fill="#E1EBF0"/>
<path d="M21.7607 48.8765H25.5693V54.9075H21.7607V48.8765Z" fill="#28AEE4"/>
<path d="M21.7607 58.7324H25.5693V64.7634H21.7607V58.7324Z" fill="#28AEE4"/>
<path d="M21.7607 68.5884H25.5693V74.6321H21.7607V68.5884Z" fill="#28AEE4"/>
<path d="M73.4307 48.8765H77.2393V54.9075H73.4307V48.8765Z" fill="#5ECEF4"/>
<path d="M73.4307 58.7324H77.2393V64.7634H73.4307V58.7324Z" fill="#5ECEF4"/>
<path d="M73.4307 68.5884H77.2393V74.6321H73.4307V68.5884Z" fill="#5ECEF4"/>
<path d="M30.3301 33.5757V82.2827H43.7998V70.8072H55.2256V82.2827H68.6699V33.5757H30.3301Z" fill="#FFF5F5"/>
<path d="M49.4873 33.5757V70.8072H55.2256V82.2827H68.6699V33.5757H49.4873Z" fill="#E1EBF0"/>
<path d="M39.9912 66.9819V82.2825H43.7998V70.8071H47.6084V82.2825H51.417V70.8071H55.2256V82.2825H59.0342V66.9819H39.9912Z" fill="#197398"/>
<path d="M37.5918 58.0566H61.4336V61.8817H37.5918V58.0566Z" fill="#28AEE4"/>
<path d="M37.5918 50.4062H61.4336V54.2314H37.5918V50.4062Z" fill="#28AEE4"/>
<path d="M37.5918 42.7432H61.4336V46.5683H37.5918V42.7432Z" fill="#28AEE4"/>
<path d="M73.4307 48.8765H77.2393V54.9075H73.4307V48.8765Z" fill="#437AC2"/>
<path d="M73.4307 58.7324H77.2393V64.7634H73.4307V58.7324Z" fill="#437AC2"/>
<path d="M73.4307 68.5884H77.2393V74.6321H73.4307V68.5884Z" fill="#437AC2"/>
<path d="M51.417 27.4552H53.4736V23.6301H51.417V21.5518H49.4873V29.5208H51.417V27.4552Z" fill="#E1EBF0"/>
<path d="M49.4873 66.9819V82.2825H51.417V70.8071H55.2256V82.2825H59.0342V66.9819H49.4873Z" fill="#07485E"/>
<path d="M49.4873 58.0566H61.4336V61.8817H49.4873V58.0566Z" fill="#437AC2"/>
<path d="M49.4873 50.4062H61.4336V54.2314H49.4873V50.4062Z" fill="#437AC2"/>
<path d="M49.4873 42.7432H61.4336V46.5683H49.4873V42.7432Z" fill="#437AC2"/>
</svg>
