<svg width="100" height="100" viewBox="0 0 100 100" fill="none" xmlns="http://www.w3.org/2000/svg">
<circle cx="50" cy="50" r="50" fill="#C5E8F7"/>
<path d="M21 36.3662H78.6565V80.1968H21V36.3662Z" fill="#F5F5F7"/>
<path d="M49.8281 36.3662H78.6555V80.196H49.8281V36.3662Z" fill="#E0E3EE"/>
<path d="M21 73.4878H78.6565V82.2823H21V73.4878Z" fill="#197398"/>
<path d="M49.8281 73.4888H78.6555V82.2822H49.8281V73.4888Z" fill="#07485E"/>
<path d="M21.0405 24.3154H78.6157V38.6718H21.0405V24.3154Z" fill="#FC611F"/>
<path d="M49.8281 24.3154H78.6157V38.6711H49.8281V24.3154Z" fill="#E34E10"/>
<path d="M60.0405 28.1988V20.4317C60.0405 18.5365 61.5702 17 63.4573 17C65.3444 17 66.8741 18.5364 66.8741 20.4317V28.199C66.8741 30.0943 65.3444 31.6307 63.4573 31.6307C61.5702 31.6305 60.0405 30.0941 60.0405 28.1988Z" fill="#EF7A06"/>
<path d="M32.7827 28.1994V20.4322C32.7827 18.537 34.3124 17.0005 36.1995 17.0005C38.0866 17.0005 39.6163 18.5369 39.6163 20.4322V28.1995C39.6163 30.0949 38.0866 31.6312 36.1995 31.6312C34.3124 31.6311 32.7827 30.0947 32.7827 28.1994Z" fill="#FD9827"/>
<path d="M46.1074 64.6419H43.5114V49.8221H40.3574V47.2148H46.1074V64.6419Z" fill="#197398"/>
<path d="M60.7518 64.5762L50.6073 64.5449L50.6154 62.2305L50.9721 61.8547C50.9854 61.8403 52.5484 60.1638 56.1273 55.028C56.8333 54.015 57.2884 53.1056 57.4809 52.3234L57.5335 51.9106C57.494 50.5727 56.3982 49.4963 55.0568 49.4963C53.8752 49.4963 52.8528 50.3394 52.6255 51.5009L52.3755 52.78L49.8281 52.2779L50.0782 50.9987C50.5437 48.6176 52.6375 46.8892 55.0568 46.8892C57.8544 46.8892 60.1303 49.175 60.1303 51.985V52.0679L60.0241 52.8527C59.765 53.9748 59.1693 55.2096 58.254 56.5232C56.456 59.1033 55.1506 60.8373 54.2736 61.9491L60.7598 61.9691L60.7518 64.5762Z" fill="#07485E"/>
</svg>
