<svg width="100" height="100" viewBox="0 0 100 100" fill="none" xmlns="http://www.w3.org/2000/svg">
<circle cx="50" cy="50" r="50" fill="#C5E8F7"/>
<path d="M76.1929 33.9421L59.9461 17.6247C59.5399 17.2295 59.0068 17 58.4483 17H24V82.2827H76.7641V35.2934C76.7514 34.7962 76.5483 34.2991 76.1929 33.9421Z" fill="#FFF5F5"/>
<path d="M76.1927 33.9421L60.7963 18.4788C59.8443 17.5354 58.5751 17 57.2423 17H50.3755V82.2699H76.7512V35.2934C76.7512 34.7962 76.5481 34.2991 76.1927 33.9421Z" fill="#E1EBF0"/>
<path d="M44.1183 57.6918H32.1489V45.6704H44.1183V57.6918ZM35.9695 53.8674H40.3231V49.4948H35.9695V53.8674Z" fill="#FC611F"/>
<path d="M44.1183 74.0732H32.1489V62.0518H44.1183V74.0732ZM35.9695 70.2488H40.3231V65.8762H35.9695V70.2488Z" fill="#FC611F"/>
<path d="M44.2574 31.0613H46.1613V27.2368H44.2574H34.0651H32.1611V31.0613H34.0651H44.2574Z" fill="#197398"/>
<path d="M48.4714 35.4336H34.0651H32.1611V39.2581H34.0651H48.4714H50.3753V35.4336H48.4714Z" fill="#197398"/>
<path d="M68.5897 55.7412V53.8672H67.5997H52.2794H50.3755V55.7157C50.3755 55.7539 50.3755 55.7794 50.3755 55.8177V57.6917H51.3655H66.6858H68.5897V55.8432C68.5897 55.8049 68.5897 55.7794 68.5897 55.7412Z" fill="#07485E"/>
<path d="M58.537 49.4949H60.4409V45.6704H58.537H52.2794H50.3755V49.4949H52.2794H58.537Z" fill="#07485E"/>
<path d="M58.537 65.8884H60.4409V62.064H58.537H52.2794H50.3755V65.8884H52.2794H58.537Z" fill="#07485E"/>
<path d="M52.2794 70.249H50.3755V74.0734H52.2794H66.6858H68.5897V70.249H66.6858H52.2794Z" fill="#07485E"/>
<path d="M76.7514 35.2934C76.7514 34.7962 76.561 34.3118 76.1929 33.9421L59.8827 17.5609C59.5273 17.204 59.0576 17.0127 58.5753 17H56.6333V18.3895V18.6063V37.2056H75.1394H75.3679H76.7514V35.2934Z" fill="#B4D2D7"/>
</svg>
