<svg width="20" height="20" viewBox="0 0 20 20" fill="none" xmlns="http://www.w3.org/2000/svg">
<path fill-rule="evenodd" clip-rule="evenodd" d="M18.0001 10C18.0001 14.4183 14.4184 18 10.0001 18C5.58184 18 2.00012 14.4183 2.00012 10C2.00012 5.58172 5.58184 2 10.0001 2C14.4184 2 18.0001 5.58172 18.0001 10ZM11.0001 6C11.0001 6.55228 10.5524 7 10.0001 7C9.44784 7 9.00012 6.55228 9.00012 6C9.00012 5.44772 9.44784 5 10.0001 5C10.5524 5 11.0001 5.44772 11.0001 6ZM9.00012 9C8.44784 9 8.00012 9.44772 8.00012 10C8.00012 10.5523 8.44784 11 9.00012 11V14C9.00012 14.5523 9.44784 15 10.0001 15H11.0001C11.5524 15 12.0001 14.5523 12.0001 14C12.0001 13.4477 11.5524 13 11.0001 13V10C11.0001 9.44772 10.5524 9 10.0001 9H9.00012Z" fill="#111827"/>
</svg>
