<?xml version="1.0" encoding="UTF-8" standalone="no"?>
<svg
   xmlns:dc="http://purl.org/dc/elements/1.1/"
   xmlns:cc="http://creativecommons.org/ns#"
   xmlns:rdf="http://www.w3.org/1999/02/22-rdf-syntax-ns#"
   xmlns:svg="http://www.w3.org/2000/svg"
   xmlns="http://www.w3.org/2000/svg"
   viewBox="0 0 321.26001 151.18134"
   height="151.18134"
   width="321.26001"
   xml:space="preserve"
   id="svg2"
   version="1.1"><metadata
     id="metadata8"><rdf:RDF><cc:Work
         rdf:about=""><dc:format>image/svg+xml</dc:format><dc:type
           rdf:resource="http://purl.org/dc/dcmitype/StillImage" /></cc:Work></rdf:RDF></metadata><defs
     id="defs6"><clipPath
       id="clipPath22"
       clipPathUnits="userSpaceOnUse"><path
         id="path20"
         d="M 0,113.386 H 240.945 V 0 H 0 Z" /></clipPath></defs><g
     transform="matrix(1.3333333,0,0,-1.3333333,0,151.18133)"
     id="g10"><g
       transform="translate(123.1729,68.4214)"
       id="g12"><path
         id="path14"
         style="fill:#e2001a;fill-opacity:1;fill-rule:nonzero;stroke:none"
         d="M 0,0 V 16.675 H 10.774 V 13.65 H 3.199 V 9.7 H 9.25 V 6.725 H 3.199 V 0 Z" /></g><g
       id="g16"><g
         clip-path="url(#clipPath22)"
         id="g18"><g
           transform="translate(139.3721,68.1714)"
           id="g24"><path
             id="path26"
             style="fill:#e2001a;fill-opacity:1;fill-rule:nonzero;stroke:none"
             d="m 0,0 c -1.4,0 -2.471,0.425 -3.212,1.275 -0.742,0.85 -1.113,2.133 -1.113,3.85 V 12.3 h 3.1 V 5.45 c 0,-0.834 0.15,-1.509 0.45,-2.025 0.3,-0.517 0.817,-0.775 1.55,-0.775 0.6,0 1.108,0.121 1.525,0.363 0.417,0.241 0.75,0.47 1,0.687 v 8.6 H 6.401 V 0.25 H 3.55 L 3.45,1.2 C 2.9,0.733 2.329,0.417 1.738,0.25 1.146,0.083 0.566,0 0,0" /></g><g
           transform="translate(148.8721,68.4214)"
           id="g28"><path
             id="path30"
             style="fill:#e2001a;fill-opacity:1;fill-rule:nonzero;stroke:none"
             d="M 0,0 V 12.05 H 2.824 L 2.976,11.1 c 0.482,0.4 1.028,0.708 1.635,0.925 0.61,0.216 1.222,0.325 1.838,0.325 0.985,0 1.814,-0.217 2.489,-0.65 0.673,-0.433 1.15,-1.071 1.423,-1.912 0.277,-0.842 0.413,-1.73 0.413,-2.663 V 0 H 7.675 V 6.875 C 7.675,7.792 7.482,8.5 7.101,9 6.717,9.5 6.184,9.75 5.5,9.75 5.017,9.75 4.57,9.625 4.162,9.375 3.754,9.125 3.399,8.85 3.101,8.55 V 0 Z" /></g><g
           transform="translate(167.6973,70.7964)"
           id="g32"><path
             id="path34"
             style="fill:#e2001a;fill-opacity:1;fill-rule:nonzero;stroke:none"
             d="M 0,0 C 0.383,0 0.773,0.104 1.175,0.312 1.574,0.521 1.857,0.767 2.023,1.05 V 7 C 1.425,7.233 0.865,7.35 0.35,7.35 -0.4,7.35 -1.025,7.138 -1.525,6.712 -2.025,6.288 -2.352,5.804 -2.5,5.263 -2.65,4.721 -2.727,4.225 -2.727,3.775 c 0,-0.5 0.055,-0.979 0.164,-1.438 0.109,-0.458 0.275,-0.858 0.5,-1.199 C -1.839,0.796 -1.556,0.521 -1.214,0.312 -0.871,0.104 -0.468,0 0,0 m -0.625,-2.65 c -0.835,0 -1.567,0.175 -2.2,0.525 -0.635,0.35 -1.167,0.816 -1.601,1.4 -0.432,0.583 -0.761,1.258 -0.987,2.025 -0.226,0.766 -0.337,1.566 -0.337,2.4 0,1.25 0.263,2.379 0.786,3.387 0.527,1.009 1.237,1.742 2.139,2.201 0.899,0.458 1.833,0.687 2.8,0.687 0.632,0 1.315,-0.117 2.048,-0.35 V 14.3 H 5.1 V -2.375 H 2.273 L 2.148,-1.45 C 1.865,-1.767 1.49,-2.046 1.023,-2.288 0.558,-2.529 0.008,-2.65 -0.625,-2.65" /></g><g
           transform="translate(179.8467,70.7212)"
           id="g36"><path
             id="path38"
             style="fill:#e2001a;fill-opacity:1;fill-rule:nonzero;stroke:none"
             d="m 0,0 c 0.399,0 0.786,0.083 1.161,0.25 0.375,0.167 0.696,0.375 0.964,0.625 v 2.45 C 1.392,3.275 0.717,3.191 0.1,3.075 -0.566,2.941 -1.029,2.713 -1.287,2.388 -1.547,2.063 -1.676,1.708 -1.676,1.325 c 0,-0.4 0.147,-0.721 0.439,-0.962 C -0.946,0.121 -0.533,0 0,0 m -0.726,-2.575 c -0.516,0 -1.011,0.088 -1.488,0.262 -0.474,0.176 -0.894,0.426 -1.262,0.751 -0.367,0.325 -0.663,0.725 -0.886,1.2 C -4.589,0.113 -4.7,0.65 -4.7,1.25 c 0,0.833 0.232,1.546 0.7,2.138 0.467,0.591 1.04,1.02 1.725,1.287 0.682,0.266 1.307,0.45 1.875,0.55 0.233,0.033 1.065,0.133 2.5,0.3 V 5.7 C 2.1,6.367 1.929,6.842 1.588,7.125 1.245,7.408 0.774,7.55 0.175,7.55 -0.426,7.55 -1,7.421 -1.551,7.163 -2.101,6.904 -2.518,6.65 -2.801,6.4 l -1.024,2.175 c 0.232,0.2 0.592,0.421 1.075,0.663 0.482,0.241 1.036,0.437 1.661,0.587 0.625,0.15 1.222,0.225 1.788,0.225 1.018,0 1.87,-0.2 2.564,-0.6 0.69,-0.4 1.19,-0.962 1.5,-1.687 C 5.069,7.038 5.225,6.267 5.225,5.45 V -2.3 H 2.375 L 2.25,-1.4 C 1.915,-1.767 1.49,-2.054 0.975,-2.262 0.458,-2.471 -0.108,-2.575 -0.726,-2.575" /></g><g
           transform="translate(188.8721,63.8965)"
           id="g40"><path
             id="path42"
             style="fill:#e2001a;fill-opacity:1;fill-rule:nonzero;stroke:none"
             d="m 0,0 1.475,3.425 h 2.75 L 2.199,0 Z m 2.875,4.25 c -0.667,0 -1.25,0.137 -1.75,0.413 -0.5,0.274 -0.858,0.645 -1.075,1.112 -0.217,0.466 -0.325,0.983 -0.325,1.55 v 6.75 h -1.702 v 2.5 h 1.702 V 19.7 H 2.8 v -3.125 h 2.774 v -2.5 H 2.8 V 7.95 C 2.8,7.566 2.892,7.3 3.074,7.15 3.258,7 3.475,6.925 3.725,6.925 4.341,6.925 4.875,7.1 5.324,7.45 L 6.125,5.225 C 5.74,4.941 5.263,4.708 4.687,4.525 4.111,4.342 3.508,4.25 2.875,4.25" /></g><path
           id="path44"
           style="fill:#e2001a;fill-opacity:1;fill-rule:nonzero;stroke:none"
           d="m 196.845,80.471 h 3.075 v -12.05 h -3.075 z m 1.55,1.125 c -0.633,0 -1.103,0.184 -1.412,0.55 -0.309,0.367 -0.463,0.775 -0.463,1.226 0,0.433 0.154,0.833 0.463,1.199 0.309,0.367 0.779,0.551 1.412,0.551 0.617,0 1.079,-0.184 1.388,-0.551 0.308,-0.366 0.463,-0.766 0.463,-1.199 0,-0.451 -0.155,-0.859 -0.463,-1.226 -0.309,-0.366 -0.771,-0.55 -1.388,-0.55" /><g
           transform="translate(206.9698,70.7212)"
           id="g46"><path
             id="path48"
             style="fill:#e2001a;fill-opacity:1;fill-rule:nonzero;stroke:none"
             d="m 0,0 c 0.4,0 0.787,0.083 1.162,0.25 0.375,0.167 0.696,0.375 0.963,0.625 v 2.45 C 1.393,3.275 0.718,3.191 0.101,3.075 -0.565,2.941 -1.028,2.713 -1.286,2.388 -1.546,2.063 -1.675,1.708 -1.675,1.325 c 0,-0.4 0.147,-0.721 0.439,-0.962 C -0.945,0.121 -0.532,0 0,0 m -0.725,-2.575 c -0.516,0 -1.011,0.088 -1.488,0.262 -0.475,0.176 -0.894,0.426 -1.262,0.751 -0.367,0.325 -0.663,0.725 -0.886,1.2 -0.227,0.475 -0.338,1.012 -0.338,1.612 0,0.833 0.232,1.546 0.699,2.138 0.468,0.591 1.041,1.02 1.726,1.287 0.682,0.266 1.307,0.45 1.875,0.55 0.232,0.033 1.065,0.133 2.5,0.3 V 5.7 C 2.101,6.367 1.93,6.842 1.589,7.125 1.246,7.408 0.775,7.55 0.176,7.55 -0.425,7.55 -1,7.421 -1.55,7.163 -2.1,6.904 -2.517,6.65 -2.8,6.4 l -1.024,2.175 c 0.232,0.2 0.592,0.421 1.074,0.663 0.483,0.241 1.037,0.437 1.662,0.587 0.625,0.15 1.222,0.225 1.788,0.225 1.018,0 1.87,-0.2 2.564,-0.6 0.69,-0.4 1.19,-0.962 1.5,-1.687 C 5.07,7.038 5.226,6.267 5.226,5.45 V -2.3 H 2.375 L 2.25,-1.4 C 1.916,-1.767 1.491,-2.054 0.976,-2.262 0.458,-2.471 -0.107,-2.575 -0.725,-2.575" /></g><g
           transform="translate(119.4966,48.4219)"
           id="g50"><path
             id="path52"
             style="fill:#e2001a;fill-opacity:1;fill-rule:nonzero;stroke:none"
             d="m 0,0 -6.15,16.674 h 3.425 L 1.5,4.05 5.65,16.674 H 8.8 L 2.975,0 Z" /></g><g
           transform="translate(133.8467,50.8223)"
           id="g54"><path
             id="path56"
             style="fill:#e2001a;fill-opacity:1;fill-rule:nonzero;stroke:none"
             d="M 0,0 C 0.633,0 1.17,0.202 1.612,0.611 2.054,1.021 2.35,1.504 2.5,2.063 2.65,2.619 2.725,3.157 2.725,3.675 2.725,4.508 2.591,5.194 2.325,5.736 2.058,6.277 1.716,6.679 1.3,6.937 0.883,7.194 0.45,7.325 0,7.325 -0.65,7.325 -1.196,7.116 -1.638,6.7 -2.08,6.283 -2.371,5.799 -2.513,5.25 -2.654,4.699 -2.725,4.175 -2.725,3.675 -2.725,3.157 -2.667,2.679 -2.55,2.236 -2.434,1.795 -2.263,1.407 -2.038,1.073 -1.812,0.74 -1.529,0.479 -1.187,0.286 -0.846,0.096 -0.45,0 0,0 m 0,-2.677 c -0.967,0 -1.812,0.185 -2.538,0.552 -0.725,0.365 -1.325,0.85 -1.799,1.448 -0.475,0.602 -0.834,1.281 -1.076,2.038 -0.241,0.758 -0.362,1.53 -0.362,2.314 0,1.216 0.271,2.341 0.813,3.374 C -4.421,8.083 -3.7,8.825 -2.8,9.273 -1.9,9.725 -0.967,9.95 0,9.95 1.383,9.95 2.529,9.583 3.438,8.85 4.346,8.116 4.962,7.266 5.288,6.299 5.612,5.333 5.775,4.458 5.775,3.675 5.775,2.458 5.504,1.323 4.962,0.273 4.42,-0.775 3.7,-1.529 2.8,-1.988 1.9,-2.446 0.966,-2.677 0,-2.677" /></g><g
           transform="translate(147.1475,50.7969)"
           id="g58"><path
             id="path60"
             style="fill:#e2001a;fill-opacity:1;fill-rule:nonzero;stroke:none"
             d="M 0,0 C 0.383,0 0.773,0.104 1.175,0.312 1.574,0.521 1.857,0.767 2.023,1.05 V 7 C 1.425,7.232 0.865,7.35 0.35,7.35 -0.4,7.35 -1.025,7.138 -1.525,6.711 -2.025,6.288 -2.352,5.804 -2.5,5.263 -2.65,4.721 -2.727,4.225 -2.727,3.774 c 0,-0.5 0.054,-0.978 0.164,-1.436 0.108,-0.459 0.275,-0.859 0.5,-1.2 C -1.839,0.796 -1.556,0.521 -1.214,0.312 -0.871,0.104 -0.468,0 0,0 m -0.625,-2.65 c -0.835,0 -1.567,0.174 -2.2,0.525 -0.635,0.35 -1.167,0.815 -1.601,1.399 -0.433,0.583 -0.761,1.258 -0.987,2.026 -0.226,0.765 -0.337,1.565 -0.337,2.399 0,1.25 0.262,2.38 0.786,3.387 0.527,1.01 1.237,1.743 2.139,2.202 0.898,0.458 1.833,0.687 2.8,0.687 0.632,0 1.315,-0.118 2.048,-0.35 v 4.674 H 5.1 V -2.375 H 2.273 L 2.148,-1.45 C 1.865,-1.768 1.49,-2.047 1.023,-2.287 0.558,-2.529 0.008,-2.65 -0.625,-2.65" /></g><g
           transform="translate(159.4219,50.7217)"
           id="g62"><path
             id="path64"
             style="fill:#e2001a;fill-opacity:1;fill-rule:nonzero;stroke:none"
             d="M 0,0 C 0.399,0 0.786,0.082 1.161,0.25 1.536,0.417 1.857,0.625 2.125,0.875 V 3.324 C 1.392,3.274 0.717,3.19 0.1,3.074 -0.566,2.94 -1.029,2.713 -1.287,2.388 -1.547,2.063 -1.676,1.707 -1.676,1.324 c 0,-0.399 0.147,-0.72 0.439,-0.963 C -0.946,0.12 -0.533,0 0,0 m -0.726,-2.575 c -0.516,0 -1.011,0.088 -1.488,0.262 -0.474,0.174 -0.894,0.424 -1.262,0.751 -0.367,0.325 -0.663,0.724 -0.886,1.2 C -4.589,0.111 -4.7,0.649 -4.7,1.25 c 0,0.832 0.232,1.546 0.7,2.138 0.467,0.591 1.04,1.019 1.725,1.287 0.682,0.265 1.307,0.45 1.875,0.55 0.232,0.033 1.065,0.132 2.5,0.299 V 5.7 C 2.1,6.367 1.929,6.841 1.588,7.125 1.245,7.408 0.774,7.549 0.175,7.549 -0.426,7.549 -1,7.42 -1.551,7.163 -2.101,6.903 -2.518,6.649 -2.801,6.399 l -1.024,2.176 c 0.232,0.199 0.592,0.421 1.075,0.662 0.482,0.242 1.036,0.437 1.661,0.588 0.625,0.15 1.222,0.224 1.788,0.224 1.018,0 1.87,-0.199 2.564,-0.599 0.69,-0.401 1.19,-0.963 1.5,-1.687 C 5.069,7.038 5.225,6.267 5.225,5.449 v -7.75 H 2.375 L 2.25,-1.399 C 1.915,-1.768 1.49,-2.055 0.975,-2.264 0.457,-2.472 -0.108,-2.575 -0.726,-2.575" /></g><g
           transform="translate(168.2217,48.4219)"
           id="g66"><path
             id="path68"
             style="fill:#e2001a;fill-opacity:1;fill-rule:nonzero;stroke:none"
             d="m 0,0 v 9.549 h -1.601 v 2.5 H 0 V 12.7 c 0,1.133 0.213,2.025 0.638,2.675 0.424,0.649 0.94,1.083 1.55,1.299 C 2.796,16.892 3.392,17 3.976,17 4.726,17 5.346,16.929 5.838,16.788 6.328,16.646 6.616,16.549 6.699,16.5 L 6.351,13.924 c -0.101,0.051 -0.296,0.121 -0.588,0.214 -0.292,0.091 -0.679,0.136 -1.162,0.136 -0.434,0 -0.796,-0.128 -1.088,-0.386 -0.292,-0.26 -0.439,-0.68 -0.439,-1.263 v -0.576 h 2.602 v -2.5 H 3.101 V 0 Z" /></g><g
           transform="translate(180.545,50.8223)"
           id="g70"><path
             id="path72"
             style="fill:#e2001a;fill-opacity:1;fill-rule:nonzero;stroke:none"
             d="M 0,0 C 0.635,0 1.172,0.202 1.613,0.611 2.056,1.021 2.352,1.504 2.5,2.063 2.65,2.619 2.727,3.157 2.727,3.675 2.727,4.508 2.593,5.194 2.325,5.736 2.06,6.277 1.718,6.679 1.302,6.937 0.885,7.194 0.45,7.325 0,7.325 -0.648,7.325 -1.194,7.116 -1.637,6.7 -2.078,6.283 -2.37,5.799 -2.512,5.25 -2.653,4.699 -2.725,4.175 -2.725,3.675 -2.725,3.157 -2.666,2.679 -2.55,2.236 -2.434,1.795 -2.262,1.407 -2.036,1.073 -1.812,0.74 -1.528,0.479 -1.187,0.286 -0.846,0.096 -0.448,0 0,0 m 0,-2.677 c -0.967,0 -1.812,0.185 -2.536,0.552 -0.726,0.365 -1.325,0.85 -1.801,1.448 -0.475,0.602 -0.834,1.281 -1.074,2.038 -0.242,0.758 -0.362,1.53 -0.362,2.314 0,1.216 0.269,2.341 0.811,3.374 0.541,1.034 1.264,1.776 2.162,2.224 C -1.898,9.725 -0.967,9.95 0,9.95 1.385,9.95 2.529,9.583 3.438,8.85 4.347,8.116 4.964,7.266 5.288,6.299 5.613,5.333 5.775,4.458 5.775,3.675 5.775,2.458 5.505,1.323 4.964,0.273 4.422,-0.775 3.7,-1.529 2.802,-1.988 1.9,-2.446 0.968,-2.677 0,-2.677" /></g><g
           transform="translate(188.8204,48.4219)"
           id="g74"><path
             id="path76"
             style="fill:#e2001a;fill-opacity:1;fill-rule:nonzero;stroke:none"
             d="M 0,0 V 12.049 H 2.825 L 2.977,11.1 c 0.481,0.4 1.028,0.708 1.635,0.924 0.61,0.217 1.221,0.326 1.838,0.326 0.985,0 1.814,-0.218 2.488,-0.65 0.674,-0.433 1.151,-1.072 1.424,-1.912 0.277,-0.843 0.413,-1.73 0.413,-2.663 V 0 H 7.676 V 6.875 C 7.676,7.792 7.483,8.5 7.102,9 6.718,9.5 6.185,9.75 5.5,9.75 5.018,9.75 4.571,9.625 4.163,9.375 3.755,9.125 3.4,8.85 3.102,8.549 V 0 Z" /></g><g
           transform="translate(205.2217,55.8965)"
           id="g78"><path
             id="path80"
             style="fill:#e2001a;fill-opacity:1;fill-rule:nonzero;stroke:none"
             d="M 0,0 H 4.573 C 4.523,0.566 4.379,1.033 4.137,1.4 3.896,1.766 3.6,2.025 3.25,2.175 2.898,2.325 2.606,2.4 2.375,2.4 1.841,2.4 1.333,2.2 0.85,1.8 0.365,1.4 0.083,0.8 0,0 m 2.648,-7.75 c -0.783,0 -1.529,0.125 -2.237,0.375 -0.709,0.25 -1.328,0.637 -1.861,1.163 -0.534,0.525 -0.959,1.178 -1.277,1.962 -0.315,0.783 -0.473,1.716 -0.473,2.8 0,1.016 0.144,1.916 0.436,2.7 0.291,0.783 0.693,1.441 1.202,1.975 0.506,0.533 1.098,0.942 1.774,1.225 0.675,0.283 1.394,0.425 2.163,0.425 1.231,0 2.258,-0.3 3.073,-0.9 C 6.266,3.375 6.85,2.571 7.198,1.562 7.55,0.554 7.725,-0.525 7.725,-1.675 v -0.55 h -7.8 c 0.065,-1.017 0.383,-1.75 0.95,-2.2 0.565,-0.45 1.3,-0.675 2.198,-0.675 0.783,0 1.481,0.125 2.088,0.375 0.61,0.25 1.022,0.483 1.237,0.7 L 7.225,-6.55 C 6.907,-6.784 6.562,-6.975 6.187,-7.125 5.812,-7.275 5.282,-7.413 4.6,-7.538 3.915,-7.663 3.266,-7.733 2.648,-7.75" /></g><g
           transform="translate(125.9463,37.5469)"
           id="g82"><path
             id="path84"
             style="fill:#e2001a;fill-opacity:1;fill-rule:nonzero;stroke:none"
             d="M 0,0 H 2.25 C 4.15,0 5.1,0.758 5.1,2.274 5.1,3.074 4.875,3.671 4.425,4.062 3.975,4.453 3.25,4.649 2.25,4.649 H 0 Z M -3.15,-9.125 V 7.55 h 5.825 c 1.15,0 2.166,-0.2 3.05,-0.601 C 6.608,6.55 7.254,5.971 7.663,5.213 8.071,4.453 8.275,3.582 8.275,2.6 8.275,1.75 8.083,0.967 7.7,0.25 7.316,-0.468 6.725,-1.066 5.925,-1.551 6.391,-1.733 6.771,-2.043 7.062,-2.476 7.354,-2.908 7.633,-3.608 7.9,-4.575 l 1.25,-4.55 H 5.825 l -1.25,4.175 c -0.217,0.649 -0.392,1.099 -0.525,1.349 -0.133,0.25 -0.346,0.433 -0.637,0.55 -0.292,0.116 -0.621,0.176 -0.988,0.176 H 0 v -6.25 z" /></g><g
           transform="translate(141.7715,30.8223)"
           id="g86"><path
             id="path88"
             style="fill:#e2001a;fill-opacity:1;fill-rule:nonzero;stroke:none"
             d="M 0,0 C 0.633,0 1.17,0.202 1.612,0.611 2.053,1.021 2.35,1.504 2.5,2.063 2.65,2.619 2.725,3.157 2.725,3.675 2.725,4.508 2.591,5.194 2.325,5.736 2.058,6.277 1.716,6.679 1.299,6.937 0.883,7.194 0.45,7.323 0,7.323 -0.65,7.323 -1.196,7.115 -1.638,6.698 -2.08,6.282 -2.371,5.8 -2.513,5.25 -2.654,4.698 -2.725,4.175 -2.725,3.675 -2.725,3.157 -2.667,2.679 -2.55,2.236 -2.434,1.795 -2.263,1.407 -2.038,1.073 -1.812,0.74 -1.529,0.479 -1.187,0.286 -0.846,0.096 -0.45,0 0,0 m 0,-2.677 c -0.967,0 -1.812,0.185 -2.538,0.552 -0.725,0.365 -1.325,0.85 -1.799,1.448 -0.475,0.602 -0.834,1.281 -1.076,2.038 -0.241,0.758 -0.362,1.53 -0.362,2.314 0,1.216 0.271,2.341 0.813,3.375 C -4.421,8.083 -3.7,8.823 -2.8,9.273 -1.9,9.725 -0.967,9.948 0,9.948 1.383,9.948 2.529,9.583 3.438,8.85 4.345,8.115 4.962,7.266 5.288,6.3 5.613,5.333 5.775,4.458 5.775,3.675 5.775,2.458 5.503,1.323 4.962,0.273 4.42,-0.775 3.7,-1.529 2.799,-1.988 1.9,-2.446 0.966,-2.677 0,-2.677" /></g><g
           transform="translate(149.9219,28.4219)"
           id="g90"><path
             id="path92"
             style="fill:#e2001a;fill-opacity:1;fill-rule:nonzero;stroke:none"
             d="m 0,0 v 12.05 h 2.851 l 0.125,-0.901 c 0.366,0.333 0.82,0.618 1.362,0.851 0.541,0.232 1.087,0.35 1.638,0.35 0.566,0 1.128,-0.087 1.686,-0.262 0.559,-0.177 1.078,-0.481 1.564,-0.913 0.548,0.333 1.153,0.611 1.811,0.838 0.658,0.223 1.362,0.337 2.112,0.337 1.3,0 2.308,-0.25 3.026,-0.75 0.717,-0.5 1.182,-1.151 1.399,-1.951 C 17.792,8.85 17.899,8.04 17.899,7.225 V 0 h -3.075 v 7.074 c 0,0.801 -0.149,1.447 -0.449,1.939 C 14.074,9.504 13.517,9.75 12.699,9.75 12.3,9.75 11.87,9.642 11.412,9.425 10.953,9.208 10.592,8.99 10.324,8.774 10.425,8.175 10.476,7.675 10.476,7.274 V 0 H 7.375 V 7.074 C 7.375,7.675 7.304,8.165 7.162,8.55 7.021,8.934 6.796,9.229 6.486,9.438 6.179,9.646 5.842,9.75 5.476,9.75 5.009,9.75 4.565,9.625 4.149,9.375 3.732,9.125 3.384,8.857 3.101,8.574 V 0 Z" /></g><g
           transform="translate(174.7969,30.7217)"
           id="g94"><path
             id="path96"
             style="fill:#e2001a;fill-opacity:1;fill-rule:nonzero;stroke:none"
             d="M 0,0 C 0.399,0 0.786,0.083 1.161,0.25 1.536,0.417 1.857,0.625 2.125,0.875 V 3.324 C 1.392,3.274 0.717,3.19 0.1,3.074 -0.566,2.94 -1.029,2.713 -1.287,2.388 -1.547,2.063 -1.676,1.708 -1.676,1.324 c 0,-0.399 0.147,-0.72 0.439,-0.963 C -0.946,0.12 -0.533,0 0,0 m -1.75,11.3 -1.601,1.125 2.875,3.25 h 2.3 L 4.649,12.449 3.05,11.324 0.649,13.726 Z m 1.024,-13.875 c -0.516,0 -1.011,0.088 -1.488,0.262 -0.474,0.174 -0.894,0.424 -1.262,0.751 -0.367,0.325 -0.663,0.724 -0.886,1.2 C -4.589,0.111 -4.7,0.649 -4.7,1.25 c 0,0.833 0.232,1.546 0.7,2.138 0.467,0.591 1.04,1.019 1.725,1.287 0.682,0.265 1.307,0.45 1.875,0.551 0.232,0.033 1.065,0.131 2.5,0.298 V 5.699 C 2.1,6.365 1.929,6.842 1.588,7.125 1.245,7.407 0.774,7.55 0.175,7.55 -0.426,7.55 -1,7.421 -1.551,7.162 -2.101,6.903 -2.518,6.649 -2.801,6.399 l -1.024,2.175 c 0.232,0.2 0.592,0.421 1.075,0.662 0.482,0.243 1.036,0.439 1.661,0.588 0.625,0.152 1.222,0.226 1.788,0.226 1.018,0 1.87,-0.199 2.564,-0.601 C 3.953,9.05 4.453,8.486 4.763,7.763 5.069,7.037 5.225,6.267 5.225,5.449 v -7.75 H 2.375 L 2.25,-1.399 C 1.915,-1.768 1.49,-2.055 0.975,-2.264 0.457,-2.472 -0.108,-2.575 -0.726,-2.575" /></g><g
           transform="translate(183.045,28.4219)"
           id="g98"><path
             id="path100"
             style="fill:#e2001a;fill-opacity:1;fill-rule:nonzero;stroke:none"
             d="M 0,0 V 12.05 H 2.825 L 2.977,11.1 c 0.481,0.4 1.028,0.709 1.635,0.924 0.61,0.216 1.221,0.326 1.838,0.326 0.985,0 1.814,-0.217 2.488,-0.651 0.674,-0.432 1.151,-1.07 1.424,-1.913 0.277,-0.842 0.413,-1.727 0.413,-2.661 V 0 H 7.676 V 6.875 C 7.676,7.79 7.483,8.5 7.102,9 6.718,9.5 6.185,9.75 5.5,9.75 5.018,9.75 4.571,9.625 4.163,9.375 3.755,9.125 3.4,8.85 3.102,8.55 V 0 Z" /></g><path
           id="path102"
           style="fill:#e2001a;fill-opacity:1;fill-rule:nonzero;stroke:none"
           d="m 196.845,40.471 h 3.075 v -12.05 h -3.075 z m 1.55,1.125 c -0.633,0 -1.103,0.184 -1.412,0.551 -0.309,0.366 -0.463,0.774 -0.463,1.225 0,0.432 0.154,0.833 0.463,1.2 0.309,0.367 0.779,0.55 1.412,0.55 0.617,0 1.079,-0.183 1.388,-0.55 0.308,-0.367 0.463,-0.768 0.463,-1.2 0,-0.451 -0.155,-0.859 -0.463,-1.225 -0.309,-0.367 -0.771,-0.551 -1.388,-0.551" /><g
           transform="translate(206.9698,30.7217)"
           id="g104"><path
             id="path106"
             style="fill:#e2001a;fill-opacity:1;fill-rule:nonzero;stroke:none"
             d="M 0,0 C 0.4,0 0.787,0.083 1.162,0.25 1.537,0.417 1.858,0.625 2.125,0.875 V 3.324 C 1.393,3.274 0.718,3.19 0.101,3.074 -0.565,2.94 -1.028,2.713 -1.286,2.388 -1.546,2.063 -1.675,1.708 -1.675,1.324 c 0,-0.399 0.147,-0.72 0.439,-0.963 C -0.945,0.12 -0.532,0 0,0 m -0.725,-2.575 c -0.516,0 -1.011,0.088 -1.488,0.262 -0.475,0.174 -0.894,0.424 -1.262,0.751 -0.367,0.325 -0.663,0.724 -0.886,1.2 -0.227,0.473 -0.338,1.011 -0.338,1.612 0,0.833 0.232,1.546 0.699,2.138 0.468,0.591 1.041,1.019 1.726,1.287 0.682,0.265 1.307,0.45 1.875,0.551 0.232,0.033 1.065,0.131 2.5,0.298 V 5.699 C 2.101,6.365 1.93,6.842 1.589,7.125 1.246,7.407 0.775,7.55 0.176,7.55 -0.425,7.55 -1,7.421 -1.55,7.162 -2.1,6.903 -2.517,6.649 -2.8,6.399 l -1.024,2.175 c 0.232,0.2 0.592,0.421 1.074,0.662 0.483,0.243 1.037,0.439 1.662,0.588 0.625,0.152 1.222,0.226 1.788,0.226 1.018,0 1.87,-0.199 2.564,-0.601 C 3.954,9.05 4.454,8.486 4.764,7.763 5.07,7.037 5.226,6.267 5.226,5.449 v -7.75 H 2.375 L 2.25,-1.399 C 1.916,-1.768 1.491,-2.055 0.976,-2.264 0.458,-2.472 -0.107,-2.575 -0.725,-2.575" /></g><g
           transform="translate(84.7823,56.6329)"
           id="g108"><path
             id="path110"
             style="fill:#e2001a;fill-opacity:1;fill-rule:nonzero;stroke:none"
             d="m 0,0 c 0,-15.473 -12.543,-28.017 -28.018,-28.017 -15.471,0 -28.015,12.544 -28.015,28.017 0,15.473 12.544,28.016 28.015,28.016 C -12.543,28.016 0,15.473 0,0" /></g><g
           transform="translate(56.9874,41.0108)"
           id="g112"><path
             id="path114"
             style="fill:#ffffff;fill-opacity:1;fill-rule:nonzero;stroke:none"
             d="m 0,0 c -7.698,-0.026 -15.706,6.544 -15.741,17.093 -0.023,6.977 3.74,13.691 8.553,17.676 4.691,3.885 11.121,6.38 16.951,6.399 0.751,10e-4 1.535,-0.06 2.015,-0.223 C 6.68,39.888 2.623,35.144 2.641,29.76 2.643,29.583 2.658,29.393 2.676,29.304 11.206,27.227 15.078,22.08 15.102,14.958 15.126,7.835 9.503,0.031 0,0" /></g></g></g></g></svg>