<svg width="1472" height="143" viewBox="0 0 1472 143" fill="none" xmlns="http://www.w3.org/2000/svg">
    <g clip-path="url(#clip0_2307_4289)">
        <path d="M1470.82 118.94H181.64V124.87H1470.82V118.94Z" fill="#1C1080"/>
        <path d="M71.03 142.06C110.259 142.06 142.06 110.259 142.06 71.03C142.06 31.8012 110.259 0 71.03 0C31.8012 0 0 31.8012 0 71.03C0 110.259 31.8012 142.06 71.03 142.06Z" fill="#0E8040"/>
        <path d="M182.46 17.84H214.89C224.07 17.84 231.227 19.9833 236.36 24.27C241.493 28.5567 244.06 34.9067 244.06 43.32C244.06 51.82 241.513 58.1733 236.42 62.38C231.327 66.5867 224.15 68.69 214.89 68.69H192.23V104.32H182.46V17.84ZM214.14 60.52C220.4 60.52 225.323 59.2633 228.91 56.75C232.497 54.2367 234.29 49.76 234.29 43.32C234.29 36.8133 232.497 32.3 228.91 29.78C225.323 27.26 220.4 26 214.14 26H192.23V60.52H214.14Z" fill="#1C1080"/>
        <path d="M256.58 17.84H290.38C299.48 17.84 306.39 19.9433 311.11 24.15C315.83 28.3567 318.187 34.5833 318.18 42.83C318.346 48.6656 316.364 54.359 312.61 58.83C308.89 63.2033 303.737 65.9667 297.15 67.12L317.93 104.36H307.79L287.25 67.58H266.35V104.32H256.58V17.84ZM289.13 59.41C295.13 59.41 299.847 58.0067 303.28 55.2C306.713 52.3933 308.423 48.27 308.41 42.83C308.41 36.73 306.72 32.3967 303.34 29.83C299.96 27.2633 295.223 25.9867 289.13 26H266.35V59.41H289.13Z" fill="#1C1080"/>
        <path d="M354.36 71.53L322.56 17.84H333L359.3 62.75L385.71 17.84H395.98L364.18 71.53V104.32H354.41L354.36 71.53Z" fill="#1C1080"/>
        <path d="M430.86 26H402.86V17.84H468.71V26H440.71V104.32H430.94L430.86 26Z" fill="#1C1080"/>
        <path d="M489.39 97.52C483.51 91.7533 480.57 83.71 480.57 73.39V17.84H490.33V74.13C490.33 81.97 492.543 87.8267 496.97 91.7C501.397 95.5733 507.573 97.5133 515.5 97.52C523.427 97.52 529.603 95.58 534.03 91.7C538.457 87.82 540.667 81.9633 540.66 74.13V17.84H550.43V73.39C550.43 83.7033 547.487 91.7467 541.6 97.52C535.713 103.293 527.013 106.18 515.5 106.18C503.98 106.18 495.277 103.293 489.39 97.52Z" fill="#1C1080"/>
        <path d="M567.33 17.84H577.09V96.16H623.67V104.32H567.33V17.84Z" fill="#1C1080"/>
        <path d="M648.65 100.55C641.78 96.8964 636.073 91.3873 632.18 84.65C628.1 77.4964 626.027 69.3739 626.18 61.14C626.029 52.9063 628.101 44.7842 632.18 37.63C636.069 30.8885 641.745 25.3518 648.58 21.63C655.818 17.8893 663.847 15.9371 671.995 15.9371C680.143 15.9371 688.172 17.8893 695.41 21.63C702.248 25.3488 707.923 30.8863 711.81 37.63C715.893 44.7823 717.966 52.9057 717.81 61.14C717.968 69.3745 715.895 77.4982 711.81 84.65C707.92 91.3866 702.217 96.8957 695.35 100.55C688.123 104.25 680.119 106.18 672 106.18C663.881 106.18 655.877 104.25 648.65 100.55V100.55ZM690.28 93.06C695.723 90.1442 700.229 85.7483 703.28 80.38C706.552 74.5049 708.195 67.8628 708.04 61.14C708.197 54.4588 706.582 47.8551 703.36 42C700.343 36.6223 695.873 32.2034 690.46 29.25C684.876 26.2119 678.606 24.6589 672.25 24.74C665.837 24.6535 659.506 26.1839 653.84 29.19C648.359 32.1409 643.825 36.5818 640.76 42C637.466 47.8469 635.802 54.4706 635.94 61.18C635.78 67.9033 637.424 74.5467 640.7 80.42C643.748 85.7903 648.255 90.1868 653.7 93.1C659.348 96.0305 665.617 97.5602 671.98 97.5602C678.343 97.5602 684.612 96.0305 690.26 93.1L690.28 93.06Z" fill="#1C1080"/>
        <path d="M732.84 17.84H742.61V104.32H732.84V17.84ZM746.74 60.4L787.68 17.84H799.68L758.76 60.4L802.33 104.32H790.33L746.74 60.4Z" fill="#1C1080"/>
        <path d="M870.63 97.52C864.743 91.7533 861.8 83.71 861.8 73.39V17.84H871.56V74.13C871.56 81.97 873.773 87.8267 878.2 91.7C882.627 95.5733 888.803 97.5133 896.73 97.52C904.657 97.52 910.833 95.58 915.26 91.7C919.687 87.82 921.9 81.9633 921.9 74.13V17.84H931.66V73.39C931.66 83.7033 928.717 91.7467 922.83 97.52C916.943 103.293 908.243 106.18 896.73 106.18C885.21 106.18 876.51 103.293 870.63 97.52Z" fill="#1C1080"/>
        <path d="M996.14 17.84H1029.94C1039.04 17.84 1045.95 19.9433 1050.66 24.15C1055.37 28.3567 1057.73 34.5833 1057.74 42.83C1057.91 48.6674 1055.92 54.3623 1052.16 58.83C1048.45 63.2033 1043.29 65.9667 1036.7 67.12L1057.49 104.36H1047.34L1026.81 67.62H1005.9V104.36H996.14V17.84ZM1028.69 59.41C1034.69 59.41 1039.41 58.0067 1042.84 55.2C1046.27 52.3933 1047.99 48.27 1048 42.83C1048 36.73 1046.31 32.3967 1042.93 29.83C1039.55 27.2633 1034.8 25.9867 1028.69 26H1005.9V59.41H1028.69Z" fill="#1C1080"/>
        <path d="M1081 97.52C1075.12 91.7533 1072.18 83.71 1072.17 73.39V17.84H1081.94V74.13C1081.94 81.97 1084.15 87.8267 1088.57 91.7C1092.99 95.5733 1099.17 97.5133 1107.11 97.52C1115.03 97.52 1121.2 95.58 1125.63 91.7C1130.06 87.82 1132.27 81.9633 1132.27 74.13V17.84H1142V73.39C1142 83.7033 1139.06 91.7467 1133.17 97.52C1127.28 103.293 1118.58 106.18 1107.07 106.18C1095.55 106.18 1086.86 103.293 1081 97.52Z" fill="#1C1080"/>
        <path d="M1158.9 17.84H1168.9L1202 89.23L1235 17.84H1245V104.32H1235.36V37.51L1204.44 104.32H1199.44L1168.52 37.51V104.32H1158.88L1158.9 17.84Z" fill="#1C1080"/>
        <path d="M1270.76 97.52C1264.88 91.7533 1261.94 83.71 1261.94 73.39V17.84H1271.7V74.13C1271.7 81.97 1273.91 87.8267 1278.34 91.7C1282.77 95.5733 1288.94 97.5133 1296.87 97.52C1304.8 97.52 1310.97 95.58 1315.4 91.7C1319.83 87.82 1322.03 81.9633 1322 74.13V17.84H1331.77V73.39C1331.77 83.7033 1328.83 91.7467 1322.94 97.52C1317.05 103.293 1308.35 106.18 1296.84 106.18C1285.34 106.18 1276.65 103.293 1270.76 97.52Z" fill="#1C1080"/>
        <path d="M1348.7 17.84H1358.09L1406.29 87.84V17.84H1416.06V104.32H1406.67L1358.46 34.17V104.32H1348.7V17.84Z" fill="#1C1080"/>
        <path d="M1433.71 17.84H1443.48V104.32H1433.71V17.84Z" fill="#1C1080"/>
        <path d="M1461.25 17.84H1471V104.32H1461.23L1461.25 17.84Z" fill="#1C1080"/>
    </g>
    <defs>
        <clipPath id="clip0_2307_4289">
            <rect width="1471.02" height="142.05" fill="white"/>
        </clipPath>
    </defs>
</svg>
