<?xml version="1.0" encoding="utf-8"?>
<!-- Generator: Adobe Illustrator 24.2.1, SVG Export Plug-In . SVG Version: 6.00 Build 0)  -->
<svg version="1.1" id="Layer_1" xmlns="http://www.w3.org/2000/svg" xmlns:xlink="http://www.w3.org/1999/xlink" x="0px" y="0px"
	 viewBox="0 0 1000 344.2" style="enable-background:new 0 0 1000 344.2;" xml:space="preserve">
<style type="text/css">
	.st0{fill:#FFFFFF;}
	.st1{fill:url(#SVGID_1_);}
	.st2{fill:url(#SVGID_2_);}
	.st3{fill:url(#SVGID_3_);}
	.st4{fill:url(#SVGID_4_);}
	.st5{fill:#25619E;}
	.st6{fill:url(#SVGID_5_);}
	.st7{fill:url(#SVGID_6_);}
	.st8{fill:url(#SVGID_7_);}
	.st9{fill:url(#SVGID_8_);}
	.st10{fill:url(#SVGID_9_);}
	.st11{fill:url(#SVGID_10_);}
	.st12{fill:url(#SVGID_11_);}
	.st13{fill:url(#SVGID_12_);}
	.st14{fill:url(#SVGID_13_);}
	.st15{fill:url(#SVGID_14_);}
	.st16{fill:url(#SVGID_15_);}
	.st17{fill:url(#SVGID_16_);}
</style>
<g>
	<g>
		<linearGradient id="SVGID_1_" gradientUnits="userSpaceOnUse" x1="191.3243" y1="189.1991" x2="68.1882" y2="269.1646">
			<stop  offset="0" style="stop-color:#2684CF"/>
			<stop  offset="1" style="stop-color:#25619E"/>
		</linearGradient>
		<path class="st1" d="M179.6,280.4c-19.5,0-35.3-15.8-35.3-35.3c0-19.5,15.8-35.3,35.3-35.3c3.9,0,7.7,0.6,11.3,1.9
			c-1.8-12-4.5-23.9-8.1-35.5c-2.3,0.7-4.7,1.4-7,2.1c-11.3,3.2-23,5.5-34.7,7l-5.7,0.7l2.7-5.1c2.2-4.2,3.3-8.8,3.3-13.6
			c0-16.2-13.2-29.4-29.4-29.4S82.7,151,82.7,167.2c0,5,1.3,9.9,3.7,14.2l2.8,5l-5.7-0.6c-20.6-2.1-40.8-6.9-60.2-14.1
			c-4.3-1.6-8.7-3.4-12.9-5.2c10.7,32.5,29.5,63.1,54.9,90.8c28.9,31.5,66.3,59.4,110.3,82.2c8.1-19.6,13.5-40.2,16.2-61.3
			C187.9,279.7,183.8,280.4,179.6,280.4z"/>
		<linearGradient id="SVGID_2_" gradientUnits="userSpaceOnUse" x1="306.7438" y1="196.4207" x2="230.1263" y2="6.7859">
			<stop  offset="0" style="stop-color:#A558BE"/>
			<stop  offset="1" style="stop-color:#543B76"/>
		</linearGradient>
		<path class="st2" d="M337.4,28.1C319.1,10.7,294.2,0,266.9,0c-32.5,0-61.5,15.1-80.3,38.7c-0.6,0.8-1.3,1.6-1.9,2.4
			c-1.2,1.6-2.3,3.2-3.4,4.9c-0.6,2.7-1.1,5.3-1.6,8c0,0.2-0.1,0.3-0.1,0.5c-0.7,4-1.3,8-1.8,12.1c3.9-1.4,8-2.1,12.1-2.1
			c3.6,0,7.1,0.5,10.5,1.6c7,2.2,13.4,6.7,17.8,12.6c4.6,6.1,7,13.5,7,21.1c0,7.3-2.2,14.3-6.3,20.2c-4.1,5.8-9.7,10.2-16.3,12.8
			c-4.1,1.6-8.3,2.4-12.7,2.4c-3.9,0-7.7-0.6-11.3-1.9c1.2,8.2,2.9,16.4,4.9,24.3c0.7,2.7,1.5,5.5,2.3,8.2c0.3,1,0.6,2,0.9,3
			c0.9-0.3,1.8-0.5,2.6-0.8c12.7-3.8,25.9-6.6,39.1-8.3l5.7-0.7l-2.7,5.1c-2.2,4.2-3.3,8.8-3.3,13.6c0,7.6,2.9,14.8,8.1,20.2
			c5.6,5.9,13.2,9.1,21.3,9.1c5.5,0,11-1.6,15.6-4.5c8.6-5.4,13.7-14.7,13.7-24.9c0-5-1.3-9.9-3.7-14.2l-2.8-5l5.7,0.6
			c18.9,2,37.5,6.1,55.5,12.4c4.7,1.6,9.4,3.4,14,5.4c9.2-23.7,14-48.5,14-74.1C369.6,73.3,357.2,46.8,337.4,28.1z"/>
		<linearGradient id="SVGID_3_" gradientUnits="userSpaceOnUse" x1="261.0267" y1="159.9526" x2="227.2152" y2="351.7072">
			<stop  offset="0" style="stop-color:#C0222F"/>
			<stop  offset="1" style="stop-color:#8F1A29"/>
		</linearGradient>
		<path class="st3" d="M339.6,176.9c-15.8-5.5-32.3-9.4-48.9-11.5c1.4,3.9,2.1,8,2.1,12.1c0,12.2-6.2,23.4-16.5,29.9
			c-5.6,3.5-12.1,5.4-18.8,5.4c-9.8,0-18.9-3.9-25.6-11c-6.3-6.6-9.7-15.2-9.7-24.3c0-3.9,0.6-7.7,1.9-11.3
			c-11.2,1.7-22.2,4.1-33,7.3c-0.8,0.2-1.6,0.5-2.5,0.8c4.2,13.6,7.3,27.6,9.1,41.7l0.7,5.7l-5.1-2.7c-4.2-2.2-8.8-3.3-13.6-3.3
			c-16.2,0-29.4,13.2-29.4,29.4s13.2,29.4,29.4,29.4c5,0,9.9-1.3,14.2-3.7l5-2.8l-0.6,5.7c-2.5,23.5-8.3,46.5-17.3,68.4l-0.1,0.2
			c1.3,0.7,2.6,1.3,3.9,2c31.2-15.4,59.4-33.3,83.8-53.2c38.8-31.7,68-68.6,84.7-108.8l0,0C348.8,180.3,344.2,178.6,339.6,176.9z"/>
		<linearGradient id="SVGID_4_" gradientUnits="userSpaceOnUse" x1="205.272" y1="138.7613" x2="10.8115" y2="56.2178">
			<stop  offset="0" style="stop-color:#F08740"/>
			<stop  offset="1" style="stop-color:#E15925"/>
		</linearGradient>
		<path class="st4" d="M25.4,166.2c17.3,6.4,35.2,10.8,53.5,13.1c-1.4-3.9-2.1-8-2.1-12.1c0-19.5,15.8-35.3,35.3-35.3
			c19.5,0,35.3,15.8,35.3,35.3c0,3.9-0.6,7.7-1.9,11.3c9.7-1.5,19.3-3.5,28.7-6.1c2.2-0.6,4.5-1.3,6.8-2l0,0l0,0
			c-0.3-1.1-0.6-2.1-0.9-3.1c-0.8-2.7-1.6-5.6-2.3-8.4c-2.5-9.9-4.5-20.1-5.8-30.2l-0.7-5.7l5.1,2.7c4.2,2.2,8.8,3.3,13.6,3.3
			c3.6,0,7.2-0.7,10.6-2c11.3-4.3,18.8-15.4,18.8-27.4c0-12.9-8.3-24.2-20.7-28.1c-2.8-0.9-5.7-1.3-8.7-1.3c-5,0-9.9,1.3-14.2,3.7
			l-5,2.8l0.6-5.7c0.6-6.1,1.5-12.2,2.6-18.2l0.1-0.5l0,0c1.1-5.8,2.3-11.6,3.8-17.2l0.5-1.9C159.5,12.8,132.6,0,102.6,0
			c-22.9,0-44,7.5-61.1,20.2C16.3,38.9,0,68.9,0,102.6c0,19.3,2.8,38.1,8.1,56.4l2.4,1.1C15.3,162.3,20.3,164.3,25.4,166.2z"/>
	</g>
	<path class="st5" d="M474.6,76.4v0.7l-12.8,0l-9.9-10.3l-9.8,10.3l-12.7,0v-0.9l17.9-18.2h9.4L474.6,76.4z M460.2,180.2h-16.6V84.3
		h16.6V180.2z"/>
	<path class="st5" d="M494.2,109l0.5,7.4c5-5.8,11.9-8.8,20.6-8.8c9.5,0,16.1,3.6,19.6,10.9c5.2-7.3,12.5-10.9,21.9-10.9
		c7.9,0,13.7,2.2,17.6,6.5c3.8,4.3,5.8,10.8,5.9,19.2v46.8h-16v-46.4c0-4.5-1-7.8-3-9.9c-2-2.1-5.2-3.2-9.8-3.2
		c-3.6,0-6.6,1-8.9,2.9c-2.3,2-3.9,4.5-4.8,7.7l0.1,48.9h-16v-46.9c-0.2-8.4-4.5-12.6-12.8-12.6c-6.4,0-11,2.6-13.6,7.8v51.7h-16
		V109H494.2z"/>
	<path class="st5" d="M658.9,145.3c0,11-2.5,19.8-7.5,26.4c-5,6.6-11.7,9.8-20.2,9.8c-7.8,0-14.1-2.6-18.8-7.7v33.8h-16V109h14.8
		l0.7,7.2c4.7-5.7,11.1-8.6,19.2-8.6c8.7,0,15.5,3.2,20.5,9.7c4.9,6.5,7.4,15.5,7.4,27V145.3z M643,143.9c0-7.1-1.4-12.8-4.2-16.9
		c-2.8-4.2-6.9-6.3-12.2-6.3c-6.5,0-11.2,2.7-14.1,8.1v31.6c2.9,5.5,7.6,8.3,14.2,8.3c5.1,0,9.1-2.1,12-6.2
		C641.6,158.5,643,152.3,643,143.9z"/>
	<path class="st5" d="M709.8,123.6c-2.1-0.4-4.3-0.5-6.5-0.5c-7.3,0-12.3,2.8-14.8,8.4v48.8h-16V109h15.3l0.4,8
		c3.9-6.2,9.2-9.3,16.1-9.3c2.3,0,4.2,0.3,5.7,0.9L709.8,123.6z"/>
	<path class="st5" d="M750.1,181.6c-10.1,0-18.4-3.2-24.7-9.6c-6.3-6.4-9.5-14.9-9.5-25.5v-2c0-7.1,1.4-13.5,4.1-19.1
		c2.7-5.6,6.6-10,11.6-13.1c5-3.1,10.5-4.7,16.6-4.7c9.7,0,17.2,3.1,22.5,9.3c5.3,6.2,7.9,15,7.9,26.3v6.5h-46.6
		c0.5,5.9,2.4,10.5,5.9,14c3.4,3.4,7.8,5.1,13,5.1c7.3,0,13.3-3,17.9-8.9l8.6,8.2c-2.9,4.3-6.7,7.6-11.4,9.9
		C761.3,180.4,756,181.6,750.1,181.6z M748.1,120.5c-4.4,0-7.9,1.5-10.6,4.6c-2.7,3.1-4.4,7.4-5.2,12.8h30.5v-1.2
		c-0.4-5.4-1.8-9.4-4.3-12.2C756,121.9,752.6,120.5,748.1,120.5z"/>
	<path class="st5" d="M834.2,173.3c-4.7,5.5-11.4,8.3-20,8.3c-7.7,0-13.6-2.3-17.6-6.8c-4-4.5-6-11.1-6-19.6V109h16v46
		c0,9,3.8,13.6,11.3,13.6c7.8,0,13-2.8,15.7-8.4V109h16v71.3h-15.1L834.2,173.3z"/>
	<path class="st5" d="M880.9,109l0.5,8.2c5.3-6.4,12.2-9.6,20.8-9.6c14.8,0,22.4,8.5,22.7,25.5v47.1h-16v-46.2c0-4.5-1-7.9-2.9-10
		c-2-2.2-5.1-3.3-9.6-3.3c-6.5,0-11.3,2.9-14.4,8.8v50.7h-16V109H880.9z"/>
	<path class="st5" d="M983.7,180.2c-0.7-1.4-1.3-3.6-1.8-6.7c-5.1,5.3-11.3,8-18.7,8c-7.2,0-13-2-17.5-6.1
		c-4.5-4.1-6.8-9.1-6.8-15.2c0-7.6,2.8-13.4,8.5-17.5c5.6-4.1,13.7-6.1,24.2-6.1h9.8V132c0-3.7-1-6.6-3.1-8.9
		c-2.1-2.2-5.2-3.3-9.4-3.3c-3.6,0-6.6,0.9-9,2.7c-2.3,1.8-3.5,4.1-3.5,7h-16c0-3.9,1.3-7.6,3.9-11c2.6-3.4,6.1-6.1,10.6-8
		c4.5-1.9,9.4-2.9,14.9-2.9c8.3,0,15,2.1,20,6.3c5,4.2,7.5,10.1,7.6,17.7v32.1c0,6.4,0.9,11.5,2.7,15.4v1.1H983.7z M991.6,80.8
		c0,5.5-1.9,10-5.8,13.4c-3.9,3.4-9,5.1-15.5,5.1c-6.5,0-11.6-1.7-15.5-5.1c-3.9-3.4-5.8-7.9-5.8-13.4h12c0,2.9,0.8,5.2,2.5,6.8
		c1.6,1.6,3.9,2.4,6.8,2.4c2.9,0,5.2-0.8,6.8-2.4c1.6-1.6,2.4-3.9,2.4-6.8H991.6z M966.1,168.7c3.2,0,6.1-0.8,8.9-2.3
		c2.8-1.5,4.9-3.6,6.3-6.2v-13.4h-8.6c-5.9,0-10.4,1-13.4,3.1c-3,2.1-4.5,5-4.5,8.8c0,3.1,1,5.5,3.1,7.3
		C959.9,167.8,962.6,168.7,966.1,168.7z"/>
	<path class="st5" d="M476.6,258c0,6.7-1.1,11.8-3.4,15.3c-2.3,3.6-5.7,5.3-10.2,5.3c-3.4,0-6.2-1.4-8.3-4.2v19.7h-11.1v-58.7h10.3
		l0.4,3.9c2.1-3.1,5-4.7,8.7-4.7c4.5,0,7.9,1.6,10.2,4.9c2.3,3.3,3.5,8.3,3.5,15.1V258z M465.6,255.2c0-4.1-0.5-7-1.4-8.7
		c-0.9-1.7-2.4-2.5-4.6-2.5c-2.3,0-3.9,1-5,2.9v19.9c1,1.8,2.7,2.7,5.1,2.7c2.2,0,3.7-0.9,4.6-2.8c0.8-1.9,1.3-4.7,1.3-8.7V255.2z"
		/>
	<path class="st5" d="M504.4,278.7c-5.7,0-10.1-1.7-13.3-5.1c-3.2-3.4-4.8-8.3-4.8-14.6v-3.4c0-6.7,1.5-11.8,4.4-15.5
		c2.9-3.6,7.1-5.4,12.6-5.4c5.3,0,9.3,1.7,12,5.1c2.7,3.4,4.1,8.4,4.1,15.1v5.4h-22.1c0.2,3.1,0.8,5.5,2.1,6.9
		c1.2,1.5,3.1,2.2,5.7,2.2c3.7,0,6.8-1.3,9.3-3.8l4.3,6.7c-1.4,1.9-3.3,3.4-5.9,4.6C510.3,278.1,507.5,278.7,504.4,278.7z
		 M497.5,252.7h11.1v-1c-0.1-2.5-0.5-4.5-1.3-5.8c-0.8-1.3-2.1-2-4.1-2c-1.9,0-3.3,0.7-4.2,2.1C498.1,247.4,497.6,249.6,497.5,252.7
		z"/>
	<path class="st5" d="M539.9,235.5l0.3,4.2c2.5-3.3,5.8-5,9.8-5c7.3,0,11,5.1,11.2,15.3v27.9h-11.1v-27c0-2.4-0.4-4.1-1.1-5.2
		c-0.7-1.1-2-1.6-3.8-1.6c-2,0-3.6,1-4.7,3.1v30.8h-11.1v-42.4H539.9z"/>
	<path class="st5" d="M586.1,225.1v10.4h5.7v8.3h-5.7v21.1c0,1.7,0.2,2.8,0.7,3.5c0.5,0.6,1.3,0.9,2.6,0.9c1.1,0,1.9-0.1,2.6-0.3
		l-0.1,8.6c-1.9,0.7-3.9,1.1-6.1,1.1c-7.2,0-10.8-4.1-10.9-12.3v-22.6h-4.9v-8.3h4.9v-10.4H586.1z"/>
	<path class="st5" d="M622.8,246.2l-3.7-0.3c-3,0-5.1,1.3-6.2,4v28h-11.1v-42.4h10.5l0.3,4.6c1.8-3.6,4.2-5.4,7.2-5.4
		c1.3,0,2.3,0.2,3.1,0.5L622.8,246.2z"/>
	<path class="st5" d="M653.4,274c-2.3,3.1-5.4,4.7-9.2,4.7c-3.9,0-6.8-1.3-8.9-4c-2-2.7-3-6.6-3-11.7v-27.5h11.1v27.7
		c0.1,4.1,1.4,6.2,4.1,6.2c2.5,0,4.4-1.1,5.5-3.3v-30.6h11.2v42.4h-10.4L653.4,274z"/>
	<path class="st5" d="M717.3,266.5c0-0.9-0.4-1.8-1.4-2.6c-0.9-0.8-2.9-1.9-6-3.2c-4.6-1.9-7.7-3.8-9.4-5.8c-1.7-2-2.6-4.5-2.6-7.4
		c0-3.7,1.3-6.8,4-9.2c2.7-2.4,6.2-3.6,10.6-3.6c4.7,0,8.4,1.2,11.2,3.6c2.8,2.4,4.2,5.6,4.2,9.7h-11.1c0-3.4-1.4-5.2-4.3-5.2
		c-1.2,0-2.1,0.4-2.9,1.1s-1.1,1.8-1.1,3.1c0,0.9,0.4,1.8,1.3,2.5c0.8,0.7,2.8,1.7,5.9,3.1c4.5,1.7,7.7,3.5,9.6,5.6
		c1.9,2.1,2.8,4.7,2.8,8c0,3.8-1.4,6.8-4.3,9.1c-2.8,2.3-6.6,3.4-11.2,3.4c-3.1,0-5.9-0.6-8.2-1.8c-2.4-1.2-4.2-2.9-5.6-5.1
		c-1.3-2.2-2-4.5-2-7h10.5c0.1,1.9,0.5,3.4,1.4,4.3c0.8,1,2.2,1.5,4.2,1.5C715.8,270.6,717.3,269.2,717.3,266.5z"/>
	<path class="st5" d="M759.1,277.9c-0.3-0.7-0.6-1.7-0.9-3.3c-2,2.7-4.7,4.1-8.1,4.1c-3.6,0-6.5-1.2-8.8-3.5
		c-2.3-2.3-3.5-5.4-3.5-9.1c0-4.4,1.4-7.9,4.3-10.3c2.8-2.4,6.9-3.7,12.2-3.7h3.4v-3.4c0-1.9-0.3-3.3-1-4c-0.7-0.8-1.6-1.2-2.9-1.2
		c-2.8,0-4.2,1.6-4.2,4.9h-11.1c0-3.9,1.5-7.2,4.4-9.7c2.9-2.5,6.7-3.8,11.1-3.8c4.7,0,8.2,1.2,10.8,3.6c2.5,2.4,3.8,5.9,3.8,10.4
		v19.9c0.1,3.7,0.6,6.5,1.6,8.6v0.7H759.1z M767.3,218.1c0,3.5-1.2,6.3-3.7,8.4s-5.8,3.2-9.9,3.2c-4.1,0-7.4-1.1-9.9-3.2
		s-3.7-5-3.7-8.4h8.1c0,1.6,0.5,2.9,1.5,3.8c1,0.9,2.3,1.4,4.1,1.4c1.7,0,3-0.5,4-1.4c1-0.9,1.5-2.2,1.5-3.8H767.3z M752.6,270
		c1.2,0,2.3-0.2,3.1-0.7c0.9-0.5,1.5-1.1,1.9-1.8v-8.8H755c-1.9,0-3.4,0.6-4.4,1.8c-1.1,1.2-1.6,2.8-1.6,4.8
		C748.9,268.4,750.1,270,752.6,270z"/>
	<path class="st5" d="M790.9,235.5l0.3,4.2c2.5-3.3,5.8-5,9.8-5c7.3,0,11,5.1,11.2,15.3v27.9h-11.1v-27c0-2.4-0.4-4.1-1.1-5.2
		c-0.7-1.1-2-1.6-3.8-1.6c-2,0-3.6,1-4.7,3.1v30.8h-11.1v-42.4H790.9z"/>
	<path class="st5" d="M844.4,277.9c-0.3-0.7-0.6-1.7-0.9-3.3c-2,2.7-4.7,4.1-8.1,4.1c-3.6,0-6.5-1.2-8.8-3.5
		c-2.3-2.3-3.5-5.4-3.5-9.1c0-4.4,1.4-7.9,4.3-10.3c2.8-2.4,6.9-3.7,12.2-3.7h3.4v-3.4c0-1.9-0.3-3.3-1-4c-0.7-0.8-1.6-1.2-2.9-1.2
		c-2.8,0-4.2,1.6-4.2,4.9h-11.1c0-3.9,1.5-7.2,4.4-9.7c2.9-2.5,6.7-3.8,11.1-3.8c4.7,0,8.2,1.2,10.8,3.6c2.5,2.4,3.8,5.9,3.8,10.4
		v19.9c0.1,3.7,0.6,6.5,1.6,8.6v0.7H844.4z M852.6,218.1c0,3.5-1.2,6.3-3.7,8.4s-5.8,3.2-9.9,3.2c-4.1,0-7.4-1.1-9.9-3.2
		s-3.7-5-3.7-8.4h8.1c0,1.6,0.5,2.9,1.5,3.8c1,0.9,2.3,1.4,4.1,1.4c1.7,0,3-0.5,4-1.4c1-0.9,1.5-2.2,1.5-3.8H852.6z M837.9,270
		c1.2,0,2.3-0.2,3.1-0.7c0.9-0.5,1.5-1.1,1.9-1.8v-8.8h-2.7c-1.9,0-3.4,0.6-4.4,1.8c-1.1,1.2-1.6,2.8-1.6,4.8
		C834.2,268.4,835.4,270,837.9,270z"/>
	<path class="st5" d="M879,225.1v10.4h5.7v8.3H879v21.1c0,1.7,0.2,2.8,0.7,3.5c0.5,0.6,1.3,0.9,2.6,0.9c1.1,0,1.9-0.1,2.6-0.3
		l-0.1,8.6c-1.9,0.7-3.9,1.1-6.1,1.1c-7.2,0-10.8-4.1-10.9-12.3v-22.6H863v-8.3h4.9v-10.4H879z"/>
	<path class="st5" d="M914.9,277.9c-0.3-0.7-0.6-1.7-0.9-3.3c-2,2.7-4.7,4.1-8.1,4.1c-3.6,0-6.5-1.2-8.8-3.5
		c-2.3-2.3-3.5-5.4-3.5-9.1c0-4.4,1.4-7.9,4.3-10.3c2.8-2.4,6.9-3.7,12.2-3.7h3.4v-3.4c0-1.9-0.3-3.3-1-4c-0.7-0.8-1.6-1.2-2.9-1.2
		c-2.8,0-4.2,1.6-4.2,4.9h-11.1c0-3.9,1.5-7.2,4.4-9.7c2.9-2.5,6.7-3.8,11.1-3.8c4.7,0,8.2,1.2,10.8,3.6c2.5,2.4,3.8,5.9,3.8,10.4
		v19.9c0.1,3.7,0.6,6.5,1.6,8.6v0.7H914.9z M908.3,270c1.2,0,2.3-0.2,3.1-0.7c0.9-0.5,1.5-1.1,1.9-1.8v-8.8h-2.7
		c-1.9,0-3.4,0.6-4.4,1.8c-1.1,1.2-1.6,2.8-1.6,4.8C904.6,268.4,905.9,270,908.3,270z"/>
	<path class="st5" d="M949.4,225.1v10.4h5.7v8.3h-5.7v21.1c0,1.7,0.2,2.8,0.7,3.5c0.5,0.6,1.3,0.9,2.6,0.9c1.1,0,1.9-0.1,2.6-0.3
		l-0.1,8.6c-1.9,0.7-3.9,1.1-6.1,1.1c-7.2,0-10.8-4.1-10.9-12.3v-22.6h-4.9v-8.3h4.9v-10.4H949.4z"/>
	<path class="st5" d="M982.3,278.7c-5.7,0-10.1-1.7-13.3-5.1c-3.2-3.4-4.8-8.3-4.8-14.6v-3.4c0-6.7,1.5-11.8,4.4-15.5
		c2.9-3.6,7.1-5.4,12.6-5.4c5.3,0,9.3,1.7,12,5.1c2.7,3.4,4.1,8.4,4.1,15.1v5.4h-22.1c0.2,3.1,0.8,5.5,2.1,6.9
		c1.2,1.5,3.1,2.2,5.7,2.2c3.7,0,6.8-1.3,9.3-3.8l4.3,6.7c-1.4,1.9-3.3,3.4-5.9,4.6C988.1,278.1,985.3,278.7,982.3,278.7z
		 M975.3,252.7h11.1v-1c-0.1-2.5-0.5-4.5-1.3-5.8c-0.8-1.3-2.1-2-4.1-2s-3.3,0.7-4.2,2.1C976,247.4,975.5,249.6,975.3,252.7z"/>
</g>
</svg>
