<?xml version="1.0" standalone="no"?>
<!DOCTYPE svg PUBLIC "-//W3C//DTD SVG 20010904//EN"
 "http://www.w3.org/TR/2001/REC-SVG-20010904/DTD/svg10.dtd">
<svg version="1.0" xmlns="http://www.w3.org/2000/svg"
 width="1200.000000pt" height="1200.000000pt" viewBox="0 0 1200.000000 1200.000000"
 preserveAspectRatio="xMidYMid meet">
<metadata>
Created by potrace 1.16, written by Peter Selinger 2001-2019
</metadata>
<g transform="translate(0.000000,1200.000000) scale(0.100000,-0.100000)"
fill="#000000" stroke="none">
<path d="M3487 10880 c-368 -33 -738 -143 -1067 -316 -495 -261 -937 -710
-1201 -1218 -294 -567 -402 -1167 -338 -1886 16 -181 66 -515 94 -630 15 -58
44 -188 66 -290 22 -102 45 -190 52 -197 7 -7 164 -44 349 -83 396 -82 447
-94 678 -166 96 -29 225 -65 285 -78 206 -46 605 -118 621 -112 19 7 16 39
-10 126 -23 75 -32 276 -17 378 29 200 123 378 274 518 73 69 179 142 255 177
l53 25 273 613 c150 338 483 1087 740 1664 258 578 474 1065 481 1083 l14 32
-132 67 c-300 150 -575 236 -892 278 -145 19 -443 27 -578 15z"/>
<path d="M8070 10884 c-609 -40 -1118 -233 -1598 -606 -207 -161 -532 -513
-573 -621 -19 -49 -145 -665 -137 -672 2 -3 27 2 54 9 122 36 227 48 364 43
162 -6 220 -21 365 -92 242 -117 398 -309 472 -580 24 -91 27 -116 27 -280 1
-200 -8 -250 -69 -382 -47 -102 -98 -176 -185 -267 -91 -96 -171 -154 -282
-205 -127 -59 -201 -75 -358 -74 -128 0 -231 16 -377 59 -26 7 -27 22 8 -231
41 -291 160 -825 184 -825 8 0 83 18 167 40 277 72 663 141 1011 180 55 7 101
9 104 7 3 -3 -6 -25 -20 -49 -70 -121 -102 -273 -95 -449 8 -181 58 -326 160
-464 117 -158 259 -259 448 -320 124 -40 311 -47 444 -16 351 81 611 363 667
724 24 150 -7 349 -74 488 -22 46 -29 69 -20 69 25 0 389 -51 508 -71 169 -28
342 -71 545 -134 96 -30 229 -67 295 -84 161 -40 539 -121 564 -121 11 0 27
10 35 23 27 42 165 471 205 637 68 280 120 594 142 860 15 185 6 669 -16 835
-176 1336 -1208 2391 -2495 2549 -129 16 -374 26 -470 20z"/>
<path d="M3755 7084 c-265 -59 -495 -251 -599 -503 -44 -104 -60 -188 -60
-316 -1 -152 21 -245 89 -381 l50 -100 -140 18 c-407 53 -751 124 -1148 238
-172 48 -348 98 -393 109 -97 25 -371 73 -388 69 -29 -7 304 -692 509 -1047
331 -575 865 -1243 1390 -1742 914 -869 1140 -1045 2275 -1781 241 -156 346
-218 370 -218 5 0 10 17 10 38 0 21 14 89 30 152 17 63 46 182 65 264 19 81
52 203 74 270 68 209 127 460 186 791 45 254 39 264 -122 208 -70 -25 -92 -27
-213 -27 -111 0 -150 4 -220 23 -270 74 -469 238 -590 486 -74 151 -94 244
-94 445 1 150 3 173 28 255 105 350 356 593 678 659 137 28 378 17 509 -23 50
-16 61 -17 66 -6 12 34 -163 991 -188 1021 -18 22 -61 17 -198 -20 -178 -49
-325 -81 -481 -105 -140 -22 -584 -81 -607 -81 -9 0 1 26 26 73 167 305 132
682 -88 944 -107 128 -227 208 -391 264 -85 29 -109 32 -230 35 -96 3 -155 -1
-205 -12z"/>
<path d="M6815 6250 c-361 -53 -755 -139 -792 -173 -29 -26 -29 -41 2 -123 36
-97 50 -153 115 -488 51 -260 106 -623 97 -632 -1 -2 -30 10 -62 25 -351 167
-774 90 -1041 -190 -77 -82 -117 -140 -164 -242 -62 -137 -74 -194 -74 -352 0
-162 14 -233 74 -362 48 -102 87 -161 164 -242 151 -157 357 -255 587 -276
132 -12 321 22 441 80 27 13 48 19 48 14 0 -5 -12 -89 -26 -186 -50 -350 -96
-552 -230 -1018 -142 -494 -169 -612 -162 -706 6 -80 23 -74 375 122 788 440
1173 699 1871 1258 550 441 784 653 1145 1039 613 655 908 1051 1282 1722 107
191 186 350 179 361 -2 4 -25 10 -51 14 -27 4 -277 65 -558 135 -280 71 -577
142 -660 159 -234 48 -475 82 -475 68 0 -2 10 -45 22 -97 29 -128 32 -382 5
-480 -82 -299 -338 -548 -663 -642 -70 -20 -100 -23 -264 -22 -167 0 -194 3
-281 26 -174 47 -309 121 -432 237 -81 77 -124 133 -170 226 -97 194 -117 430
-57 683 11 46 20 85 20 88 0 9 -84 1 -265 -26z"/>
</g>
</svg>
