<svg width="981" height="143" viewBox="0 0 981 143" fill="none" xmlns="http://www.w3.org/2000/svg">
    <g clip-path="url(#clip0_2307_4310)">
        <path d="M980.48 118.94H181.64V124.87H980.48V118.94Z" fill="#1C1080"/>
        <path d="M71.03 142.06C110.259 142.06 142.06 110.259 142.06 71.03C142.06 31.8012 110.259 0 71.03 0C31.8012 0 0 31.8012 0 71.03C0 110.259 31.8012 142.06 71.03 142.06Z" fill="#0E8040"/>
        <path d="M190.66 97.52C184.78 91.7534 181.84 83.71 181.84 73.39V17.84H191.6V74.13C191.6 81.97 193.813 87.8267 198.24 91.7C202.667 95.5734 208.843 97.5134 216.77 97.52C224.697 97.52 230.873 95.58 235.3 91.7C239.727 87.82 241.937 81.9634 241.93 74.13V17.84H251.7V73.39C251.7 83.7034 248.757 91.7467 242.87 97.52C236.983 103.293 228.283 106.18 216.77 106.18C205.25 106.18 196.547 103.293 190.66 97.52Z" fill="#1C1080"/>
        <path d="M268.6 17.84H278L326.2 87.84V17.84H336V104.32H326.61L278.36 34.17V104.32H268.6V17.84Z" fill="#1C1080"/>
        <path d="M433.49 17.84H442.63L477.56 104.32H467.56L458.17 81.19H417.84L408.57 104.32H398.57L433.49 17.84ZM455.4 73L438 29L420.72 73H455.4Z" fill="#1C1080"/>
        <path d="M505.41 100.61C498.57 97.0205 492.9 91.5484 489.07 84.84C485.15 78.0267 483.19 70.1267 483.19 61.14C483.19 52.1533 485.15 44.2567 489.07 37.45C492.905 30.7281 498.572 25.2347 505.41 21.61C512.725 17.7821 520.885 15.853 529.14 16C541.24 16 551.257 19.1333 559.19 25.4V34.81C551.677 28.1433 541.91 24.81 529.89 24.81C523.286 24.6987 516.758 26.2277 510.89 29.26C505.381 32.1298 500.808 36.5157 497.71 41.9C494.457 47.7805 492.831 54.422 493 61.14C492.84 67.8709 494.506 74.5194 497.82 80.38C500.925 85.7684 505.496 90.1653 511 93.06C516.837 96.0891 523.335 97.6216 529.91 97.52C535.596 97.5892 541.256 96.7382 546.67 95C551.737 93.2635 556.384 90.4836 560.31 86.84V96.4C552.883 102.92 542.493 106.18 529.14 106.18C520.89 106.321 512.735 104.407 505.41 100.61V100.61Z" fill="#1C1080"/>
        <path d="M592.18 100.55C585.31 96.8963 579.603 91.3873 575.71 84.65C571.63 77.4964 569.557 69.3739 569.71 61.14C569.559 52.9062 571.631 44.7842 575.71 37.63C579.599 30.8885 585.275 25.3518 592.11 21.63C599.348 17.8892 607.377 15.9371 615.525 15.9371C623.673 15.9371 631.702 17.8892 638.94 21.63C645.778 25.3488 651.454 30.8863 655.34 37.63C659.423 44.7823 661.496 52.9057 661.34 61.14C661.498 69.3745 659.425 77.4982 655.34 84.65C651.45 91.3866 645.747 96.8957 638.88 100.55C631.653 104.25 623.649 106.18 615.53 106.18C607.411 106.18 599.407 104.25 592.18 100.55V100.55ZM633.81 93.06C639.253 90.1441 643.759 85.7483 646.81 80.38C650.078 74.5039 651.718 67.8618 651.56 61.14C651.72 54.4597 650.109 47.8561 646.89 42C643.872 36.6347 639.405 32.2268 634 29.28C628.416 26.2419 622.146 24.6889 615.79 24.77C609.377 24.6835 603.046 26.2139 597.38 29.22C591.899 32.1612 587.362 36.5915 584.29 42C580.996 47.8469 579.332 54.4705 579.47 61.18C579.31 67.9033 580.954 74.5467 584.23 80.42C587.278 85.7903 591.785 90.1868 597.23 93.1C602.878 96.0305 609.147 97.5602 615.51 97.5602C621.873 97.5602 628.142 96.0305 633.79 93.1L633.81 93.06Z" fill="#1C1080"/>
        <path d="M676.37 17.84H708.8C717.98 17.84 725.137 19.9834 730.27 24.27C735.403 28.5567 737.98 34.9067 738 43.32C738 51.82 735.453 58.1734 730.36 62.38C725.267 66.5867 718.08 68.69 708.8 68.69H686.14V104.32H676.37V17.84ZM708.05 60.52C714.31 60.52 719.233 59.2634 722.82 56.75C726.407 54.2367 728.203 49.76 728.21 43.32C728.21 36.8134 726.413 32.3 722.82 29.78C719.227 27.26 714.303 26 708.05 26H686.14V60.52H708.05Z" fill="#1C1080"/>
        <path d="M750.49 17.84H806.83V26H760.26V56.93H795.19V65.1H760.26V96.16H806.83V104.32H750.49V17.84Z" fill="#1C1080"/>
        <path d="M821.85 17.84H855.66C864.76 17.84 871.667 19.9434 876.38 24.15C881.093 28.3567 883.45 34.5834 883.45 42.83C883.621 48.6663 881.638 54.3614 877.88 58.83C874.167 63.2034 869.013 65.9667 862.42 67.12L883.2 104.36H873.06L852.53 67.58H831.62V104.32H821.85V17.84ZM854.41 59.41C860.41 59.41 865.127 58.0067 868.56 55.2C871.993 52.3934 873.703 48.27 873.69 42.83C873.69 36.73 872 32.3967 868.62 29.83C865.24 27.2634 860.503 25.9867 854.41 26H831.62V59.41H854.41Z" fill="#1C1080"/>
        <path d="M898.6 17.84H908.37V104.32H898.6V17.84Z" fill="#1C1080"/>
        <path d="M935 104.94C931.032 104.328 927.16 103.205 923.48 101.6V92.44C931.469 95.8595 940.08 97.5891 948.77 97.52C956.283 97.52 961.813 96.3233 965.36 93.93C968.907 91.5367 970.68 87.95 970.68 83.17C970.823 80.3379 970.055 77.5345 968.49 75.17C966.812 73.0196 964.641 71.3047 962.16 70.17C959.413 68.8367 954.657 66.7967 947.89 64.05C939.63 60.7167 933.63 57.1067 929.89 53.22C926.15 49.3334 924.29 44.3634 924.31 38.31C924.265 34.1201 925.558 30.0251 928 26.62C930.531 23.1151 933.996 20.3917 938 18.76C942.761 16.8289 947.863 15.8832 953 15.98C957.196 15.9303 961.387 16.2718 965.52 17C969.303 17.7162 972.993 18.8567 976.52 20.4V29.19C969.583 26.1567 962.091 24.5971 954.52 24.61C947.853 24.61 942.803 25.8067 939.37 28.2C937.733 29.2908 936.402 30.7823 935.504 32.5326C934.606 34.283 934.171 36.234 934.24 38.2C934.167 40.837 934.911 43.432 936.37 45.63C938.152 48.0019 940.441 49.9459 943.07 51.32C947.123 53.5135 951.327 55.415 955.65 57.01C960.531 58.7956 965.262 60.9658 969.8 63.5C973.048 65.3581 975.781 67.998 977.75 71.18C979.617 74.2667 980.553 78.2467 980.56 83.12C980.56 90.4534 977.933 96.12 972.68 100.12C967.427 104.12 959.663 106.12 949.39 106.12C944.568 106.154 939.752 105.759 935 104.94V104.94ZM947.27 112.12H957.41L945.89 136.37H937.12L947.27 112.12Z" fill="#1C1080"/>
    </g>
    <defs>
        <clipPath id="clip0_2307_4310">
            <rect width="980.48" height="142.05" fill="white"/>
        </clipPath>
    </defs>
</svg>
