<svg width="116" height="20" viewBox="0 0 116 20" fill="none" xmlns="http://www.w3.org/2000/svg">
<path d="M14.5633 14.5837L16.3888 18.2346C16.3888 18.2346 14.2794 19.979 10.2024 19.979C4.88824 19.9587 0 15.6384 0 10.2431C0 4.84774 4.86796 0.446289 10.2024 0.446289C14.2794 0.446289 16.3888 2.19064 16.3888 2.19064L14.5633 5.84161C13.4778 5.0923 12.1908 4.68924 10.8718 4.68547C6.55146 4.68547 4.66513 7.68738 4.66513 10.2025C4.66513 12.7176 6.55146 15.7398 10.8718 15.7398C12.1908 15.736 13.4778 15.333 14.5633 14.5837Z" fill="white"/>
<path d="M22.4939 3.08336C22.4939 3.55673 22.3535 4.01947 22.0905 4.41307C21.8275 4.80666 21.4537 5.11343 21.0164 5.29458C20.579 5.47573 20.0978 5.52313 19.6335 5.43078C19.1692 5.33843 18.7428 5.11048 18.408 4.77575C18.0733 4.44103 17.8454 4.01456 17.753 3.55029C17.6607 3.08601 17.7081 2.60477 17.8892 2.16744C18.0704 1.7301 18.3771 1.3563 18.7707 1.0933C19.1643 0.830313 19.6271 0.689941 20.1004 0.689941C20.7352 0.689941 21.344 0.942104 21.7928 1.39096C22.2417 1.83981 22.4939 2.44858 22.4939 3.08336ZM18.0316 19.6344H22.0679V7.91075H18.0316V19.6344Z" fill="white"/>
<path d="M41.8442 3.08336C41.8442 3.55673 41.7038 4.01947 41.4408 4.41307C41.1778 4.80666 40.804 5.11343 40.3667 5.29458C39.9294 5.47573 39.4481 5.52313 38.9839 5.43078C38.5196 5.33843 38.0931 5.11048 37.7584 4.77575C37.4237 4.44103 37.1957 4.01456 37.1034 3.55029C37.011 3.08601 37.0584 2.60477 37.2396 2.16744C37.4207 1.7301 37.7275 1.3563 38.1211 1.0933C38.5147 0.830313 38.9774 0.689941 39.4508 0.689941C40.0856 0.689941 40.6943 0.942104 41.1432 1.39096C41.592 1.83981 41.8442 2.44858 41.8442 3.08336ZM37.3819 19.6344H41.4183V7.91075H37.3819V19.6344Z" fill="white"/>
<path d="M47.706 13.7518C47.698 14.1264 47.7641 14.4989 47.9007 14.8478C48.0372 15.1967 48.2415 15.5152 48.5017 15.7848C48.7619 16.0544 49.0728 16.2699 49.4167 16.4188C49.7605 16.5677 50.1304 16.647 50.5051 16.6523C51.2003 16.6652 51.8841 16.4749 52.4726 16.1046L53.8518 18.9037C53.8518 18.9037 52.5334 19.9584 49.9169 19.9584C46.5296 19.9584 43.4263 17.2202 43.4263 13.7924C43.4263 10.3645 46.5093 7.56543 49.9169 7.56543C52.5131 7.56543 53.8518 8.66072 53.8518 8.66072L52.4726 11.4192C51.8841 11.049 51.2003 10.8586 50.5051 10.8716C50.1322 10.8769 49.764 10.9556 49.4215 11.1032C49.079 11.2508 48.7689 11.4644 48.509 11.7319C48.249 11.9994 48.0443 12.3154 47.9066 12.662C47.7688 13.0086 47.7007 13.3789 47.706 13.7518Z" fill="white"/>
<path d="M66.0014 15.8614H72.4921V19.6341H61.7014V0.791016H66.0014V15.8614Z" fill="white"/>
<path d="M79.5708 7.58594C81.1529 7.58594 82.451 8.1133 83.4043 9.04633V7.91047H87.4407V19.6341H83.4449V18.2955H83.4043C82.9154 18.8231 82.3222 19.2434 81.6622 19.5297C81.0023 19.816 80.2901 19.9621 79.5708 19.9587C76.1429 19.9587 73.7495 17.2002 73.7495 13.7723C73.7495 10.3444 76.1429 7.58594 79.5708 7.58594ZM80.7878 16.5308C82.3699 16.5308 83.5057 15.395 83.5057 13.7926C83.5057 13.0691 83.2183 12.3752 82.7067 11.8635C82.1951 11.3519 81.5012 11.0645 80.7776 11.0645C80.0541 11.0645 79.3602 11.3519 78.8486 11.8635C78.337 12.3752 78.0495 13.0691 78.0495 13.7926C78.0495 15.3747 79.1448 16.5308 80.7878 16.5308Z" fill="white"/>
<path d="M98.0491 19.9586C97.3297 19.9621 96.6175 19.816 95.9576 19.5297C95.2977 19.2434 94.7045 18.8231 94.2155 18.2954H94.175V19.6138H90.1792V0H94.2155V9.04629C95.1689 8.11327 96.467 7.58591 98.0491 7.58591C101.477 7.58591 103.87 10.3647 103.87 13.7926C103.87 17.2204 101.477 19.9586 98.0491 19.9586ZM96.8321 11.0138C96.4701 11.0108 96.1112 11.0812 95.7772 11.2208C95.4432 11.3605 95.141 11.5664 94.8888 11.8261C94.6367 12.0859 94.4398 12.394 94.3101 12.732C94.1805 13.07 94.1207 13.4308 94.1344 13.7926C94.1344 15.3949 95.2703 16.5308 96.8524 16.5308C98.4344 16.5308 99.5906 15.3746 99.5906 13.7926C99.6045 13.4273 99.5436 13.0631 99.4114 12.7224C99.2793 12.3816 99.0788 12.0715 98.8222 11.8112C98.5657 11.5509 98.2586 11.3458 97.9198 11.2087C97.581 11.0715 97.2177 11.0052 96.8524 11.0138H96.8321Z" fill="white"/>
<path d="M114.782 8.49846L113.464 11.1556C113.464 11.1556 112.105 10.4254 110.868 10.4254C109.975 10.4254 109.61 10.5876 109.61 11.1353C109.61 11.6829 110.442 11.9263 111.436 12.2508C112.977 12.7376 115.006 13.5895 115.006 16.0032C115.006 19.4514 111.862 19.999 109.468 19.999C107.821 20.0204 106.22 19.4602 104.945 18.4169L106.588 15.6584C106.588 15.6584 108.19 16.9971 109.488 16.9971C110.056 16.9971 110.746 16.9363 110.746 16.1452C110.746 15.3542 109.468 15.2325 108.15 14.5428C106.831 13.8532 105.777 13.1027 105.777 11.3381C105.777 8.94469 107.805 7.56543 110.888 7.56543C112.24 7.57813 113.571 7.89713 114.782 8.49846Z" fill="white"/>
<path d="M23.7517 8.49902H34.7249V19.4519L23.7517 8.49902Z" fill="#FFCC00"/>
</svg>
