<svg width="541" height="349" viewBox="0 0 541 349" fill="none" xmlns="http://www.w3.org/2000/svg">
<path d="M354.889 199.307L359.861 198.449C360.318 198.392 360.833 198.278 361.29 198.164C342.145 186.277 336.259 161.132 348.146 142.044C356.432 128.672 371.691 121.3 387.292 123.014L380.777 138.501L396.207 125.014C396.265 125.014 396.265 125.014 396.322 125.071C417.581 132.558 428.725 155.817 421.238 177.076C420.952 177.819 420.667 178.505 420.381 179.248C424.724 177.076 428.896 174.504 432.325 171.247C439.24 164.618 443.012 155.531 447.24 144.273C455.584 121.985 463.642 99.4119 471.414 76.7813C453.813 67.2376 445.697 46.3215 452.384 27.4055C452.784 26.2054 453.298 25.1196 453.812 23.9766C453.927 23.6909 454.041 23.4052 454.213 23.1194C454.727 22.0336 455.298 21.0049 455.87 19.9763C455.984 19.8048 456.098 19.6334 456.156 19.5191C456.67 18.6619 457.241 17.8618 457.813 17.0617C458.041 16.776 458.27 16.4903 458.441 16.1474C459.07 15.2901 459.756 14.4329 460.499 13.6329C460.727 13.3471 461.013 13.1185 461.242 12.8328C461.813 12.2613 462.385 11.6898 462.956 11.1183C463.242 10.8326 463.585 10.5469 463.871 10.2611C463.928 10.204 464.042 10.0897 464.099 10.0325C478.9 -2.8829 500.845 -3.39723 516.218 8.88958L507.76 29.0628L523.019 15.7473C533.991 29.6914 534.563 49.1789 524.505 63.7516H524.562C524.39 63.9802 524.219 64.2088 524.047 64.4374C523.704 64.8946 523.419 65.3518 523.076 65.7518C522.619 66.3233 522.219 66.8376 521.761 67.3519C521.419 67.752 521.076 68.152 520.733 68.552C520.218 69.1235 519.647 69.6379 519.075 70.2093C518.733 70.4951 518.447 70.838 518.104 71.1237C517.247 71.9238 516.332 72.6667 515.361 73.3525C515.018 73.5811 514.675 73.8097 514.332 74.0382C513.646 74.4954 513.018 74.9526 512.332 75.3527C511.932 75.6384 511.475 75.867 511.018 76.0956C510.389 76.4385 509.76 76.7814 509.132 77.1242C508.675 77.3528 508.217 77.5814 507.76 77.81C507.074 78.0958 506.446 78.3815 505.76 78.6672C505.303 78.8387 504.846 79.0101 504.388 79.1816C503.646 79.4673 502.845 79.6959 502.103 79.9245C501.702 80.0388 501.302 80.1531 500.96 80.2674C499.817 80.5531 498.617 80.8389 497.416 81.0103C497.188 81.0674 496.959 81.0675 496.731 81.0675C495.759 81.2389 494.73 81.3532 493.759 81.4103C493.302 81.4675 492.902 81.4675 492.445 81.4675C491.644 81.5246 490.844 81.5246 490.044 81.5246C489.587 81.5246 489.073 81.4675 488.616 81.4675C487.816 81.4103 487.015 81.3532 486.215 81.2389C485.758 81.1817 485.301 81.1246 484.787 81.0675C483.929 80.9532 483.072 80.7817 482.215 80.6103C482.158 80.6103 482.101 80.6103 482.044 80.5531C478.786 90.0968 475.472 99.6405 472.1 109.127C488.844 94.0972 514.618 95.4687 529.648 112.156C530.162 112.727 530.676 113.356 531.191 113.985L517.075 129.586L536.163 121.985C540.792 131.701 541.363 142.844 537.82 153.017C536.563 156.56 534.848 159.932 532.62 163.018C519.647 181.419 494.216 185.762 475.814 172.79C466.614 166.275 460.556 156.274 458.956 145.187C458.613 146.159 458.27 147.13 457.87 148.045C454.155 157.931 449.526 170.275 440.211 179.19C433.925 185.248 426.153 189.077 418.666 192.335C413.809 194.449 408.894 196.392 403.922 198.164C398.379 201.535 392.15 203.536 385.692 203.993C377.863 206.164 369.862 207.993 361.861 209.422L356.832 210.279C352.318 211.022 347.746 211.822 343.117 212.736C343.803 212.908 344.431 213.136 345.117 213.365C361.861 219.251 372.891 235.31 372.32 253.026L340.888 262.912L369.291 267.427C360.776 288.286 337.002 298.344 316.143 289.829C310.485 287.543 305.456 284 301.342 279.485C301.627 280.457 301.913 281.428 302.199 282.4C302.77 284.286 303.342 286.229 303.913 288.114C311.4 313.774 308.142 334.004 294.827 344.977L287.626 336.233C300.599 325.546 296.541 303.487 292.998 291.258C292.484 289.429 291.912 287.543 291.341 285.657C286.483 269.484 280.94 251.14 288.083 234.338C298.884 208.907 329.916 203.593 354.889 199.307Z" fill="#F2F2F2"/>
<path d="M363.975 348.234H144.013C128.983 348.234 116.811 336.062 116.811 321.032V220.28C116.811 217.308 118.011 214.508 120.182 212.451L236.707 101.984C246.365 92.8401 261.566 92.8401 271.224 101.984L382.32 207.307C387.92 212.622 391.121 219.994 391.121 227.766V321.032C391.178 336.062 379.005 348.234 363.975 348.234Z" fill="#3F3D56"/>
<path opacity="0.1" d="M116.867 221.937H388.891V331.833C388.891 340.919 381.519 348.234 372.49 348.234H133.269C124.182 348.234 116.867 340.862 116.867 331.833V221.937Z" fill="black"/>
<path d="M167.501 135.358H339.859C348.146 135.358 354.832 142.044 354.832 150.331V322.689C354.832 330.975 348.146 337.662 339.859 337.662H167.501C159.215 337.662 152.528 330.975 152.528 322.689V150.331C152.585 142.044 159.272 135.358 167.501 135.358Z" fill="#28AEE4"/>
<path opacity="0.1" d="M354.889 226.452V337.662H152.585V226.452L253.737 275.37L354.889 226.452Z" fill="black"/>
<path d="M253.737 281.657L124.126 219.023C121.497 217.765 118.354 218.851 117.096 221.48C116.753 222.166 116.582 222.966 116.582 223.766V331.547C116.582 340.633 123.954 347.948 132.984 347.948H374.434C383.52 347.948 390.835 340.576 390.835 331.547V225.595C390.835 222.051 387.978 219.194 384.435 219.194C383.463 219.194 382.491 219.423 381.634 219.823L253.737 281.657Z" fill="#3F3D56"/>
<path d="M226.592 153.931H170.016V161.932H226.592V153.931Z" fill="#F2F2F2"/>
<path d="M333.458 183.077H165.443V187.648H333.458V183.077Z" fill="#F2F2F2"/>
<path d="M333.458 198.506H165.443V203.078H333.458V198.506Z" fill="#F2F2F2"/>
<path d="M333.458 213.937H165.443V218.508H333.458V213.937Z" fill="#F2F2F2"/>
<path d="M0 277.599C0 311.316 21.1447 338.576 47.2614 338.576L0 277.599Z" fill="#46455B"/>
<path d="M47.2617 338.519C47.2617 304.459 70.8638 276.856 100.009 276.856L47.2617 338.519Z" fill="#28AEE4"/>
<path d="M17.0879 280.628C17.0879 312.631 30.5748 338.519 47.2049 338.519L17.0879 280.628Z" fill="#28AEE4"/>
<path d="M47.2617 338.519C47.2617 294.973 74.5213 259.77 108.239 259.77L47.2617 338.519Z" fill="#46455B"/>
<path d="M37.3174 338.977C37.3174 338.977 44.0037 338.748 46.061 337.319C48.1183 335.891 56.3477 334.176 56.862 336.462C57.3763 338.748 66.92 347.949 59.3765 348.006C51.833 348.063 41.7749 346.806 39.7747 345.606C37.7746 344.406 37.3174 338.977 37.3174 338.977Z" fill="#A8A8A8"/>
<path opacity="0.2" d="M59.4908 347.205C51.9473 347.263 41.8892 346.005 39.889 344.805C38.346 343.891 37.7174 340.519 37.546 338.976C37.4317 338.976 37.3174 338.976 37.3174 338.976C37.3174 338.976 37.7174 344.405 39.7747 345.605C41.8321 346.805 51.833 348.063 59.3765 348.005C61.5481 348.005 62.291 347.205 62.291 346.062C61.9482 346.748 61.0909 347.205 59.4908 347.205Z" fill="black"/>
<path d="M390.434 93.2401C390.092 96.326 387.748 98.7834 386.891 101.698C385.577 106.155 387.863 110.899 390.892 114.385C395.921 119.985 402.95 123.3 410.436 123.7C411.522 123.814 412.608 123.7 413.694 123.357C414.608 122.957 415.465 122.386 416.151 121.7C418.494 119.357 419.694 116.156 420.208 112.899C420.723 109.642 420.494 106.327 420.323 103.07C420.323 102.384 420.208 101.698 419.98 101.069C419.637 100.441 419.237 99.9264 418.723 99.5263C417.065 97.9833 415.237 96.6689 413.236 95.526C412.322 95.1259 411.579 94.4973 410.95 93.7544C410.55 93.1258 410.322 92.3828 410.265 91.6399L409.636 88.5539C409.522 87.6396 409.236 86.7823 408.722 86.0394C407.636 84.6107 405.579 84.3821 403.807 84.325L397.235 84.0392C395.178 83.9821 392.492 83.3535 390.492 83.7535C388.606 84.1535 389.234 85.868 389.577 87.411C390.092 89.354 390.377 91.297 390.434 93.2401Z" fill="#A0616A"/>
<path d="M390.434 93.2401C390.092 96.326 387.748 98.7834 386.891 101.698C385.577 106.155 387.863 110.899 390.892 114.385C395.921 119.985 402.95 123.3 410.436 123.7C411.522 123.814 412.608 123.7 413.694 123.357C414.608 122.957 415.465 122.386 416.151 121.7C418.494 119.357 419.694 116.156 420.208 112.899C420.723 109.642 420.494 106.327 420.323 103.07C420.323 102.384 420.208 101.698 419.98 101.069C419.637 100.441 419.237 99.9264 418.723 99.5263C417.065 97.9833 415.237 96.6689 413.236 95.526C412.322 95.1259 411.579 94.4973 410.95 93.7544C410.55 93.1258 410.322 92.3828 410.265 91.6399L409.636 88.5539C409.522 87.6396 409.236 86.7823 408.722 86.0394C407.636 84.6107 405.579 84.3821 403.807 84.325L397.235 84.0392C395.178 83.9821 392.492 83.3535 390.492 83.7535C388.606 84.1535 389.234 85.868 389.577 87.411C390.092 89.354 390.377 91.297 390.434 93.2401Z" fill="#EFC2A3"/>
<path d="M432.267 230.967C431.353 241.196 430.381 251.369 429.467 261.598C428.724 269.656 427.981 277.714 426.552 285.657C426.038 288.4 425.467 291.086 424.781 293.83C422.895 301.316 420.095 308.631 419.18 316.289C419.18 316.517 419.123 316.746 419.123 316.974C419.009 318.689 418.723 320.346 418.152 321.946C417.695 323.089 417.009 324.175 416.552 325.318C415.58 327.661 415.466 330.176 415.351 332.69C411.98 330.804 408.265 329.49 404.379 328.918C402.493 328.633 400.436 328.461 399.179 327.033C397.75 325.49 397.921 323.146 398.15 321.089C398.893 314.689 399.636 308.288 400.379 301.887C400.607 299.144 401.064 296.401 401.75 293.715C401.979 292.801 402.322 291.944 402.607 291.086C403.008 289.886 403.465 288.686 403.808 287.429C404.265 285.429 404.608 283.429 404.779 281.371C405.522 274.914 406.436 268.513 407.236 262.055L407.294 261.712C408.494 251.94 409.408 242.168 409.122 232.338C409.065 230.91 409.008 229.424 408.951 227.995C408.837 225.881 408.608 224.738 410.38 223.423C412.323 221.937 414.837 220.966 417.066 219.994C418.266 219.48 431.353 214.851 431.696 215.823C432.324 217.994 432.61 220.223 432.667 222.509C432.724 225.423 432.553 228.224 432.267 230.967Z" fill="#605D82"/>
<path opacity="0.1" d="M426.552 285.6C426.038 288.343 425.466 291.029 424.78 293.772C422.894 301.259 420.094 308.574 419.18 316.232C419.18 316.46 419.123 316.689 419.123 316.917C413.294 308.574 408.379 299.601 402.664 291.144C403.064 289.943 403.521 288.743 403.864 287.486C404.321 285.486 404.664 283.486 404.836 281.428C405.579 274.971 406.493 268.57 407.293 262.112L407.35 261.77C407.693 263.141 408.15 264.455 408.779 265.713C412.608 273.485 421.694 277.428 426.152 284.857C426.323 285.143 426.438 285.372 426.552 285.6Z" fill="black"/>
<path d="M379.177 217.194C379.348 223.423 380.377 229.595 381.349 235.767L383.406 248.511C384.549 255.483 385.692 262.57 389.006 268.799C391.464 273.485 395.007 277.428 398.207 281.6C406.094 291.887 412.037 303.545 419.523 314.117C421.695 317.203 424.838 320.518 428.496 319.889C430.953 319.489 432.725 317.432 434.61 315.889C436.896 314.06 439.582 312.688 441.354 310.402C443.126 308.117 443.468 304.23 441.068 302.573C440.211 302.116 439.297 301.716 438.325 301.43C434.61 300.002 432.153 296.344 430.667 292.687C429.181 289.029 428.21 285.029 426.153 281.6C421.695 274.171 412.609 270.227 408.78 262.455C406.608 258.112 406.437 253.083 406.265 248.225L405.865 235.824C405.808 234.453 405.808 233.081 406.322 231.824C407.808 228.509 412.208 228.224 415.809 227.824C419.866 227.366 423.81 226.109 427.41 224.166C429.467 223.08 431.467 221.652 432.61 219.537C433.639 217.651 433.753 215.423 433.868 213.308L435.125 190.849C435.239 188.906 435.353 186.906 434.668 185.134C432.953 180.562 427.238 179.134 422.381 179.305C413.351 179.705 405.008 183.591 396.493 186.22C394.378 186.906 392.264 187.42 390.092 187.877C388.206 188.277 385.863 188.106 384.035 188.734C380.777 189.82 380.891 196.907 380.434 199.821C379.463 205.593 379.006 211.422 379.177 217.194Z" fill="#605D82"/>
<path d="M427.295 320.86C428.096 321.66 428.324 322.861 428.553 323.946C429.696 330.118 430.324 336.347 430.324 342.634C430.267 343.205 430.381 343.834 430.667 344.348C430.896 344.634 431.181 344.92 431.524 345.034C433.81 346.12 436.496 344.577 438.382 342.919C441.925 339.833 444.954 335.605 445.126 330.918C445.068 329.718 445.126 328.461 445.24 327.261C445.526 325.489 446.611 323.946 447.526 322.403C449.069 319.775 450.326 316.917 451.24 314.003C451.583 312.917 451.812 311.545 450.955 310.745C450.669 310.517 450.326 310.345 449.926 310.231L439.525 306.402C438.611 306.059 436.382 311.831 436.039 312.46C435.182 314.003 434.325 314.86 432.553 315.203C430.781 315.546 428.667 315.031 427.01 315.946C424.324 317.431 425.695 319.26 427.295 320.86Z" fill="#535070"/>
<path d="M411.294 324.404C411.122 324.004 410.836 323.661 410.493 323.375C410.036 323.089 409.465 322.861 408.893 322.861C406.893 322.518 404.55 322.289 403.178 323.775C401.921 325.147 402.093 327.375 401.064 328.918C400.721 329.433 400.264 329.833 399.978 330.347C399.635 331.147 399.464 332.004 399.521 332.862C399.464 335.262 399.407 337.662 399.578 340.062C399.692 342.062 400.035 344.177 401.293 345.72C403.293 348.234 406.95 348.577 410.151 348.749L412.779 348.863C413.522 348.977 414.208 348.863 414.894 348.692C415.751 348.292 416.437 347.549 416.723 346.634C418.094 343.262 415.922 339.605 414.608 336.233C413.122 332.404 413.351 328.118 411.294 324.404Z" fill="#535070"/>
<path d="M389.693 75.9813C389.635 75.6384 389.692 75.2955 389.864 74.9526C390.264 74.2668 391.236 74.4383 391.978 74.6669C395.007 75.4098 398.208 74.724 401.294 74.8955C404.38 75.0669 407.923 76.6099 408.551 79.6959C410.837 78.0958 412.78 76.0956 414.323 73.8097C415.18 72.4953 415.923 71.0094 415.809 69.4664C415.638 67.2376 413.752 65.5803 412.037 64.1516L406.837 59.9227C406.151 59.2941 405.351 58.7797 404.494 58.4369C403.294 58.0368 401.979 58.2083 400.722 58.2083C396.95 58.2083 392.95 56.4938 389.578 58.2083C388.15 58.9512 387.121 60.1513 386.092 61.3514L381.463 66.8376C381.12 67.1805 380.835 67.6377 380.72 68.0949C380.606 68.7806 380.949 69.4093 381.063 70.095C381.292 71.2951 380.777 72.6095 381.177 73.8097C381.863 75.7527 384.206 76.0384 385.692 77.1814C386.206 77.5814 387.064 79.0101 387.749 79.0101C388.835 78.953 389.635 76.8956 389.693 75.9813Z" fill="#3F3D56"/>
<path d="M397.521 92.0973C405.696 92.0973 412.322 85.4705 412.322 77.2959C412.322 69.1214 405.696 62.4946 397.521 62.4946C389.346 62.4946 382.72 69.1214 382.72 77.2959C382.72 85.4705 389.346 92.0973 397.521 92.0973Z" fill="#FFD3B3"/>
<path d="M401.007 109.756C399.978 106.784 397.121 104.841 394.035 104.955C393.578 105.012 393.121 104.955 392.721 104.784C392.492 104.612 392.321 104.384 392.206 104.098C391.292 102.498 390.606 100.783 390.035 99.0119C389.806 98.2118 389.463 97.2975 388.663 97.126C387.977 97.0117 387.349 97.3546 386.949 97.8689C386.549 98.3833 386.149 98.9548 385.691 99.4119C383.805 101.069 380.548 99.5834 378.548 101.069C378.205 101.298 377.976 101.641 377.633 101.869C377.291 102.098 376.948 102.212 376.548 102.326C372.719 103.584 369.004 105.012 365.347 106.727C366.661 114.67 368.033 122.728 371.119 130.158C372.604 133.701 374.262 137.13 375.405 140.787C378.034 148.845 378.148 157.474 378.148 165.932C378.148 171.704 378.148 177.647 376.262 183.134C375.748 184.334 375.405 185.591 375.176 186.905C375.062 188.22 375.462 189.649 376.491 190.449C377.119 190.849 377.805 191.077 378.548 191.192C381.805 191.649 385.063 190.792 388.263 190.049C396.835 188.048 405.579 186.905 414.322 185.82L428.952 183.934C429.981 183.877 431.01 183.591 431.981 183.134C434.667 181.648 434.896 177.647 433.238 175.076C432.438 173.876 431.295 172.847 430.667 171.533C430.038 170.218 429.924 168.39 431.067 167.532C433.41 165.704 432.724 162.275 432.838 159.303C433.124 150.959 433.124 142.673 432.724 134.329C432.61 132.615 432.553 130.9 432.667 129.129C432.953 126.214 433.467 123.3 434.267 120.5L438.725 103.012C437.582 101.184 435.353 100.041 433.238 99.4691C431.124 98.8976 428.952 98.7833 426.838 98.1547C422.609 96.8403 418.78 93.4686 414.38 93.8114C414.037 93.8114 413.694 93.9257 413.408 94.04C412.379 94.6115 412.551 96.0402 412.494 97.1832C412.379 99.6977 410.494 101.869 408.436 103.355C406.379 104.841 404.036 105.927 402.093 107.641C401.464 108.098 401.064 108.899 401.007 109.756Z" fill="#3F3D56"/>
<path d="M342.316 126.329C341.345 126.957 340.316 127.529 339.173 127.929C338.087 128.272 337.116 128.729 336.201 129.357C335.801 129.7 335.458 130.158 335.173 130.615C333.63 133.358 334.601 136.844 337.344 138.387C338.259 138.901 339.344 139.187 340.43 139.13C341.802 138.958 343.116 138.558 344.316 137.987L354.774 133.472C356.546 132.729 358.432 131.815 359.289 130.043C359.403 129.872 359.403 129.7 359.403 129.529C359.346 129.357 359.175 129.186 358.946 129.072C356.603 127.529 354.546 125.586 352.889 123.357C352.431 122.785 351.917 121.414 351.346 121.071C349.06 119.757 344.088 125.186 342.316 126.329Z" fill="#FFD3B3"/>
<path d="M454.041 122.614L457.87 127.015C458.67 127.986 459.527 128.901 460.27 129.929C462.099 132.501 463.585 135.301 464.67 138.216C465.528 140.387 466.213 142.73 465.928 145.073C465.756 146.274 465.413 147.416 464.956 148.559C464.27 150.731 463.356 152.846 462.327 154.846C461.47 156.389 460.499 157.875 459.356 159.246C456.384 163.189 453.126 166.961 449.583 170.447C448.269 171.761 447.697 173.876 447.126 175.648C446.04 178.905 443.526 181.419 441.125 183.82C440.325 184.62 439.468 185.363 438.554 186.048C437.182 186.963 435.525 187.42 433.868 187.363C433.125 187.363 432.439 187.191 431.753 186.906C430.096 186.106 429.239 184.163 429.067 182.334C428.896 180.677 429.181 178.962 429.867 177.476C432.096 172.562 437.754 170.447 441.754 166.904C444.097 164.789 445.926 162.161 447.697 159.589C448.898 157.989 449.926 156.217 450.669 154.331C451.583 151.931 451.241 149.131 451.984 146.674C452.326 145.645 452.898 144.731 453.241 143.702C453.584 142.673 453.698 141.473 453.069 140.616C452.612 140.044 451.984 139.644 451.298 139.359C448.726 138.044 445.869 136.387 445.354 133.53C445.183 131.987 445.583 130.386 446.497 129.072C447.412 127.815 448.497 126.672 449.755 125.7C451.012 124.729 452.898 123.643 454.041 122.614Z" fill="#FFD3B3"/>
<path d="M339.802 132.501C339.116 131.129 338.259 129.7 336.888 129.015C335.516 128.443 334.03 128.443 332.659 129.015C331.344 129.586 330.087 130.329 328.944 131.243L325.629 133.701C324.887 134.215 324.201 134.786 323.629 135.529C323.115 136.387 322.772 137.358 322.601 138.33C322.029 140.616 321.858 142.959 322.086 145.302C322.601 149.073 324.887 152.331 327.344 155.188C328.887 156.96 330.83 158.789 333.173 158.846C334.202 158.903 335.345 158.503 335.745 157.531C335.916 157.188 335.973 156.788 335.973 156.388C336.202 152.217 334.716 148.102 333.002 144.33C332.43 143.359 332.144 142.216 332.03 141.073C332.03 140.901 332.087 140.673 332.144 140.501C332.316 140.33 332.487 140.273 332.716 140.216C335.116 139.758 339.231 141.587 340.888 138.958C342.088 137.244 340.602 134.044 339.802 132.501Z" fill="#FFD3B3"/>
<path d="M388.892 71.2952C388.835 70.9524 388.892 70.6095 389.063 70.2666C389.463 69.5808 390.435 69.7522 391.178 69.9808C394.206 70.7238 397.407 70.038 400.493 70.2094C403.579 70.3809 407.122 71.9239 407.751 75.0099C410.036 73.4097 411.979 71.4095 413.522 69.1236C414.38 67.8092 415.123 66.3234 415.008 64.7804C414.837 62.5516 412.951 60.8943 411.237 59.4656L406.036 55.2367C405.35 54.608 404.55 54.0937 403.693 53.7508C402.493 53.3508 401.179 53.5222 399.921 53.5222C396.15 53.5222 392.149 51.8078 388.777 53.5222C387.349 54.2652 386.32 55.4653 385.291 56.6654L380.662 62.1516C380.32 62.4945 380.034 62.9516 379.919 63.4088C379.805 64.0946 380.148 64.7232 380.262 65.409C380.491 66.6091 379.977 67.9235 380.377 69.1236C381.062 71.0666 383.406 71.3524 384.891 72.4953C385.406 72.8954 386.263 74.3241 386.949 74.3241C388.092 74.2669 388.892 72.2096 388.892 71.2952Z" fill="#3F3D56"/>
<path d="M357.46 111.927C356.889 112.327 356.317 112.785 355.917 113.356C355.346 114.156 355.289 115.242 354.774 116.099C353.803 117.928 351.46 118.614 349.974 120.157C349.745 120.385 349.574 120.614 349.517 120.957C349.517 121.357 349.631 121.757 349.917 122.1L356.946 133.129C359.289 133.358 361.518 131.872 363.861 132.043C364.718 132.101 365.632 132.444 366.49 132.158C367.061 131.872 367.633 131.529 368.147 131.129C369.518 130.272 371.404 130.158 372.547 128.957C373.69 127.815 373.804 126.1 373.804 124.5C373.804 123.128 373.69 121.757 373.404 120.385C372.376 116.156 369.118 112.899 367.118 109.127C366.147 107.298 365.575 106.213 363.518 107.47C361.346 108.784 359.403 110.499 357.46 111.927Z" fill="#3F3D56"/>
<path d="M442.782 106.327C444.096 107.184 445.296 108.213 446.325 109.413C447.411 110.784 447.982 112.499 449.011 113.87C449.983 115.242 451.354 116.328 452.497 117.585C454.211 119.471 455.354 121.814 456.497 124.157C453.697 127.814 450.668 131.243 447.411 134.443C447.068 134.843 446.554 135.186 446.039 135.358C445.296 135.415 444.553 135.129 444.096 134.558C443.582 134.043 443.239 133.358 442.725 132.843C441.582 131.643 440.039 130.957 438.439 130.786C436.839 130.614 435.181 130.614 433.581 130.729C433.238 130.786 432.838 130.729 432.552 130.557C432.324 130.386 432.095 130.157 431.981 129.929C430.095 126.671 430.667 122.614 431.352 118.956L432.895 110.498C433.124 108.898 433.524 107.298 434.153 105.812C434.724 104.555 436.038 102.441 437.639 102.841C439.296 103.012 441.41 105.355 442.782 106.327Z" fill="#3F3D56"/>
<path d="M160.871 162.046C173.811 162.046 184.302 151.53 184.302 138.558C184.302 125.586 173.811 115.07 160.871 115.07C147.931 115.07 137.44 125.586 137.44 138.558C137.44 151.53 147.931 162.046 160.871 162.046Z" fill="white"/>
<path d="M160.872 111.07C145.385 111.07 132.869 123.586 132.869 139.073C132.869 154.56 145.385 167.075 160.872 167.075C176.359 167.075 188.874 154.56 188.874 139.073C188.817 123.643 176.302 111.127 160.872 111.07ZM155.1 153.988L140.756 139.644L144.756 135.644L155.1 145.988L176.93 124.157L180.931 128.158L155.1 153.988Z" fill="#57B894"/>
</svg>
