<svg viewBox="0 0 225.95 54.29" xmlns="http://www.w3.org/2000/svg"><g fill="#005cb9"><path d="m33 36.73c.64 0 .56-.36.56-1v-3.3c0-.68-.06-.9.33-.9 1.36 0 1.73-.13 1.73-1.33v-12.31c0-3.34-2.36-2.79-3-4-.95-1.65 1.76-1.65.78-5.23a1.91 1.91 0 0 0 -2.11-1.31 1.91 1.91 0 0 0 -2.11 1.31c-1 3.58 1.73 3.58.78 5.23-.67 1.22-3 .67-3 4v12.27c0 1.21.36 1.33 1.73 1.33.38 0 .32.22.32.9v3.3c0 .68-.08 1 .56 1h3.43"/><path d="m22.29 10.12c-1.21 1.28-3.11 4.28-1.87 6.77 2.53 1 2.34-8 5.49-7.86 1.56 1.44-.47 5.69-1.09 7.55-.78 2.3-1.4 7.13-2.88 9.46-1.24 1.95-.31 8.06-.7 10.16-1 1-3.89.31-5.1.11 0-2.41-.31-4.32-.7-8.17 0-.78-.86-12.69-.2-14.13 1.36-3 8.8-8.72 9.81-9.81s4.05-4.2 5.26-4.2c.85.59.35 1.95.16 2.49-1.21 3-6.42 6-8.18 7.63"/><path d="m40.43 10.12c1.16 1.28 3.08 4.28 1.87 6.77-2.57 1-2.37-8-5.53-7.86-1.51 1.44.51 5.69 1.13 7.55.78 2.3 1.4 7.13 2.88 9.46 1.21 1.95.31 8.06.66 10.16 1.09 1 3.89.31 5.14.11a81.5 81.5 0 0 1 .66-8.17c.08-.78.9-12.69.23-14.13-1.36-3-8.8-8.72-9.81-9.81s-4.05-4.2-5.25-4.2c-.89.59-.35 1.95-.15 2.49 1.21 3 6.42 6 8.18 7.63"/><path d="m11.48 6.08c-.66.63-2.15 1.05-3.16 2.41-.39-.74.62-2.53 1.83-3.58a15 15 0 0 1 3.15-2.07c.39.9-1 2.26-1.83 3.24"/><path d="m9.41 11c-1.13 1-2.34 1.48-3.9 3.39a11.54 11.54 0 0 1 -.2-5.7c.55-1.79 1.44-3.78 3-4.4a16.78 16.78 0 0 0 -.94 4.33c-.66 2.61-1.05 2.69-.9 3 .15 0 1-1.37 2.07-2.42 1.22-1.2 2.78-1.52 3.79-2.26a13.17 13.17 0 0 1 -2.92 4"/><path d="m3.91 21.76a14.13 14.13 0 0 1 -1.8-7c.08-1.6.86-5.3 2-5.85-.35 3.35.55 3.66.19 6.43 0 .16-.39 3-.39 3.2.47-.08 0-2.65 5.38-6.36-1.16 2-.62 2.65-2.73 5.34a9.64 9.64 0 0 0 -2.68 4.25"/><path d="m6.06 24.34a7.51 7.51 0 0 0 -1.21 3.23c-2.7-1.57-5.74-7.75-4.61-10.84.7 2.34 1.68 2.84 2.38 4.8 1.21 2.93 1 3.82 1.79 4.48a10.85 10.85 0 0 1 .86-4.64 27.6 27.6 0 0 1 1.87-3.12c.58 2.15.15 3.9-1.09 6.09"/><path d="m8.48 29.64a33.79 33.79 0 0 1 -.63 5.18c-4.64-1.51-7.06-6.82-7.06-9.43 1.41 3.2 3.47 3.16 6.21 7.68.23-1.72-.47-.43-.55-3.67.08-3.39.78-3.51.89-5.62.86.93 1.17 4.68 1.17 5.85"/><path d="m12.33 36.39c.35 1.75.51 3.82.78 5.35-2.65-1-3.32-.23-6.47-2.23-1.45-.78-4-4.05-3.86-6.4 3.12 3.47 3.67 3.08 5.22 4.37 1.4 1.13 2.53 2.81 3.55 2.58.07-.94-2.3-3-2-8.81a16.26 16.26 0 0 1 2.81 5.15"/><path d="m17.6 40.76c.82 1.17.63 1.67 2.73 4.09a23.07 23.07 0 0 1 -5.51 1.09c-1.32 0-6-1.25-7.56-4.45 2.74 1.45 2.74 1.1 6.32 1.88 2.58.59 4.41 1.4 5.11 1.33-.16-.35-2.14-1.17-3.51-2.89s-1.05-3.9-2.27-5.42c.82-.23 4 3.51 4.68 4.37"/><path d="m51 6.08c.62.63 2.15 1.05 3.12 2.41.43-.74-.62-2.53-1.83-3.58a13 13 0 0 0 -3.16-2.07c-.39.9 1 2.26 1.87 3.24"/><path d="m53.09 11c1.09 1 2.3 1.48 3.86 3.39a11.54 11.54 0 0 0 .2-5.7c-.51-1.79-1.45-3.78-3-4.4a15.3 15.3 0 0 1 .94 4.33c.66 2.61 1.05 2.69.9 3-.15 0-1-1.37-2.07-2.42-1.18-1.2-2.75-1.52-3.79-2.26a13.82 13.82 0 0 0 3 4"/><path d="m58.55 21.76a13.78 13.78 0 0 0 1.79-7c-.08-1.6-.86-5.3-2-5.85.31 3.35-.59 3.66-.2 6.43 0 .16.35 3 .35 3.2-.43-.08 0-2.65-5.34-6.36 1.13 2 .58 2.65 2.69 5.34a9.22 9.22 0 0 1 2.69 4.25"/><path d="m56.44 24.34a7.83 7.83 0 0 1 1.17 3.23c2.69-1.56 5.77-7.76 4.6-10.84-.66 2.34-1.68 2.84-2.34 4.8-1.25 2.93-1.06 3.82-1.79 4.48a11 11 0 0 0 -.9-4.64 22.78 22.78 0 0 0 -1.87-3.12 7.45 7.45 0 0 0 1.13 6.09"/><path d="m54 29.64a32.73 32.73 0 0 0 .66 5.18c4.6-1.52 7.06-6.82 7.06-9.44-1.45 3.2-3.47 3.16-6.2 7.68-.23-1.72.46-.43.54-3.67-.08-3.39-.78-3.51-.9-5.62-.85.93-1.17 4.68-1.17 5.85"/><path d="m50.13 36.39c-.35 1.75-.47 3.82-.74 5.35 2.61-1 3.28-.23 6.43-2.23 1.44-.78 4.06-4.05 3.9-6.4-3.12 3.47-3.7 3.09-5.18 4.37-1.41 1.13-2.58 2.81-3.59 2.58-.08-.94 2.3-3 2-8.81a15.46 15.46 0 0 0 -2.85 5.15"/><path d="m44.86 40.76a17.14 17.14 0 0 1 -2.73 4.09 23.42 23.42 0 0 0 5.54 1.09c1.29 0 6-1.25 7.52-4.45-2.68 1.44-2.73 1.09-6.31 1.87-2.58.59-4.37 1.4-5.11 1.33.15-.35 2.18-1.17 3.51-2.89s1.05-3.9 2.3-5.42c-.85-.23-4.05 3.51-4.72 4.37"/><path d="m24.58 51.75-.78-.39a17.13 17.13 0 0 1 13.46-5.58c8.5.47 7.92 2.46 12.48 2.14.51 0-.39.63-.39.63a15.77 15.77 0 0 1 -9.95-.16c-5.46-1.87-9-3-14.82 3.35"/><path d="m38 51.75.79-.39a17 17 0 0 0 -13.39-5.57c-8.54.47-8 2.46-12.52 2.14-.51 0 .39.63.39.63a15.76 15.76 0 0 0 9.94-.16c5.5-1.87 9-3 14.82 3.35"/><path d="m98.31 25.45c0 8.15-4.4 12.06-13.37 12.06s-13.42-3.91-13.42-12.06v-18h9.05v16c0 3 0 6.75 4.4 6.75s4.28-3.75 4.28-6.75v-16h9.05v18"/><path d="m103.74 7.43h9.26l8.56 15.72h.08v-15.72h8.55v29.38h-8.8l-9.01-16.05h-.08v16.05h-8.56z"/><path d="m135.75 7.43h9.06v10.21h8.47v-10.21h9.06v29.38h-9.06v-11.64h-8.47v11.64h-9.06z"/><path d="m185.5 18.38a4.71 4.71 0 0 0 -4.73-4.32c-4.24 0-5.59 4.11-5.59 8.06s1.36 8.07 5.59 8.07c3 0 4.24-2.14 4.78-4.9h8.89c0 5.92-4.81 12.22-13.41 12.22-9.5 0-14.9-6.71-14.9-15.39 0-9.26 5.84-15.39 14.9-15.39 8.06 0 12.51 4.28 13.29 11.65h-8.8"/><path d="m207.27 14.42h4.24c3.46 0 4.49 1.07 4.49 2.92 0 2.63-2.31 2.92-4 2.92h-4.73zm-9.05 22.39h9.05v-10.24h4.82c3.58 0 3.82 2.92 4.07 5.72a20.87 20.87 0 0 0 .74 4.52h9.1c-.83-1.36-.86-4.85-1-6.29-.33-3.66-1.85-6.38-4.32-7.33 3-1.11 4.4-4.32 4.4-7.36 0-5.56-4.45-8.39-9.59-8.39h-17.28v29.37"/><path d="m74.46 43.56h-2.95v-1.82h8.07v1.82h-2.95v8.03h-2.17z"/><path d="m80.25 41.74h2v3.71a2.51 2.51 0 0 1 2.08-1.18c2.08 0 2.61 1.17 2.61 2.94v4.38h-1.94v-4c0-1.17-.34-1.75-1.25-1.75-1.06 0-1.52.59-1.52 2v3.74h-2v-9.84"/><path d="m89.74 48.5c.06 1.24.66 1.81 1.75 1.81a1.61 1.61 0 0 0 1.51-.93h1.72a3.21 3.21 0 0 1 -3.34 2.4 3.48 3.48 0 0 1 -3.6-3.78 3.58 3.58 0 0 1 3.64-3.76c2.43 0 3.6 2 3.46 4.23zm3.18-1.24c-.18-1-.61-1.52-1.56-1.52a1.54 1.54 0 0 0 -1.63 1.52h3.18"/><path d="m107.6 47.87c0 2.66-1.57 4-4.2 4s-4.19-1.28-4.19-4v-6.13h2.16v6.12c0 1.08.28 2.14 2 2.14 1.54 0 2-.68 2-2.14v-6.12h2.16v6.12"/><path d="m109.04 41.74h2.15l4.11 6.61h.03v-6.61h2.03v9.85h-2.17l-4.09-6.59h-.03v6.59h-2.03z"/><path d="m124.24 43.43h2.37c1 0 1.49.41 1.49 1.36s-.53 1.41-1.49 1.41h-2.37zm-2.16 8.16h2.16v-3.85h2.16c1.09 0 1.49.46 1.64 1.49a10.88 10.88 0 0 0 .34 2.36h2.16a5.39 5.39 0 0 1 -.41-2.33c-.07-1-.37-2-1.43-2.3a2.42 2.42 0 0 0 1.56-2.47 2.7 2.7 0 0 0 -2.88-2.72h-5.31v9.84"/><path d="m133.19 47.26a1.54 1.54 0 0 1 1.63-1.52c1 0 1.38.52 1.56 1.52zm5.14 1.24c.14-2.19-1-4.23-3.46-4.23a3.57 3.57 0 0 0 -3.64 3.73 3.48 3.48 0 0 0 3.64 3.75 3.21 3.21 0 0 0 3.34-2.4h-1.72a1.61 1.61 0 0 1 -1.54.92c-1.09 0-1.7-.56-1.75-1.81h5.14"/><path d="m139.62 45.77h-1.17v-1.31h1.17v-.55a2.09 2.09 0 0 1 2.38-2.17c.34 0 .7 0 1 .06v1.46a5.93 5.93 0 0 0 -.72 0c-.52 0-.74.22-.74.81v.43h1.35v1.31h-1.35v5.82h-2v-5.86"/><path d="m150.22 51.59h-1.86v-1a2.55 2.55 0 0 1 -2.18 1.19c-2.08 0-2.61-1.17-2.61-2.94v-4.38h2v4c0 1.17.34 1.75 1.25 1.75 1.06 0 1.52-.59 1.52-2v-3.75h2v7.13"/><path d="m154.73 49.91c-1.2 0-1.58-1.12-1.58-2.14s.48-2 1.58-2c1.27 0 1.67 1 1.67 2.19a1.75 1.75 0 0 1 -1.67 2m3.53-5.45h-1.86v1a2.22 2.22 0 0 0 -2.12-1.14c-2 0-3.06 1.68-3.06 3.53s.91 3.59 3 3.59a2.41 2.41 0 0 0 2.14-1.1v.94c0 1-.48 1.76-1.57 1.76a1.33 1.33 0 0 1 -1.46-1h-1.94c.09 1.63 1.74 2.29 3.14 2.29 3.28 0 3.69-2 3.69-3.16v-6.76"/><path d="m161.2 47.26a1.54 1.54 0 0 1 1.63-1.52c1 0 1.38.52 1.56 1.52zm5.14 1.24c.14-2.19-1-4.23-3.46-4.23a3.57 3.57 0 0 0 -3.64 3.73 3.48 3.48 0 0 0 3.64 3.75 3.21 3.21 0 0 0 3.34-2.4h-1.72a1.61 1.61 0 0 1 -1.54.92c-1.09 0-1.7-.56-1.75-1.81h5.14"/><path d="m168.86 47.26a1.54 1.54 0 0 1 1.63-1.52c1 0 1.38.52 1.56 1.52zm5.14 1.24c.14-2.19-1-4.23-3.46-4.23a3.57 3.57 0 0 0 -3.64 3.73 3.48 3.48 0 0 0 3.64 3.75 3.21 3.21 0 0 0 3.34-2.4h-1.72a1.61 1.61 0 0 1 -1.55.92c-1.09 0-1.69-.56-1.75-1.81h5.14"/><path d="m183 44.17 1.24 3.61h-2.55zm-4.81 7.42h2.19l.77-2.19h3.68l.74 2.19h2.25l-3.68-9.84h-2.22z"/><path d="m191.46 49.91c-1.2 0-1.59-1.12-1.59-2.14s.48-2 1.59-2c1.27 0 1.67 1 1.67 2.19a1.76 1.76 0 0 1 -1.67 2m3.54-5.5h-1.86v1a2.22 2.22 0 0 0 -2.14-1.19c-2 0-3.06 1.68-3.06 3.53s.91 3.59 3 3.59a2.41 2.41 0 0 0 2.14-1.1v.94c0 1-.48 1.76-1.57 1.76a1.33 1.33 0 0 1 -1.46-1h-1.94c.1 1.63 1.74 2.29 3.14 2.29 3.28 0 3.7-2 3.7-3.16v-6.66"/><path d="m197.92 47.26a1.54 1.54 0 0 1 1.63-1.52c1 0 1.38.52 1.56 1.52zm5.14 1.24c.14-2.19-1-4.23-3.46-4.23a3.57 3.57 0 0 0 -3.6 3.73 3.48 3.48 0 0 0 3.64 3.75 3.2 3.2 0 0 0 3.33-2.4h-1.72a1.61 1.61 0 0 1 -1.55.92c-1.09 0-1.7-.56-1.75-1.81h5.14"/><path d="m203.92 44.46h1.86v1a2.54 2.54 0 0 1 2.22-1.19c2.08 0 2.61 1.17 2.61 2.94v4.38h-2v-4c0-1.17-.34-1.75-1.25-1.75-1.06 0-1.52.59-1.52 2v3.74h-2v-7.12"/><path d="m216.65 47a1.33 1.33 0 0 0 -1.45-1.23c-1.25 0-1.67 1.27-1.67 2.31s.4 2.25 1.63 2.25a1.51 1.51 0 0 0 1.56-1.45h1.89a3.19 3.19 0 0 1 -3.43 2.92 3.46 3.46 0 0 1 -3.6-3.65 3.53 3.53 0 0 1 3.64-3.86c1.68 0 3.23.88 3.35 2.7h-1.92"/><path d="m223 52.48a2.24 2.24 0 0 1 -2.45 1.61 11.79 11.79 0 0 1 -1.2-.07v-1.6a9.81 9.81 0 0 0 1.15.07.92.92 0 0 0 .67-1.34l-2.51-6.69h2.1l1.61 4.88 1.56-4.88h2l-3 8"/></g></svg>