<svg width="160" height="160" viewBox="0 0 160 160" fill="none" xmlns="http://www.w3.org/2000/svg">
<circle cx="80" cy="80" r="80" fill="white"/>
<path d="M67.0327 111.067H91.4077V132.498H67.0327V111.067Z" fill="#28AEE4"/>
<path d="M79.1797 111.067H91.4078V132.498H79.1797V111.067Z" fill="#437AC2"/>
<path d="M36.3406 41.2664H122.059V72.9012H36.3406V41.2664Z" fill="#197398"/>
<path d="M79.1797 41.2664H122.059V72.9012H79.1797V41.2664Z" fill="#07485E"/>
<path d="M62.4219 28H95.9781V60.6555H62.4219V28Z" fill="#FC611F"/>
<path d="M79.1797 28H95.9781V60.6555H79.1797V28Z" fill="#E34E10"/>
<path d="M85.5578 38.6129H82.2672V35.2861H76.1734V38.6129H72.8828V44.7359H76.1734V48.0422H82.2672V44.7359H85.5578V38.6129Z" fill="#FFF5F5"/>
<path d="M103.778 66.7783H131.2V132.497H103.778V66.7783Z" fill="#E1EBF0"/>
<path d="M103.778 66.7783H131.2V132.497H103.778V66.7783Z" fill="#B4D2D7"/>
<path d="M27.2 66.7783H54.6218V132.497H27.2V66.7783Z" fill="#E1EBF0"/>
<path d="M34.8171 79.0242H40.9109V88.6781H34.8171V79.0242Z" fill="#28AEE4"/>
<path d="M34.8171 94.8008H40.9109V104.455H34.8171V94.8008Z" fill="#28AEE4"/>
<path d="M34.8171 110.578H40.9109V120.252H34.8171V110.578Z" fill="#28AEE4"/>
<path d="M117.489 79.0242H123.583V88.6781H117.489V79.0242Z" fill="#5ECEF4"/>
<path d="M117.489 94.8008H123.583V104.455H117.489V94.8008Z" fill="#5ECEF4"/>
<path d="M117.489 110.578H123.583V120.252H117.489V110.578Z" fill="#5ECEF4"/>
<path d="M48.5281 54.5327V132.498H70.0796V114.129H88.3609V132.498H109.872V54.5327H48.5281Z" fill="#FFF5F5"/>
<path d="M79.1797 54.5327V114.129H88.3609V132.498H109.872V54.5327H79.1797Z" fill="#E1EBF0"/>
<path d="M63.9858 108.006V132.497H70.0796V114.129H76.1733V132.497H82.2671V114.129H88.3608V132.497H94.4546V108.006H63.9858Z" fill="#197398"/>
<path d="M60.1467 93.7192H98.2936V99.842H60.1467V93.7192Z" fill="#28AEE4"/>
<path d="M60.1467 81.4734H98.2936V87.5963H60.1467V81.4734Z" fill="#28AEE4"/>
<path d="M60.1467 69.2073H98.2936V75.3302H60.1467V69.2073Z" fill="#28AEE4"/>
<path d="M117.489 79.0242H123.583V88.6781H117.489V79.0242Z" fill="#437AC2"/>
<path d="M117.489 94.8008H123.583V104.455H117.489V94.8008Z" fill="#437AC2"/>
<path d="M117.489 110.578H123.583V120.252H117.489V110.578Z" fill="#437AC2"/>
<path d="M82.2672 44.7359H85.5578V38.6129H82.2672V35.2861H79.1797V48.0422H82.2672V44.7359Z" fill="#E1EBF0"/>
<path d="M79.1797 108.006V132.497H82.2672V114.129H88.3609V132.497H94.4547V108.006H79.1797Z" fill="#07485E"/>
<path d="M79.1797 93.7192H98.2937V99.8422H79.1797V93.7192Z" fill="#437AC2"/>
<path d="M79.1797 81.4731H98.2937V87.5961H79.1797V81.4731Z" fill="#437AC2"/>
<path d="M79.1797 69.2073H98.2937V75.3302H79.1797V69.2073Z" fill="#437AC2"/>
</svg>
