<svg width="160" height="160" viewBox="0 0 160 160" fill="none" xmlns="http://www.w3.org/2000/svg">
<circle cx="80" cy="80" r="80" fill="white"/>
<path d="M97.5845 37.1846H36.647V123.313H97.5845V37.1846Z" fill="#E1EBF0"/>
<path d="M88.5048 34.123H41.0345L33.6001 40.2459V120.252L40.9126 126.375H90.3329L100.631 120.252V40.2459L88.5048 34.123ZM94.5376 120.252H39.6938V40.2459H94.5376V120.252Z" fill="#197398"/>
<path d="M97.5845 37.1846H67.1157V123.313H97.5845V37.1846Z" fill="#B4D2D7"/>
<path d="M100.631 40.2459V120.252L90.3329 126.375H67.1157V120.252H94.5376V40.2459H67.1157V34.123H88.5048L100.631 40.2459Z" fill="#07485E"/>
<path d="M33.6001 120.252V122.293C33.6001 127.926 38.1501 132.498 43.7563 132.498H90.4751C96.0814 132.498 100.631 127.926 100.631 122.293V120.252H33.6001Z" fill="#197398"/>
<path d="M33.6001 38.2049V40.2458H100.631V38.2049C100.631 32.5718 96.0813 28 90.4751 28H43.7563C38.1501 28 33.6001 32.5718 33.6001 38.2049Z" fill="#197398"/>
<path d="M67.1157 28.0002H90.4751C96.0813 28.0002 100.631 32.572 100.631 38.2051V40.2461H67.1157V28.0002Z" fill="#07485E"/>
<path d="M67.1157 120.252H100.631V122.293C100.631 127.926 96.0813 132.498 90.4751 132.498H67.1157V120.252Z" fill="#07485E"/>
<path d="M125.006 52.6958V101.679H57.9751V52.6958L91.4907 58.9412L100.997 60.7168L125.006 52.6958Z" fill="#FFF5F5"/>
<path d="M125.006 52.696V101.679H91.4907V58.9414L100.997 60.7171L125.006 52.696Z" fill="#E1EBF0"/>
<path d="M87.2483 67.9472L71.0613 84.2117L75.3702 88.5412L91.5572 72.2767L87.2483 67.9472Z" fill="#B4D2D7"/>
<path d="M97.4568 69.6615L93.1479 73.991L107.626 88.5381L111.935 84.2086L97.4568 69.6615Z" fill="#B4D2D7"/>
<path d="M57.9751 52.6958L91.4907 84.1676L125.006 52.6958H57.9751Z" fill="#FC611F"/>
<path d="M125.006 52.6958L91.4907 84.1676V52.6958H125.006Z" fill="#E34E10"/>
</svg>
