<svg width="100" height="100" viewBox="0 0 100 100" fill="none" xmlns="http://www.w3.org/2000/svg">
<circle cx="50" cy="50" r="50" fill="#C5E8F7"/>
<path d="M60.9902 22.7378H22.9043V76.545H60.9902V22.7378Z" fill="#E1EBF0"/>
<path d="M55.3154 20.8252H25.6465L21 24.6503V74.6324L25.5703 78.4575H56.458L62.8945 74.6324V24.6503L55.3154 20.8252ZM59.0859 74.6324H24.8086V24.6503H59.0859V74.6324Z" fill="#197398"/>
<path d="M60.9902 22.7378H41.9473V76.545H60.9902V22.7378Z" fill="#B4D2D7"/>
<path d="M62.8945 24.6503V74.6324L56.458 78.4575H41.9473V74.6324H59.0859V24.6503H41.9473V20.8252H55.3154L62.8945 24.6503Z" fill="#07485E"/>
<path d="M21 74.6323V75.9074C21 79.4265 23.8438 82.2827 27.3477 82.2827H56.5469C60.0508 82.2827 62.8945 79.4265 62.8945 75.9074V74.6323H21Z" fill="#197398"/>
<path d="M21 23.3752V24.6503H62.8945V23.3752C62.8945 19.8561 60.0508 17 56.5469 17H27.3477C23.8438 17 21 19.8561 21 23.3752Z" fill="#197398"/>
<path d="M41.9473 17H56.5469C60.0508 17 62.8945 19.8561 62.8945 23.3752V24.6503H41.9473V17Z" fill="#07485E"/>
<path d="M41.9473 74.6323H62.8945V75.9074C62.8945 79.4265 60.0508 82.2827 56.5469 82.2827H41.9473V74.6323Z" fill="#07485E"/>
<path d="M78.1289 32.4282V63.0295H36.2344V32.4282L57.1816 36.3299L63.123 37.4392L78.1289 32.4282Z" fill="#FFF5F5"/>
<path d="M78.1289 32.4282V63.0295H57.1816V36.3299L63.123 37.4392L78.1289 32.4282Z" fill="#E1EBF0"/>
<path d="M54.53 41.9563L44.4131 52.1172L47.1061 54.8219L57.2231 44.6611L54.53 41.9563Z" fill="#B4D2D7"/>
<path d="M60.9103 43.0272L58.2173 45.7319L67.266 54.82L69.959 52.1152L60.9103 43.0272Z" fill="#B4D2D7"/>
<path d="M36.2344 32.4282L57.1816 52.0895L78.1289 32.4282H36.2344Z" fill="#FC611F"/>
<path d="M78.1289 32.4282L57.1816 52.0895V32.4282H78.1289Z" fill="#E34E10"/>
</svg>
