<svg width="131" height="40" viewBox="0 0 131 40" fill="none" xmlns="http://www.w3.org/2000/svg">
<path d="M67.2273 11.7587V0.0654297H74.7745V2.17087H69.4623V4.95653H73.7056V7.02957H69.4623V11.7587" fill="white"/>
<path d="M78.5975 11.9188C77.6258 11.9188 76.8808 11.6273 76.3301 11.0119C75.8119 10.4288 75.5527 9.52188 75.5527 8.3234V3.30273H77.723V8.09666C77.723 8.6797 77.8201 9.16557 78.0469 9.52188C78.2412 9.87818 78.6299 10.0725 79.1482 10.0725C79.5693 10.0725 79.9256 9.97536 80.2171 9.8134C80.5086 9.65144 80.7354 9.48949 80.9297 9.32753V3.30273H83.0999V11.7569H81.0917L81.0269 11.0767C80.6382 11.4006 80.2495 11.6273 79.8284 11.7569C79.4073 11.8864 78.9862 11.9188 78.5975 11.9188Z" fill="white"/>
<path d="M85.2363 11.7574V3.30323H87.2122L87.3094 3.98345C87.6333 3.69193 88.022 3.49758 88.4431 3.33563C88.8642 3.17367 89.2852 3.10889 89.7387 3.10889C90.4189 3.10889 91.002 3.27084 91.4879 3.56237C91.9737 3.85389 92.2976 4.30737 92.492 4.89041C92.6863 5.47346 92.7835 6.08889 92.7835 6.76911V11.7574H90.6133V6.93107C90.6133 6.28324 90.4837 5.79737 90.2246 5.44107C89.9655 5.08476 89.5768 4.9228 89.0909 4.9228C88.767 4.9228 88.4431 5.01998 88.1516 5.18193C87.86 5.34389 87.6333 5.53824 87.4065 5.76498V11.7574" fill="white"/>
<path d="M98.4521 10.1068C98.7112 10.1068 99.0027 10.042 99.2619 9.88002C99.5534 9.71806 99.7477 9.5561 99.8449 9.36175V5.18327C99.4238 5.02131 99.0351 4.92414 98.6788 4.92414C98.1606 4.92414 97.7071 5.08609 97.3508 5.37761C96.9945 5.66914 96.7677 6.02544 96.6705 6.38175C96.5734 6.77044 96.5086 7.09436 96.5086 7.41827C96.5086 7.77458 96.541 8.09849 96.6382 8.4224C96.7029 8.74632 96.8325 9.03784 96.9945 9.26458C97.1564 9.49132 97.3508 9.68567 97.5775 9.84762C97.8366 10.0096 98.1282 10.1068 98.4521 10.1068ZM98.031 11.9531C97.4479 11.9531 96.9297 11.8235 96.4762 11.5968C96.0227 11.3376 95.6664 11.0137 95.3425 10.625C95.051 10.2039 94.7918 9.75045 94.6623 9.1998C94.5003 8.64914 94.4355 8.09849 94.4355 7.51545C94.4355 6.64088 94.6299 5.86349 94.9862 5.15088C95.3425 4.43826 95.8608 3.92 96.4762 3.59609C97.0916 3.27218 97.7719 3.11022 98.4521 3.11022C98.9056 3.11022 99.3914 3.20739 99.8773 3.36935V0.0654297H102.048V11.7587H100.072L99.9745 11.1109C99.7801 11.3376 99.521 11.532 99.1971 11.6939C98.8408 11.8559 98.4521 11.9531 98.031 11.9531Z" fill="white"/>
<path d="M106.972 10.138C107.263 10.138 107.522 10.0732 107.781 9.97602C108.04 9.84646 108.267 9.71689 108.462 9.52254V7.8058C107.943 7.83819 107.49 7.90297 107.036 7.96776C106.583 8.06493 106.259 8.22689 106.065 8.45363C105.87 8.68037 105.805 8.9395 105.805 9.19863C105.805 9.49015 105.903 9.71689 106.097 9.87885C106.324 10.0732 106.615 10.138 106.972 10.138ZM106.486 11.9519C106.129 11.9519 105.773 11.8871 105.449 11.7575C105.125 11.628 104.834 11.466 104.575 11.2393C104.315 11.0125 104.121 10.721 103.959 10.3971C103.797 10.0732 103.732 9.6845 103.732 9.26341C103.732 8.68037 103.894 8.1945 104.218 7.77341C104.542 7.35232 104.963 7.0608 105.417 6.86645C105.903 6.6721 106.324 6.54254 106.745 6.47775C106.907 6.44536 107.49 6.38058 108.494 6.28341V6.15384C108.494 5.70036 108.364 5.34406 108.138 5.14971C107.911 4.95536 107.555 4.85819 107.134 4.85819C106.712 4.85819 106.324 4.95536 105.935 5.11732C105.546 5.31166 105.255 5.47362 105.06 5.63558L104.348 4.11318C104.51 3.98362 104.769 3.82166 105.093 3.6597C105.417 3.49775 105.805 3.36818 106.259 3.23862C106.712 3.14144 107.101 3.07666 107.522 3.07666C108.235 3.07666 108.85 3.20623 109.336 3.49775C109.822 3.78927 110.178 4.17797 110.373 4.69623C110.599 5.21449 110.697 5.73275 110.697 6.3158V11.7575H108.688L108.591 11.1097C108.364 11.3689 108.073 11.5632 107.684 11.7252C107.295 11.8871 106.907 11.9519 106.486 11.9519Z" fill="white"/>
<path d="M113.321 14.9297L114.357 12.5328H116.301L114.875 14.9297H113.321ZM115.329 11.9497C114.875 11.9497 114.454 11.8526 114.098 11.6582C113.742 11.4639 113.483 11.2047 113.353 10.8808C113.191 10.5569 113.126 10.2006 113.126 9.77952V5.05038H111.928V3.30125H113.126V1.09863H115.296V3.30125H117.24V5.05038H115.296V9.35843C115.296 9.61756 115.361 9.81191 115.491 9.90909C115.62 10.0063 115.782 10.071 115.944 10.071C116.365 10.071 116.754 9.94148 117.078 9.71474L117.629 11.2695C117.369 11.4639 117.013 11.6258 116.624 11.7554C116.203 11.885 115.782 11.9497 115.329 11.9497Z" fill="white"/>
<path d="M118.893 3.30229H121.063V11.7564H118.893V3.30229ZM119.994 2.5249C119.541 2.5249 119.217 2.39533 118.99 2.1362C118.763 1.87707 118.666 1.58555 118.666 1.26163C118.666 0.970112 118.763 0.678589 118.99 0.419458C119.217 0.160327 119.541 0.0307617 119.994 0.0307617C120.415 0.0307617 120.739 0.160327 120.966 0.419458C121.193 0.678589 121.29 0.970112 121.29 1.26163C121.29 1.58555 121.193 1.87707 120.966 2.1362C120.739 2.39533 120.415 2.5249 119.994 2.5249Z" fill="white"/>
<path d="M126.02 10.138C126.311 10.138 126.57 10.0732 126.829 9.97602C127.088 9.84646 127.315 9.71689 127.51 9.52254V7.8058C126.991 7.83819 126.538 7.90297 126.084 7.96776C125.631 8.06493 125.307 8.22689 125.113 8.45363C124.918 8.68037 124.853 8.9395 124.853 9.19863C124.853 9.49015 124.951 9.71689 125.145 9.87885C125.339 10.0732 125.631 10.138 126.02 10.138ZM125.501 11.9519C125.145 11.9519 124.789 11.8871 124.465 11.7575C124.141 11.628 123.849 11.466 123.59 11.2393C123.331 11.0125 123.137 10.721 122.975 10.3971C122.813 10.0732 122.748 9.6845 122.748 9.26341C122.748 8.68037 122.91 8.1945 123.234 7.77341C123.558 7.35232 123.979 7.0608 124.432 6.86645C124.918 6.6721 125.339 6.54254 125.76 6.47775C125.922 6.44536 126.505 6.38058 127.51 6.28341V6.15384C127.51 5.70036 127.38 5.34406 127.153 5.14971C126.927 4.95536 126.57 4.85819 126.149 4.85819C125.728 4.85819 125.339 4.95536 124.951 5.11732C124.562 5.31166 124.27 5.47362 124.076 5.63558L123.363 4.11318C123.525 3.98362 123.785 3.82166 124.108 3.6597C124.432 3.49775 124.821 3.36818 125.275 3.23862C125.728 3.14144 126.117 3.07666 126.538 3.07666C127.25 3.07666 127.833 3.20623 128.319 3.49775C128.805 3.78927 129.162 4.17797 129.356 4.69623C129.583 5.21449 129.68 5.73275 129.68 6.3158V11.7575H127.672L127.574 11.1097C127.348 11.3689 127.056 11.5632 126.667 11.7252C126.343 11.8871 125.922 11.9519 125.501 11.9519Z" fill="white"/>
<path d="M64.6394 25.7831L60.3313 14.0898H62.7283L65.7083 22.9327L68.6235 14.0898H70.8261L66.7448 25.7831" fill="white"/>
<path d="M74.711 24.0989C75.1645 24.0989 75.5208 23.9693 75.8447 23.6778C76.1686 23.3863 76.363 23.0624 76.4602 22.6737C76.5573 22.285 76.6221 21.8963 76.6221 21.54C76.6221 20.9569 76.5249 20.4711 76.3306 20.0824C76.1363 19.6937 75.9095 19.4346 75.618 19.2402C75.3265 19.0459 75.0349 18.9811 74.711 18.9811C74.2576 18.9811 73.8689 19.143 73.5773 19.4022C73.2534 19.6937 73.0591 20.05 72.9619 20.4063C72.8647 20.795 72.7999 21.1513 72.7999 21.5076C72.7999 21.8639 72.8323 22.2202 72.9295 22.5117C73.0267 22.8356 73.1239 23.0948 73.2858 23.3215C73.4478 23.5483 73.6421 23.7426 73.8689 23.8722C74.128 24.0341 74.3871 24.0989 74.711 24.0989ZM74.711 25.9776C74.0308 25.9776 73.4478 25.848 72.9295 25.5889C72.4112 25.3298 71.9902 25.0059 71.6662 24.5848C71.3423 24.1637 71.0832 23.6778 70.9212 23.1596C70.7593 22.6413 70.6621 22.0906 70.6621 21.54C70.6621 20.6978 70.8565 19.888 71.2452 19.1754C71.6339 18.4628 72.1197 17.9445 72.7675 17.6206C73.4154 17.2967 74.0632 17.1348 74.7434 17.1348C75.7152 17.1348 76.5249 17.3939 77.1404 17.9122C77.7882 18.4304 78.2093 19.0135 78.436 19.6937C78.6628 20.3739 78.7923 20.9893 78.7923 21.54C78.7923 22.3822 78.598 23.192 78.2093 23.937C77.8206 24.682 77.3347 25.2002 76.6869 25.5241C76.0391 25.8157 75.3912 25.9776 74.711 25.9776Z" fill="white"/>
<path d="M84.038 24.1312C84.2971 24.1312 84.5887 24.0664 84.8478 23.9044C85.1393 23.7749 85.3337 23.5805 85.4308 23.3862V19.2077C85.0097 19.0457 84.6211 18.9486 84.2648 18.9486C83.7465 18.9486 83.293 19.1105 82.9367 19.402C82.5804 19.6936 82.3537 20.0499 82.2565 20.4062C82.1593 20.7949 82.0945 21.1512 82.0945 21.4427C82.0945 21.799 82.1269 22.1229 82.2241 22.4468C82.2889 22.7707 82.4184 23.0623 82.5804 23.289C82.7424 23.5157 82.9367 23.7101 83.1634 23.872C83.4226 24.034 83.7141 24.1312 84.038 24.1312ZM83.6169 25.9775C83.0339 25.9775 82.5156 25.8479 82.0621 25.6212C81.6087 25.362 81.2524 25.0381 80.9284 24.6494C80.6369 24.2283 80.3778 23.7749 80.2482 23.2242C80.0863 22.6736 80.0215 22.1229 80.0215 21.5399C80.0215 20.6653 80.2158 19.8555 80.5721 19.1753C80.9284 18.4627 81.4467 17.9444 82.0621 17.6205C82.6776 17.2966 83.3578 17.1346 84.038 17.1346C84.4915 17.1346 84.9774 17.2318 85.4632 17.3938V14.0898H87.6335V25.7831H85.6576L85.5604 25.1353C85.3661 25.362 85.1069 25.5564 84.783 25.7183C84.4267 25.8803 84.038 25.9775 83.6169 25.9775Z" fill="white"/>
<path d="M92.6524 24.1637C92.9439 24.1637 93.203 24.0989 93.4622 24.0017C93.7213 23.8722 93.948 23.7426 94.1424 23.5483V21.8315C93.6241 21.8639 93.1706 21.9287 92.7172 21.9935C92.2637 22.0906 91.9398 22.2526 91.7454 22.4793C91.5511 22.7061 91.4863 22.9652 91.4863 23.2243C91.4863 23.5159 91.5835 23.7426 91.7778 23.9046C91.9722 24.0989 92.2637 24.1637 92.6524 24.1637ZM92.1341 25.9776C91.7778 25.9776 91.4215 25.9128 91.0976 25.7833C90.7737 25.6537 90.4822 25.4917 90.223 25.265C89.9639 25.0383 89.7696 24.7467 89.6076 24.4228C89.4456 24.0989 89.3809 23.7102 89.3809 23.2891C89.3809 22.7061 89.5428 22.2202 89.8667 21.7991C90.1906 21.378 90.6117 21.0865 91.0652 20.8922C91.5511 20.6978 91.9722 20.5682 92.3933 20.5035C92.5552 20.4711 93.1383 20.4063 94.1424 20.3091V20.1796C94.1424 19.7261 94.0128 19.3698 93.7861 19.1754C93.5593 18.9811 93.203 18.8839 92.782 18.8839C92.3609 18.8839 91.9722 18.9811 91.5835 19.143C91.1948 19.3374 90.9033 19.4993 90.7089 19.6937L89.9963 18.1713C90.1583 18.0417 90.4174 17.8798 90.7413 17.7178C91.0976 17.5559 91.4539 17.4263 91.9074 17.2967C92.3609 17.1995 92.7496 17.1348 93.1707 17.1348C93.8833 17.1348 94.4987 17.2643 94.9522 17.5559C95.438 17.8474 95.7943 18.2361 95.9887 18.7543C96.2154 19.2726 96.3126 19.7909 96.3126 20.3739V25.8157H94.3044L94.2072 25.1678C93.9804 25.427 93.6889 25.6213 93.3002 25.7833C92.9763 25.9128 92.5876 25.9776 92.1341 25.9776Z" fill="white"/>
<path d="M98.8114 25.7823V19.0773H97.6777V17.3282H98.8114V16.8747C98.8114 16.0649 98.9734 15.4495 99.2649 14.996C99.5564 14.5425 99.9127 14.251 100.366 14.089C100.787 13.9271 101.208 13.8623 101.629 13.8623C102.148 13.8623 102.601 13.8947 102.925 14.0243C103.281 14.1214 103.476 14.1862 103.541 14.2186L103.281 16.0325C103.217 16.0001 103.087 15.9354 102.86 15.8706C102.666 15.8058 102.374 15.7734 102.051 15.7734C101.759 15.7734 101.5 15.8706 101.273 16.0325C101.079 16.2269 100.949 16.5184 100.949 16.9071V17.2958H102.763V19.0449H100.949V25.7499" fill="white"/>
<path d="M107.46 24.0989C107.913 24.0989 108.27 23.9693 108.594 23.6778C108.917 23.3863 109.112 23.0624 109.209 22.6737C109.306 22.285 109.371 21.8963 109.371 21.54C109.371 20.9569 109.274 20.4711 109.079 20.0824C108.885 19.6937 108.658 19.4346 108.367 19.2402C108.075 19.0459 107.784 18.9811 107.46 18.9811C107.006 18.9811 106.618 19.143 106.326 19.4022C106.002 19.6937 105.808 20.05 105.711 20.4063C105.614 20.795 105.549 21.1513 105.549 21.5076C105.549 21.8639 105.581 22.2202 105.678 22.5117C105.743 22.8356 105.873 23.0948 106.035 23.3215C106.197 23.5483 106.391 23.7426 106.618 23.8722C106.877 24.0341 107.168 24.0989 107.46 24.0989ZM107.46 25.9776C106.78 25.9776 106.197 25.848 105.678 25.5889C105.16 25.3298 104.739 25.0059 104.415 24.5848C104.091 24.1637 103.832 23.6778 103.67 23.1596C103.508 22.6413 103.411 22.0906 103.411 21.54C103.411 20.6978 103.605 19.888 103.994 19.1754C104.383 18.4628 104.869 17.9445 105.516 17.6206C106.132 17.2967 106.812 17.1348 107.492 17.1348C108.464 17.1348 109.274 17.3939 109.889 17.9122C110.537 18.4304 110.958 19.0135 111.185 19.6937C111.412 20.3739 111.541 20.9893 111.541 21.54C111.541 22.3822 111.347 23.192 110.958 23.937C110.569 24.682 110.084 25.2002 109.436 25.5241C108.82 25.8157 108.14 25.9776 107.46 25.9776Z" fill="white"/>
<path d="M113.284 25.7833V17.3291H115.26L115.357 18.0093C115.681 17.7178 116.07 17.5235 116.491 17.3615C116.912 17.1995 117.333 17.1348 117.787 17.1348C118.467 17.1348 119.05 17.2967 119.536 17.5882C120.022 17.8798 120.346 18.3332 120.54 18.9163C120.734 19.4993 120.832 20.1148 120.832 20.795V25.7833H118.661V20.9569C118.661 20.3091 118.532 19.8232 118.24 19.4669C117.981 19.1106 117.592 18.9487 117.107 18.9487C116.783 18.9487 116.459 19.0459 116.167 19.2078C115.876 19.3698 115.617 19.5641 115.422 19.7909V25.7833" fill="white"/>
<path d="M124.789 20.5326H127.996C127.963 20.1439 127.866 19.82 127.672 19.5609C127.51 19.3017 127.283 19.1074 127.056 19.0102C126.797 18.913 126.603 18.8483 126.441 18.8483C126.052 18.8483 125.696 18.9778 125.372 19.2693C125.048 19.5609 124.821 19.982 124.789 20.5326ZM126.635 25.9744C126.085 25.9744 125.566 25.8772 125.08 25.7152C124.595 25.5533 124.141 25.2617 123.785 24.9054C123.396 24.5491 123.105 24.0633 122.878 23.5126C122.651 22.962 122.554 22.3141 122.554 21.5367C122.554 20.8241 122.651 20.2087 122.845 19.658C123.04 19.1074 123.331 18.6539 123.688 18.2652C124.044 17.8765 124.465 17.6174 124.919 17.3906C125.404 17.1963 125.89 17.0991 126.441 17.0991C127.315 17.0991 128.028 17.2935 128.611 17.7146C129.194 18.1356 129.583 18.6863 129.842 19.3989C130.101 20.1115 130.198 20.8565 130.198 21.6663V22.055H124.724C124.789 22.7676 124.983 23.2859 125.404 23.6098C125.793 23.9337 126.311 24.0957 126.959 24.0957C127.51 24.0957 127.996 23.9985 128.417 23.8365C128.838 23.6746 129.129 23.5126 129.291 23.3507L129.874 25.1322C129.648 25.2941 129.421 25.4237 129.162 25.5209C128.903 25.6181 128.514 25.7152 128.06 25.8124C127.542 25.9096 127.056 25.9744 126.635 25.9744Z" fill="white"/>
<path d="M69.1706 33.426H70.7578C72.0859 33.426 72.7661 32.9077 72.7661 31.8388C72.7661 31.2881 72.6041 30.867 72.2802 30.5755C71.9563 30.3164 71.4704 30.1544 70.7578 30.1544H69.1706V33.426ZM66.968 39.8071V28.1138H71.0493C71.8591 28.1138 72.5717 28.2433 73.1872 28.5349C73.8026 28.8264 74.2561 29.2151 74.5476 29.7657C74.8391 30.284 74.9687 30.8994 74.9687 31.612C74.9687 32.1951 74.8391 32.7457 74.58 33.264C74.3209 33.7823 73.8998 34.171 73.3491 34.5273C73.673 34.6568 73.9322 34.8836 74.1589 35.1751C74.3533 35.4666 74.5476 35.9849 74.7419 36.6327L75.6165 39.8071H73.2843L72.4098 36.8918C72.2478 36.4384 72.1506 36.1144 72.0535 35.9525C71.9563 35.7905 71.7943 35.661 71.6 35.5638C71.4056 35.499 71.1789 35.4342 70.9198 35.4342H69.203V39.8071H66.968Z" fill="white"/>
<path d="M80.2801 38.1214C80.7336 38.1214 81.0899 37.9918 81.4138 37.7003C81.7377 37.4088 81.9321 37.0848 82.0293 36.6962C82.1264 36.3075 82.1912 35.9188 82.1912 35.5625C82.1912 34.9794 82.094 34.4935 81.8997 34.1048C81.7053 33.7161 81.4786 33.457 81.1871 33.2627C80.8956 33.0683 80.604 33.0035 80.2801 33.0035C79.8266 33.0035 79.4379 33.1655 79.1464 33.457C78.8225 33.7485 78.6282 34.0725 78.531 34.4611C78.4338 34.8498 78.369 35.2062 78.369 35.5625C78.369 35.9188 78.4014 36.2751 78.4986 36.5666C78.5634 36.8905 78.6929 37.1496 78.8549 37.3764C79.0169 37.6031 79.2112 37.7975 79.4379 37.927C79.6647 38.0566 79.9562 38.1214 80.2801 38.1214ZM80.2801 40.0001C79.5999 40.0001 79.0169 39.8705 78.4986 39.6114C77.9803 39.3522 77.5592 39.0283 77.2353 38.6072C76.9114 38.1862 76.6523 37.7003 76.4903 37.182C76.3284 36.6638 76.2312 36.1131 76.2312 35.5625C76.2312 34.7203 76.4256 33.9105 76.8142 33.1979C77.2029 32.4853 77.6888 31.967 78.3366 31.6431C78.9845 31.3192 79.6323 31.1572 80.3125 31.1572C81.2843 31.1572 82.094 31.4164 82.7095 31.9346C83.3573 32.4529 83.7784 33.0359 84.0051 33.7161C84.2319 34.3964 84.3614 35.0118 84.3614 35.5625C84.3614 36.4046 84.1671 37.2144 83.7784 37.9594C83.3897 38.7044 82.9038 39.2227 82.256 39.5466C81.6082 39.8381 80.9603 40.0001 80.2801 40.0001Z" fill="white"/>
<path d="M85.9851 39.8057V31.3516H87.9934L88.0905 31.9994C88.3497 31.7727 88.6736 31.5783 89.0299 31.4164C89.4186 31.2544 89.8073 31.1572 90.1636 31.1572C90.5523 31.1572 90.941 31.222 91.3621 31.3516C91.7508 31.4811 92.1071 31.6755 92.4634 31.9994C92.8521 31.7727 93.2732 31.5783 93.7266 31.4164C94.1801 31.2544 94.6984 31.1896 95.2166 31.1896C96.1236 31.1896 96.8362 31.3516 97.3545 31.7079C97.8404 32.0642 98.1967 32.5177 98.3262 33.0683C98.4882 33.619 98.553 34.202 98.553 34.7527V39.8057H96.3827V34.8498C96.3827 34.2992 96.2856 33.8457 96.0588 33.4894C95.8645 33.1331 95.4434 32.9711 94.8927 32.9711C94.6012 32.9711 94.3097 33.0359 93.9858 33.1979C93.6619 33.3598 93.4027 33.4894 93.2084 33.6514C93.2732 34.0725 93.3056 34.4288 93.3056 34.6879V39.7733H91.1353V34.8175C91.1353 34.3964 91.0706 34.0401 90.9734 33.7809C90.8762 33.5218 90.7142 33.2951 90.4875 33.1655C90.2608 33.0035 90.034 32.9388 89.7749 32.9388C89.451 32.9388 89.1271 33.0359 88.8355 33.1979C88.544 33.3598 88.2849 33.5542 88.0905 33.7485V39.7733" fill="white"/>
<path d="M103.443 38.1861C103.734 38.1861 103.993 38.1213 104.252 38.0241C104.512 37.8946 104.738 37.765 104.933 37.5706V35.8539C104.414 35.8863 103.961 35.9511 103.507 36.0159C103.054 36.113 102.73 36.275 102.536 36.5017C102.341 36.7285 102.277 36.9876 102.277 37.2467C102.277 37.5382 102.374 37.765 102.568 37.9269C102.762 38.1213 103.054 38.1861 103.443 38.1861ZM102.212 30.2826L101.078 29.5052L103.086 27.2378H104.706L106.682 29.5052L105.548 30.2826L103.864 28.5982L102.212 30.2826ZM102.924 40C102.568 40 102.212 39.9352 101.888 39.8056C101.564 39.6761 101.272 39.5141 101.013 39.2874C100.754 39.0606 100.56 38.7691 100.398 38.4452C100.236 38.1213 100.171 37.7326 100.171 37.3115C100.171 36.7285 100.333 36.2426 100.657 35.8215C100.981 35.4004 101.402 35.1089 101.855 34.9145C102.341 34.7202 102.762 34.5906 103.184 34.5259C103.346 34.4935 103.929 34.4287 104.933 34.3315V34.2019C104.933 33.7485 104.803 33.3922 104.576 33.1978C104.35 33.0035 103.993 32.9063 103.572 32.9063C103.151 32.9063 102.762 33.0035 102.374 33.1654C101.985 33.3598 101.694 33.5217 101.499 33.7161L100.787 32.1937C100.949 32.0641 101.208 31.9022 101.532 31.7402C101.888 31.5782 102.244 31.4163 102.698 31.3191C103.119 31.2219 103.54 31.1571 103.961 31.1571C104.674 31.1571 105.289 31.2867 105.742 31.5782C106.228 31.8698 106.585 32.2585 106.779 32.7767C107.006 33.295 107.103 33.8132 107.103 34.3963V39.838H105.095L104.997 39.1902C104.771 39.4493 104.479 39.6437 104.091 39.8056C103.767 39.9352 103.378 40 102.924 40Z" fill="white"/>
<path d="M109.239 39.8057V31.3516H111.215L111.312 32.0318C111.636 31.7403 112.025 31.5459 112.446 31.384C112.867 31.222 113.288 31.1572 113.741 31.1572C114.422 31.1572 115.005 31.3192 115.491 31.6107C115.976 31.9022 116.3 32.3557 116.495 32.9388C116.689 33.5218 116.786 34.1372 116.786 34.8175V39.8057H114.616V34.9794C114.616 34.3316 114.486 33.8457 114.227 33.4894C113.968 33.1331 113.579 32.9711 113.094 32.9711C112.77 32.9711 112.446 33.0683 112.154 33.2303C111.863 33.3922 111.604 33.5866 111.409 33.8133V39.8057" fill="white"/>
<path d="M118.893 31.355H121.063V39.8092H118.893V31.355ZM119.994 30.5776C119.541 30.5776 119.217 30.4481 118.99 30.1889C118.763 29.9298 118.666 29.6383 118.666 29.3144C118.666 29.0228 118.763 28.7313 118.99 28.4722C119.217 28.2131 119.541 28.0835 119.994 28.0835C120.415 28.0835 120.739 28.2131 120.966 28.4722C121.193 28.7313 121.29 29.0228 121.29 29.3144C121.29 29.6383 121.193 29.9298 120.966 30.1889C120.739 30.4481 120.415 30.5776 119.994 30.5776Z" fill="white"/>
<path d="M126.02 38.1862C126.311 38.1862 126.57 38.1214 126.829 38.0242C127.088 37.8946 127.315 37.7651 127.51 37.5707V35.854C126.991 35.8864 126.538 35.9511 126.084 36.0159C125.631 36.1131 125.307 36.2751 125.113 36.5018C124.918 36.7285 124.853 36.9877 124.853 37.2468C124.853 37.5383 124.951 37.7651 125.145 37.927C125.339 38.1214 125.631 38.1862 126.02 38.1862ZM125.501 40.0001C125.145 40.0001 124.789 39.9353 124.465 39.8057C124.141 39.6762 123.849 39.5142 123.59 39.2875C123.331 39.0607 123.137 38.7692 122.975 38.4453C122.813 38.1214 122.748 37.7327 122.748 37.3116C122.748 36.7285 122.91 36.2427 123.234 35.8216C123.558 35.4005 123.979 35.109 124.432 34.9146C124.918 34.7203 125.339 34.5907 125.76 34.5259C125.922 34.4935 126.505 34.4288 127.51 34.3316V34.202C127.51 33.7485 127.38 33.3922 127.153 33.1979C126.927 33.0035 126.57 32.9064 126.149 32.9064C125.728 32.9064 125.339 33.0035 124.951 33.1655C124.562 33.3598 124.27 33.5218 124.076 33.7161L123.363 32.1938C123.525 32.0642 123.785 31.9022 124.108 31.7403C124.432 31.5783 124.821 31.4164 125.275 31.3192C125.728 31.222 126.117 31.1572 126.538 31.1572C127.25 31.1572 127.833 31.2868 128.319 31.5783C128.805 31.8698 129.162 32.2585 129.356 32.7768C129.583 33.2951 129.68 33.8133 129.68 34.3964V39.8381H127.672L127.574 39.1903C127.348 39.4494 127.056 39.6438 126.667 39.8057C126.343 39.9353 125.922 40.0001 125.501 40.0001Z" fill="white"/>
<path d="M40.5046 19.9207C40.5046 30.9338 31.5646 39.8414 20.5839 39.8414C9.57088 39.8738 0.630859 30.9338 0.630859 19.9207C0.630859 8.94002 9.57088 0 20.5516 0C31.5646 0 40.5046 8.94002 40.5046 19.9207Z" fill="white"/>
<path d="M20.7145 31.0632C15.2404 31.0956 9.53947 26.3989 9.50708 18.8841C9.50708 13.9282 12.1956 9.13426 15.5967 6.31621C18.933 3.56294 23.5002 1.78141 27.6462 1.74902C28.1969 1.74902 28.7476 1.78141 29.0715 1.91098C25.476 2.65598 22.5932 6.05708 22.5932 9.87926C22.5932 10.0088 22.5932 10.1384 22.6256 10.2032C28.6828 11.6932 31.4684 15.3534 31.4684 20.4065C31.5008 25.4919 27.4843 31.0308 20.7145 31.0632Z" fill="#E42528"/>
</svg>
