<svg xmlns="http://www.w3.org/2000/svg" viewBox="0 0 1030.86 140.35"><defs><style>.cls-1{fill:#2e2d77;}.cls-2{fill:#fbde57;}</style></defs><g id="Layer_2" data-name="Layer 2"><g id="Layer_1-2" data-name="Layer 1"><path class="cls-1" d="M187.93,25.46h24.21q12.56,0,21.8,4.65A32.93,32.93,0,0,1,248.12,43.4q4.94,8.64,4.93,20.38,0,19.38-11.21,29.24t-31.49,9.86H187.93Zm21.86,70.11q17.7,0,26.11-8t8.41-23.76q0-14.62-8.18-22.82T212,32.77H196.68v62.8Z"/><path class="cls-1" d="M284.37,99.5a37.19,37.19,0,0,1-14.73-14.23,40.88,40.88,0,0,1-5.38-21,40.84,40.84,0,0,1,5.38-21,37.68,37.68,0,0,1,14.68-14.29,45.7,45.7,0,0,1,41.92,0,37.75,37.75,0,0,1,14.68,14.29,40.94,40.94,0,0,1,5.38,21,41,41,0,0,1-5.38,21A37.22,37.22,0,0,1,326.18,99.5a45.88,45.88,0,0,1-41.81,0Zm37.27-6.7A29.32,29.32,0,0,0,333.3,81.45a33.79,33.79,0,0,0,4.26-17.23,34,34,0,0,0-4.21-17.11A29.44,29.44,0,0,0,321.81,35.7a33.31,33.31,0,0,0-16.31-4,34.12,34.12,0,0,0-16.47,4,29.49,29.49,0,0,0-11.72,11.41A33.57,33.57,0,0,0,273,64.22a33.79,33.79,0,0,0,4.26,17.23A29.3,29.3,0,0,0,288.91,92.8a35.56,35.56,0,0,0,32.73,0Z"/><path class="cls-1" d="M359.75,25.46h29q12.33,0,19.22,5.76t6.9,17.05q0,11.42-6.84,17.06T388.77,71H368.49v31.9h-8.74ZM388.1,63.67q8.4,0,13.23-3.38t4.82-12q0-8.75-4.82-12.12T388.1,32.77H368.49v30.9Z"/><path class="cls-1" d="M442.29,99.5a37.22,37.22,0,0,1-14.74-14.23,41,41,0,0,1-5.38-21,40.94,40.94,0,0,1,5.38-21,37.75,37.75,0,0,1,14.68-14.29,45.7,45.7,0,0,1,41.92,0,37.68,37.68,0,0,1,14.68,14.29,40.84,40.84,0,0,1,5.38,21,40.88,40.88,0,0,1-5.38,21A37.19,37.19,0,0,1,484.1,99.5a45.88,45.88,0,0,1-41.81,0Zm37.27-6.7a29.3,29.3,0,0,0,11.65-11.35,33.79,33.79,0,0,0,4.26-17.23,34,34,0,0,0-4.2-17.11A29.4,29.4,0,0,0,479.72,35.7a33.27,33.27,0,0,0-16.3-4,34.13,34.13,0,0,0-16.48,4,29.46,29.46,0,0,0-11.71,11.41,33.47,33.47,0,0,0-4.32,17.16,33.79,33.79,0,0,0,4.26,17.23A29.32,29.32,0,0,0,446.83,92.8a35.56,35.56,0,0,0,32.73,0Z"/><path class="cls-1" d="M517.66,25.46h9l29.59,63.9,29.58-63.9h9v77.42h-8.63V43.07l-27.68,59.81H554L526.29,43.07v59.81h-8.63Z"/><path class="cls-1" d="M628.34,99.5A37.15,37.15,0,0,1,613.6,85.27a40.88,40.88,0,0,1-5.38-21,40.84,40.84,0,0,1,5.38-21,37.68,37.68,0,0,1,14.68-14.29,45.7,45.7,0,0,1,41.92,0,37.75,37.75,0,0,1,14.68,14.29,40.84,40.84,0,0,1,5.38,21,40.88,40.88,0,0,1-5.38,21A37.22,37.22,0,0,1,670.14,99.5a45.85,45.85,0,0,1-41.8,0Zm37.26-6.7a29.32,29.32,0,0,0,11.66-11.35,33.79,33.79,0,0,0,4.26-17.23,33.86,33.86,0,0,0-4.21-17.11A29.44,29.44,0,0,0,665.77,35.7a33.31,33.31,0,0,0-16.31-4,34.12,34.12,0,0,0-16.47,4,29.49,29.49,0,0,0-11.72,11.41A33.57,33.57,0,0,0,617,64.22a33.79,33.79,0,0,0,4.26,17.23A29.3,29.3,0,0,0,632.87,92.8a35.56,35.56,0,0,0,32.73,0Z"/><path class="cls-1" d="M703.71,25.46h8.74V59.79h44.16V25.46h8.74v77.42h-8.74V67.1H712.45v35.78h-8.74Z"/><path class="cls-1" d="M810.07,25.46h8.18l31.27,77.42h-9l-8.4-20.71H796.06l-8.3,20.71h-9Zm19.61,49.4L814.1,35.43,798.63,74.86Z"/><path class="cls-1" d="M862.12,101.49a4.7,4.7,0,0,1-1.4-3.49,4.9,4.9,0,0,1,1.4-3.54A4.73,4.73,0,0,1,865.65,93a4.91,4.91,0,0,1,3.59,1.44A4.79,4.79,0,0,1,870.7,98a4.6,4.6,0,0,1-1.46,3.49,5,5,0,0,1-3.59,1.39A4.8,4.8,0,0,1,862.12,101.49Z"/><path class="cls-1" d="M884.15,25.46h30.26q12.21,0,18.55,5.65t6.33,16.72a21.32,21.32,0,0,1-5,14.29q-5,5.87-13.84,7.42l18.61,33.34H930L911.61,70H892.89v32.9h-8.74Zm29.14,37.21q8.07,0,12.66-3.76t4.6-11.08q0-8.19-4.54-11.63t-12.72-3.43h-20.4v29.9Z"/><path class="cls-1" d="M968.93,99.5A37.13,37.13,0,0,1,954.2,85.27a40.88,40.88,0,0,1-5.38-21,40.84,40.84,0,0,1,5.38-21,37.68,37.68,0,0,1,14.68-14.29,45.7,45.7,0,0,1,41.92,0,37.75,37.75,0,0,1,14.68,14.29,40.94,40.94,0,0,1,5.38,21,41,41,0,0,1-5.38,21,37.22,37.22,0,0,1-14.74,14.23,45.88,45.88,0,0,1-41.81,0Zm37.27-6.7a29.39,29.39,0,0,0,11.66-11.35,33.89,33.89,0,0,0,4.25-17.23,34,34,0,0,0-4.2-17.11,29.44,29.44,0,0,0-11.54-11.41,33.31,33.31,0,0,0-16.31-4,34.12,34.12,0,0,0-16.47,4,29.49,29.49,0,0,0-11.72,11.41,33.57,33.57,0,0,0-4.31,17.16,33.79,33.79,0,0,0,4.26,17.23A29.3,29.3,0,0,0,973.47,92.8a35.56,35.56,0,0,0,32.73,0Z"/><circle class="cls-2" cx="70.17" cy="70.17" r="70.17"/><rect class="cls-1" x="183.39" y="124.55" width="843.78" height="4.5"/></g></g></svg>