<svg xmlns="http://www.w3.org/2000/svg" viewBox="0 0 1263.75 140.35"><defs><style>.cls-1{fill:#2e2d77;}.cls-2{fill:#004aad;}</style></defs><g id="Layer_2" data-name="Layer 2"><g id="Layer_1-2" data-name="Layer 1"><path class="cls-1" d="M196,104.43a41.84,41.84,0,0,1-10.31-3v-8.2a56.53,56.53,0,0,0,22.64,4.55q10.09,0,14.85-3.22t4.76-9.63a11.85,11.85,0,0,0-2-7.2,15.19,15.19,0,0,0-5.66-4.49q-3.69-1.83-12.77-5.48-11.1-4.43-16.09-9.69a18.65,18.65,0,0,1-5-13.35,17.65,17.65,0,0,1,3.19-10.41,20.6,20.6,0,0,1,9-7,34,34,0,0,1,13.45-2.49,60.11,60.11,0,0,1,11.15.94,45.19,45.19,0,0,1,9.81,3v7.87a48.94,48.94,0,0,0-19.72-4.1q-9,0-13.57,3.21a10.33,10.33,0,0,0-4.59,9,11.44,11.44,0,0,0,1.9,6.65,17.79,17.79,0,0,0,6,5.09,87.77,87.77,0,0,0,11.26,5.1,88,88,0,0,1,12.67,5.81,18.51,18.51,0,0,1,9.64,17.56q0,9.86-7.06,15.23t-20.85,5.37A73.34,73.34,0,0,1,196,104.43Z"/><path class="cls-1" d="M250.14,26.46h29q12.33,0,19.22,5.76t6.9,17.05q0,11.42-6.84,17.06T279.16,72H258.88v31.9h-8.74Zm28.35,38.21q8.4,0,13.23-3.38t4.82-12q0-8.75-4.82-12.12t-13.23-3.38H258.88v30.9Z"/><path class="cls-1" d="M316.48,26.46h30.27q12.21,0,18.54,5.65t6.34,16.72a21.37,21.37,0,0,1-5,14.29q-5,5.87-13.84,7.42l18.6,33.34h-9.08L343.94,71H325.23v32.9h-8.75Zm29.14,37.21q8.07,0,12.67-3.76t4.59-11.08q0-8.19-4.53-11.63t-12.73-3.43H325.23v29.9Z"/><path class="cls-1" d="M385.19,26.46h8.74v77.42h-8.74Z"/><path class="cls-1" d="M410.24,105.1a20.34,20.34,0,0,1-5-1.22V96.35a20.27,20.27,0,0,0,4.54,1.05,38,38,0,0,0,5.1.39q12,0,12-11.74V26.46h8.74V86.71q0,9-5.27,13.9t-13.89,4.93A46.08,46.08,0,0,1,410.24,105.1Z"/><path class="cls-1" d="M450.86,26.46h8.75v77.42h-8.75Z"/><path class="cls-1" d="M475.41,26.46h8.4L527,89.15V26.46h8.75v77.42H527.3l-43.15-62.8v62.8h-8.74Z"/><path class="cls-1" d="M594,26.46h24.21q12.55,0,21.8,4.65A32.93,32.93,0,0,1,654.17,44.4q4.94,8.64,4.93,20.38,0,19.38-11.21,29.24t-31.49,9.86H594Zm21.86,70.11q17.7,0,26.11-8t8.41-23.76q0-14.62-8.18-22.82t-24.1-8.19H602.73v62.8Z"/><path class="cls-1" d="M672.55,26.46H723v7.31H681.29V61.46h31.27v7.31H681.29v27.8H723v7.31H672.55Z"/><path class="cls-1" d="M786.36,97.79q-7.9-7.76-7.9-21.6V26.46h8.74V76.85q0,10.53,5.94,15.73t16.59,5.21q10.65,0,16.59-5.21t5.94-15.73V26.46H841V76.19q0,13.85-7.9,21.6t-23.37,7.75Q794.26,105.54,786.36,97.79Z"/><path class="cls-1" d="M856.13,26.46h30.26q12.21,0,18.55,5.65t6.33,16.72a21.32,21.32,0,0,1-5,14.29q-5,5.87-13.84,7.42l18.61,33.34H902L883.59,71H864.87v32.9h-8.74Zm29.14,37.21q8.07,0,12.66-3.76t4.6-11.08q0-8.19-4.54-11.63t-12.72-3.43h-20.4v29.9Z"/><path class="cls-1" d="M940.69,100.55a36.23,36.23,0,0,1-14.63-14.12,41.72,41.72,0,0,1-5.26-21.21A41.74,41.74,0,0,1,926.06,44a36.61,36.61,0,0,1,14.63-14.17,44.08,44.08,0,0,1,21.24-5q16.25,0,26.9,8.41v8.42q-10.1-9-26.23-9a35.7,35.7,0,0,0-17,4A29,29,0,0,0,933.8,48a33.78,33.78,0,0,0-4.26,17.22,33.79,33.79,0,0,0,4.26,17.23A29.19,29.19,0,0,0,945.51,93.8a35.17,35.17,0,0,0,16.87,4A44.09,44.09,0,0,0,973,96.51a29.1,29.1,0,0,0,8.52-3.38V69.32H965.07V62h25.21V96.79a35.22,35.22,0,0,1-12.49,6.64,54.87,54.87,0,0,1-15.86,2.11A44.4,44.4,0,0,1,940.69,100.55Z"/><path class="cls-1" d="M1003.73,26.46h50.44v7.31h-41.7V61.46h31.27v7.31h-31.27v27.8h41.7v7.31h-50.44Z"/><path class="cls-1" d="M1067.62,26.46h8.4l43.15,62.69V26.46h8.74v77.42h-8.4l-43.15-62.8v62.8h-8.74Z"/><path class="cls-1" d="M1164.23,33.77h-25.11V26.46h59v7.31H1173v70.11h-8.74Zm-.34,77.09H1173l-10.2,21.82h-7.85Z"/><path class="cls-1" d="M1224.3,26.46h8.18l31.27,77.42h-9l-8.4-20.71h-36.09L1202,103.88h-9ZM1217,17.65a13.64,13.64,0,0,1-4.26-10.35h6.73a8,8,0,0,0,2.41,6.14,10.6,10.6,0,0,0,13.11,0,8,8,0,0,0,2.41-6.14H1244a13.64,13.64,0,0,1-4.26,10.35q-4.26,4.05-11.31,4T1217,17.65Zm26.9,58.21-15.58-39.44-15.46,39.44Z"/><circle class="cls-2" cx="70.17" cy="70.17" r="70.17"/><rect class="cls-1" x="183.39" y="125.55" width="1080.36" height="4.5"/></g></g></svg>