<svg xmlns="http://www.w3.org/2000/svg" viewBox="0 0 902.31 140.35"><defs><style>.cls-1{fill:#0e8040;}.cls-2{fill:#2e2d77;}</style></defs><g id="Layer_2" data-name="Layer 2"><g id="Layer_1-2" data-name="Layer 1"><circle class="cls-1" cx="70.17" cy="70.17" r="70.17"/><rect class="cls-2" x="183.39" y="128.55" width="718.92" height="4.5"/><path class="cls-2" d="M195.27,100.79q-7.89-7.76-7.9-21.6V29.46h8.74V79.85q0,10.53,5.95,15.73t16.58,5.21q10.65,0,16.59-5.21t5.94-15.73V29.46h8.74V79.19q0,13.85-7.9,21.6t-23.37,7.75Q203.18,108.54,195.27,100.79Z"/><path class="cls-2" d="M265,29.46h8.41L316.6,92.15V29.46h8.74v77.42h-8.41l-43.15-62.8v62.8H265Z"/><path class="cls-2" d="M412.65,29.46h8.18l31.27,77.42h-9l-8.41-20.71H398.64l-8.3,20.71h-9Zm19.61,49.4L416.68,39.42,401.21,78.86Z"/><path class="cls-2" d="M477,103.55a36.14,36.14,0,0,1-14.62-14.12,41.62,41.62,0,0,1-5.27-21.21A41.65,41.65,0,0,1,462.41,47,36.52,36.52,0,0,1,477,32.84a44.08,44.08,0,0,1,21.24-5q16.26,0,26.9,8.41v8.42q-10.08-9-26.23-9a35.7,35.7,0,0,0-17,4A29,29,0,0,0,470.14,51a33.78,33.78,0,0,0-4.26,17.22,33.42,33.42,0,0,0,4.32,17.23A29.41,29.41,0,0,0,482,96.8a35.52,35.52,0,0,0,16.92,4,47.07,47.07,0,0,0,15-2.22,34.29,34.29,0,0,0,12.22-7.31v8.53q-10,8.74-27.91,8.75A44.4,44.4,0,0,1,477,103.55Z"/><path class="cls-2" d="M554.7,103.5A37.22,37.22,0,0,1,540,89.27a41,41,0,0,1-5.38-21,40.94,40.94,0,0,1,5.38-21,37.71,37.71,0,0,1,14.69-14.29,45.68,45.68,0,0,1,41.91,0,37.78,37.78,0,0,1,14.69,14.29,40.94,40.94,0,0,1,5.38,21,41,41,0,0,1-5.38,21,37.22,37.22,0,0,1-14.74,14.23,45.88,45.88,0,0,1-41.81,0ZM592,96.8a29.3,29.3,0,0,0,11.65-11.35,33.79,33.79,0,0,0,4.26-17.23,34,34,0,0,0-4.2-17.11A29.44,29.44,0,0,0,592.14,39.7a33.31,33.31,0,0,0-16.31-4,34.19,34.19,0,0,0-16.48,4,29.53,29.53,0,0,0-11.71,11.41,33.47,33.47,0,0,0-4.31,17.16,33.89,33.89,0,0,0,4.25,17.23A29.32,29.32,0,0,0,559.24,96.8a35.56,35.56,0,0,0,32.73,0Z"/><path class="cls-2" d="M630.07,29.46h29q12.33,0,19.22,5.76t6.89,17.05q0,11.42-6.83,17.06T659.1,75H638.82v31.9h-8.75Zm28.36,38.21q8.4,0,13.22-3.38t4.82-12q0-8.75-4.82-12.12t-13.22-3.38H638.82v30.9Z"/><path class="cls-2" d="M696.42,29.46h50.44v7.31H705.17V64.46h31.26v7.31H705.17v27.8h41.69v7.31H696.42Z"/><path class="cls-2" d="M760.31,29.46h30.26q12.21,0,18.55,5.65t6.33,16.72a21.37,21.37,0,0,1-5,14.29q-5,5.86-13.84,7.42l18.6,33.34h-9.07L787.76,74H769.05v32.9h-8.74Zm29.14,37.21q8.07,0,12.66-3.76t4.6-11.08q0-8.19-4.54-11.63t-12.72-3.43h-20.4v29.9Z"/><path class="cls-2" d="M829,29.46h8.74v77.42H829Z"/><path class="cls-2" d="M861.62,107.43a41.84,41.84,0,0,1-10.31-3v-8.2A56.53,56.53,0,0,0,874,100.79q10.08,0,14.85-3.22t4.76-9.63a11.85,11.85,0,0,0-2-7.2,15.27,15.27,0,0,0-5.66-4.49q-3.69-1.83-12.77-5.48-11.1-4.42-16.09-9.69a18.65,18.65,0,0,1-5-13.35,17.65,17.65,0,0,1,3.19-10.41,20.6,20.6,0,0,1,9-7,34,34,0,0,1,13.45-2.49,60.11,60.11,0,0,1,11.15.94,45.19,45.19,0,0,1,9.81,3v7.87A49,49,0,0,0,879,35.55q-9,0-13.56,3.21a10.33,10.33,0,0,0-4.59,9,11.44,11.44,0,0,0,1.9,6.65,17.79,17.79,0,0,0,6,5.09A87.77,87.77,0,0,0,880,64.57a88,88,0,0,1,12.67,5.81,20.05,20.05,0,0,1,7.11,6.87q2.54,4.16,2.53,10.69,0,9.86-7.06,15.23t-20.85,5.37A73.26,73.26,0,0,1,861.62,107.43Zm11,6.43h9.07l-10.31,21.7h-7.84Z"/></g></g></svg>